<?xml version="1.0" encoding="UTF-8"?>
<svg xmlns="http://www.w3.org/2000/svg" xmlns:xlink="http://www.w3.org/1999/xlink" width="24pt" height="24pt" viewBox="0 0 24 24" version="1.1">
<g id="surface1">
<path style=" stroke:none;fill-rule:nonzero;fill:rgb(0%,0%,0%);fill-opacity:1;" d="M 23.960938 14.636719 L 23.964844 14.636719 L 20.023438 6.035156 L 20.980469 5.558594 L 20.621094 4.84375 L 19.691406 5.308594 L 19.5625 5.035156 C 19.472656 4.832031 19.234375 4.746094 19.035156 4.839844 C 18.949219 4.878906 18.878906 4.945312 18.835938 5.035156 L 18.722656 5.277344 C 18.046875 4.964844 17.308594 4.800781 16.558594 4.800781 L 13.199219 4.800781 L 13.199219 4 L 14 4 L 14 3.199219 L 13.3125 3.199219 L 13.601562 2.050781 C 13.820312 1.164062 13.285156 0.269531 12.402344 0.0507812 C 11.519531 -0.171875 10.621094 0.363281 10.398438 1.25 C 10.332031 1.511719 10.332031 1.785156 10.398438 2.050781 L 10.6875 3.199219 L 10 3.199219 L 10 4 L 10.800781 4 L 10.800781 4.800781 L 7.441406 4.800781 C 6.691406 4.800781 5.957031 4.964844 5.277344 5.28125 L 5.164062 5.035156 C 5.074219 4.832031 4.835938 4.746094 4.632812 4.839844 C 4.546875 4.878906 4.476562 4.949219 4.4375 5.035156 L 4.308594 5.308594 L 3.378906 4.839844 L 3.019531 5.558594 L 3.976562 6.035156 L 0.0351562 14.636719 C 0.0117188 14.683594 0 14.742188 0 14.800781 C 0.00390625 16.347656 1.253906 17.597656 2.800781 17.597656 L 6.800781 17.597656 C 8.347656 17.597656 9.597656 16.347656 9.597656 14.800781 C 9.597656 14.742188 9.585938 14.683594 9.558594 14.636719 L 5.609375 6.003906 C 6.183594 5.738281 6.808594 5.597656 7.441406 5.597656 L 10.800781 5.597656 L 10.800781 20.234375 L 9.433594 21.597656 L 8 21.597656 C 6.894531 21.601562 6.003906 22.496094 6 23.597656 C 6 23.824219 6.175781 24 6.402344 24 L 17.597656 24 C 17.824219 24 18 23.824219 18 23.597656 C 17.996094 22.496094 17.105469 21.601562 16 21.597656 L 14.566406 21.597656 L 13.199219 20.234375 L 13.199219 5.597656 L 16.558594 5.597656 C 17.191406 5.597656 17.820312 5.738281 18.394531 6.003906 L 14.4375 14.636719 C 14.410156 14.683594 14.402344 14.742188 14.402344 14.800781 C 14.402344 16.347656 15.652344 17.597656 17.199219 17.597656 L 21.199219 17.597656 C 22.746094 17.597656 23.996094 16.347656 24 14.800781 C 24 14.742188 23.988281 14.683594 23.960938 14.636719 Z M 6.800781 16.800781 L 2.800781 16.800781 C 1.847656 16.800781 1.03125 16.128906 0.839844 15.199219 L 8.761719 15.199219 C 8.566406 16.128906 7.75 16.800781 6.800781 16.800781 Z M 8.574219 14.402344 L 1.023438 14.402344 L 4.699219 6.386719 C 4.765625 6.402344 4.835938 6.402344 4.902344 6.386719 Z M 11.332031 1.128906 C 11.640625 0.757812 12.195312 0.710938 12.566406 1.019531 C 12.601562 1.050781 12.636719 1.089844 12.667969 1.128906 C 12.832031 1.332031 12.886719 1.601562 12.824219 1.855469 L 12.488281 3.199219 L 11.511719 3.199219 L 11.175781 1.855469 C 11.113281 1.601562 11.167969 1.332031 11.332031 1.128906 Z M 11.597656 4.800781 L 11.597656 4 L 12.402344 4 L 12.402344 4.800781 Z M 12.402344 5.597656 L 12.402344 20 L 11.597656 20 L 11.597656 5.597656 Z M 16 22.398438 C 16.511719 22.402344 16.960938 22.722656 17.128906 23.199219 L 6.871094 23.199219 C 7.039062 22.722656 7.488281 22.402344 8 22.398438 Z M 13.433594 21.597656 L 10.566406 21.597656 L 11.363281 20.800781 L 12.636719 20.800781 Z M 19.097656 6.386719 C 19.160156 6.410156 19.234375 6.40625 19.300781 6.378906 L 22.976562 14.402344 L 15.425781 14.402344 Z M 21.199219 16.800781 L 17.199219 16.800781 C 16.25 16.800781 15.433594 16.128906 15.238281 15.199219 L 23.160156 15.199219 C 22.96875 16.128906 22.152344 16.800781 21.199219 16.800781 Z M 21.199219 16.800781 "/>
</g>
</svg>
