<?xml version="1.0" standalone="no"?>
<!DOCTYPE svg PUBLIC "-//W3C//DTD SVG 1.1//EN" "http://www.w3.org/Graphics/SVG/1.1/DTD/svg11.dtd" >
<svg xmlns="http://www.w3.org/2000/svg" xmlns:xlink="http://www.w3.org/1999/xlink" version="1.1">
<metadata>
Created by FontForge 20160405 at Thu Dec 21 06:30:31 2017
 By www-data
Copyright (c) Asylbek Mereke, 1996, Almaty. Consultations Inc., Astana, 2003. All rights reserved.
</metadata>
<defs>
<font id="AsylbekM29kz" horiz-adv-x="2347" >
  <font-face 
    font-family="AsylbekM29.kz"
    font-weight="400"
    font-stretch="normal"
    units-per-em="2048"
    panose-1="2 0 5 6 0 0 0 2 0 3"
    ascent="1638"
    descent="-410"
    x-height="918"
    cap-height="1461"
    bbox="-39 -472 2242 1875"
    underline-thickness="0"
    underline-position="0"
    unicode-range="U+0020-2122"
  />
<missing-glyph horiz-adv-x="1024" 
d="M128 0v1875h768v-1875h-768zM256 128h512v1619h-512v-1619z" />
    <glyph glyph-name=".notdef" horiz-adv-x="1024" 
d="M128 0v1875h768v-1875h-768zM256 128h512v1619h-512v-1619z" />
    <glyph glyph-name=".null" horiz-adv-x="0" 
 />
    <glyph glyph-name="nonmarkingreturn" horiz-adv-x="512" 
 />
    <glyph glyph-name="space" unicode=" " horiz-adv-x="512" 
 />
    <glyph glyph-name="exclam" unicode="!" horiz-adv-x="645" 
d="M341 329q155 -28 155 -192q0 -70 -52 -116.5t-123 -46.5q-69 0 -121 45q-55 47 -55 115q0 162 160 195q-39 25 -56 66l-34 81q-23 55 -59 216q-39 175 -39 306q0 167 28 251q47 141 178 141t177 -145q26 -82 26 -254q0 -134 -38 -306q-33 -150 -51 -206
q-37 -116 -96 -150z" />
    <glyph glyph-name="quotedbl" unicode="&#x22;" horiz-adv-x="742" 
d="M189 1390q85 0 113 -111q14 -56 14 -179q0 -92 -27 -223l-31 -150q-18 -88 -68 -96q-43 -7 -74 84q-16 46 -39 152q-28 128 -28 226q0 128 16 186q30 111 124 111zM569 1390q85 0 113 -111q14 -56 14 -179q0 -92 -27 -223l-31 -150q-18 -88 -68 -96q-43 -7 -74 84
q-16 46 -39 152q-28 128 -28 226q0 128 16 186q30 111 124 111z" />
    <glyph glyph-name="numbersign" unicode="#" horiz-adv-x="1153" 
d="M722 970l34 194q23 134 111 134q52 0 66 -42q8 -24 8 -71v-27q0 -29 -9 -68q-3 -13 -11 -41q-14 -47 -19 -79l127 -1q72 -1 72 -84q0 -90 -87 -88l-146 3l-49 -236l129 -1q75 -1 75 -84q0 -91 -90 -89l-148 3l-36 -196q-24 -131 -117 -131q-67 0 -74 38q-3 16 -3 35
q0 25 6 52l45 202h-177q-3 -14 -19 -105q-3 -18 -16 -91q-23 -131 -117 -131q-66 0 -73 38q-3 16 -3 35q0 23 6 52l42 202l-126 1q-70 1 -70 84q0 88 85 87l145 -1l49 236l-122 1q-66 1 -66 84q0 88 80 87l142 -2l34 194q23 134 111 134q54 0 68 -42q8 -24 8 -70v-27
q-5 -44 -21 -109l-20 -80h176zM688 800h-176l-49 -236h177z" />
    <glyph glyph-name="dollar" unicode="$" horiz-adv-x="1153" 
d="M695 1347q236 -49 236 -191q0 -60 -33 -71q-15 -5 -44 -5h-12q-8 0 -20 2l-91 15q-12 2 -22 2q-32 0 -58.5 -21t-26.5 -52q0 -38 51 -86l119 -112q70 -66 148 -168q68 -89 68 -214q0 -286 -324 -407l-18 -143q-10 -79 -101 -79q-117 0 -117 196q-306 43 -306 215
q0 88 57 88q17 0 37 -7q93 -33 150 -33q93 0 132 68q18 31 18 67q0 87 -147 216q-95 83 -128 131q-82 117 -82 230q0 57 21 112q63 166 257 238q0 183 119 183q117 0 117 -174z" />
    <glyph glyph-name="percent" unicode="%" horiz-adv-x="1452" 
d="M255 132l816 1189q47 69 96 69q23 0 44 -14q38 -25 38 -62q0 -32 -28 -73l-830 -1205q-44 -64 -89 -64q-24 0 -46 16q-34 24 -34 61q0 35 33 83zM298 1390q42 0 106 -38q35 -21 35 -48q0 -20 -18 -40.5t-38 -20.5q-12 0 -24 8q-31 21 -63 21q-62 0 -98 -71
q-29 -57 -29 -126q0 -197 128 -197q126 0 126 116v59q0 17 1 55q0 14 -2 41t-2 40q-1 7 -1 11q0 59 48 59q54 0 86 -101q22 -70 22 -154q0 -31 -3 -67q-11 -133 -73 -219q-73 -102 -198 -102q-143 0 -217 127q-60 103 -60 258q0 143 65 255q78 134 209 134zM1150 760
q-133 0 -210 -136q-65 -114 -65 -258q0 -154 61 -261q75 -131 217 -131q140 0 215 131q60 105 60 257q0 88 -25 165q-33 102 -94 102q-51 0 -51 -56q0 -8 2 -17q15 -69 15 -199q0 -121 -126 -121q-128 0 -128 203q0 69 29 129q36 75 98 75q30 0 63 -21q12 -8 24 -8
q18 0 37 21t19 39q0 26 -36 48q-61 38 -105 38z" />
    <glyph glyph-name="ampersand" unicode="&#x26;" horiz-adv-x="1331" 
d="M600 -26q-134 0 -258 50q-172 69 -240 210q-50 103 -50 212q0 189 143 325q112 107 305 107q208 0 208 -89q0 -36 -37 -48l-81 -26q-118 -38 -118 -151q0 -69 52 -114q49 -44 119 -44h11q140 0 174 111q47 153 68 178q44 52 180 52q235 0 235 -143q0 -112 -99 -123h-87
q8 0 -51 -1h-36q24 -80 24 -148q0 -135 -91 -223q-139 -135 -371 -135zM512 1075q-71 0 -94 -86q-12 -46 -26 -62q-19 -22 -62 -22q-64 0 -101 59q-32 50 -32 118q0 148 124 226q133 84 275 84q155 0 262 -53q138 -68 138 -208q0 -78 -49 -132.5t-126 -54.5
q-61 0 -155.5 65.5t-153.5 65.5z" />
    <glyph glyph-name="quotesingle" unicode="'" horiz-adv-x="371" 
d="M189 1390q85 0 113 -111q14 -56 14 -179q0 -92 -27 -223l-31 -150q-18 -88 -68 -96q-43 -7 -74 84q-16 46 -39 152q-28 128 -28 226q0 128 16 186q30 111 124 111z" />
    <glyph glyph-name="parenleft" unicode="(" horiz-adv-x="726" 
d="M610 1639q74 0 74 -60q0 -18 -6 -40q-23 -82 -43 -136q-147 -393 -147 -806q0 -409 154 -803q17 -43 35 -127q3 -14 3 -28q0 -58 -76 -58q-49 0 -123 57q-197 152 -300 443q-88 249 -88 536q0 289 85 530q101 287 302 433q81 59 130 59z" />
    <glyph glyph-name="parenright" unicode=")" horiz-adv-x="726" 
d="M111 1639q44 0 111 -45q207 -139 311 -425q95 -262 95 -559q0 -282 -88 -532q-103 -292 -298 -439q-34 -26 -88 -50q-20 -9 -37 -9q-32 0 -55 26t-23 58q0 18 6 35l34 95q153 428 153 803q0 417 -146 806q-5 14 -24 73l-20 63q-5 16 -5 35q0 56 74 65z" />
    <glyph glyph-name="asterisk" unicode="*" horiz-adv-x="887" 
d="M436 1403q115 0 115 -104q0 -42 -46 -109.5t-46 -108.5q0 -46 -19 -46q-5 1 -14 5q-21 13 -38 26q-3 2 -21 21q-74 77 -74 197q0 119 143 119zM575 1023q-20 0 -43 -10q-9 -4 -19 -4q-29 0 -29 32q0 19 13 47q59 125 181 157q11 3 25 3q53 0 91 -42q35 -38 44 -92
q2 -12 2 -19q0 -41 -32.5 -71.5t-73.5 -30.5q-21 0 -40 7q-64 23 -119 23zM533 970q152 0 221 -86q32 -40 32 -86q0 -28 -14 -61q-35 -81 -122 -81q-103 0 -103 83v11q0 1 2 12q4 26 4 50q0 68 -37 105q-16 16 -16 36q2 17 33 17zM440 957q23 0 36 -61q9 -42 9 -81
q0 -77 -42 -128q-44 -55 -120 -55q-55 0 -90.5 32.5t-35.5 87.5q0 83 84 103q102 25 128 75q14 27 31 27zM160 1180q72 0 112 -71q44 -77 99 -85q33 -5 33 -20q0 -7 -6 -16q-46 -69 -188 -82q-66 0 -110 37q-47 39 -47 104q0 18 4 40q17 93 103 93z" />
    <glyph glyph-name="plus" unicode="+" horiz-adv-x="1153" 
d="M695 551v-225q0 -142 -123 -142q-121 0 -123 142l-3 225l-227 -1q-140 -1 -140 130q0 127 140 129l227 4l-1 225q-1 142 128 142q120 0 121 -143l1 -224h227q140 0 140 -134q0 -128 -141 -128h-226z" />
    <glyph glyph-name="comma" unicode="," horiz-adv-x="615" 
d="M243 -26q-74 7 -104 62q-22 40 -22 85q0 12 3 31q11 73 62 118t124 45q87 0 141 -59q51 -57 51 -145q0 -102 -54.5 -209t-136.5 -168q-47 -35 -87 -35q-29 0 -52 20t-23 48q0 32 38 85q45 62 53 86q4 12 7 36z" />
    <glyph glyph-name="hyphen" unicode="-" horiz-adv-x="444" 
d="M254 354q-123 0 -167 14q-87 28 -87 121q0 71 73 111q60 33 137 33q81 0 138 -30q72 -38 72 -112q0 -65 -52 -103q-46 -34 -114 -34z" />
    <glyph glyph-name="hyphen" unicode="&#x2010;" horiz-adv-x="444" 
d="M254 354q-123 0 -167 14q-87 28 -87 121q0 71 73 111q60 33 137 33q81 0 138 -30q72 -38 72 -112q0 -65 -52 -103q-46 -34 -114 -34z" />
    <glyph glyph-name="period" unicode="." horiz-adv-x="589" 
d="M298 354q84 0 134 -53t50 -137t-51.5 -137t-134.5 -53t-136 53.5t-53 136.5q0 84 53.5 137t137.5 53z" />
    <glyph glyph-name="slash" unicode="/" horiz-adv-x="726" 
d="M727 1280l-502 -1290q-28 -71 -96 -110q-26 -15 -51 -15q-45 0 -81 38t-36 83t27 115l488 1264q52 134 137 134q24 0 52 -11q82 -33 82 -116q0 -41 -20 -92z" />
    <glyph glyph-name="zero" unicode="0" horiz-adv-x="1153" 
d="M341 811q0 -128 49 -211q60 -102 179 -102q184 0 223 194q11 55 11 173q0 52 -15 160q-3 21 -3 36q0 89 77 89q89 0 148 -100q93 -158 93 -422q0 -236 -116 -417q-152 -237 -412 -237q-174 0 -300 101q-120 95 -177 265q-45 133 -45 307q0 496 333 700q85 52 172 52
q93 0 184 -62q46 -31 66 -83q6 -16 6 -33q0 -36 -28.5 -66t-63.5 -30q-20 0 -41 11q-58 31 -113 31q-117 0 -178 -125q-49 -100 -49 -231z" />
    <glyph glyph-name="one" unicode="1" horiz-adv-x="1153" 
d="M499 779q-67 -52 -122 -52q-59 0 -100 58q-38 53 -38 114q0 84 133 265q144 195 294 226q15 3 27 3q97 0 147 -106q38 -81 38 -189q0 -238 -24 -476l-30 -298l-21 -169q-22 -181 -99 -181q-100 0 -158 365l-22 139q-3 35 -11 133z" />
    <glyph glyph-name="two" unicode="2" horiz-adv-x="1153" 
d="M598 341q45 0 133.5 -13t133.5 -13q56 0 133 46q20 12 37 12q40 0 40 -87q0 -132 -88.5 -215.5t-221.5 -83.5q-131 0 -267 50q-52 19 -98 19q-79 0 -155 -53q-41 -29 -73 -29t-52 29q-41 58 -41 138q0 296 326 491q212 127 235 145q114 90 152 224q15 52 57 105
q15 19 30 19q38 0 64 -94q20 -72 20 -125q0 -81 -30 -168q-61 -178 -171 -277q-47 -43 -164 -120zM513 1390q102 0 231 -68q64 -34 96 -76q16 -21 16 -46q0 -73 -55 -73q-16 0 -45 13l-45 20q-21 7 -42 7q-76 0 -119 -48q-30 -33 -62 -116t-60 -116q-41 -48 -115 -48
q-137 0 -185 119q-21 52 -21 104q0 64 32 123q51 95 159 152q101 53 215 53z" />
    <glyph glyph-name="three" unicode="3" horiz-adv-x="1153" 
d="M894 732q182 -93 182 -285q0 -193 -134 -325q-151 -148 -374 -148q-216 0 -370 156q-119 120 -119 252q0 58 35 102q14 18 30 18q25 0 52 -43q69 -110 172 -126q19 -3 45 -3q162 0 200 149q4 16 4 35q0 67 -61 138q-46 53 -46 87q0 18 13 30q36 33 124 61q165 52 195 223
q9 54 52 48t65 -44q29 -51 29 -106q0 -35 -10 -66q-28 -87 -84 -153zM500 1377q98 0 212 -44q140 -54 140 -136q0 -58 -56 -58q-16 3 -80 11q-31 4 -51 4q-84 0 -130 -52q-19 -22 -72 -126q-47 -93 -125 -93q-8 1 -12 1q-92 10 -147 81q-52 67 -52 162q0 98 128 184
q99 66 245 66z" />
    <glyph glyph-name="four" unicode="4" horiz-adv-x="1153" 
d="M876 531l158 18q80 9 80 -119q0 -125 -77 -212q-65 -73 -164 -73q-19 0 -40 3q-9 -86 -17 -110q-21 -64 -75 -64q-68 0 -80 73l-19 117h-207q-49 0 -75 -1l-130 -5q-168 -6 -182 120q-2 18 -2 40q0 189 186 495q96 158 175 235q32 31 68 38q10 2 14 2q29 0 55 -31
q-4 28 -4 55q0 84 33 167q44 111 181 111q192 0 192 -167q0 -29 1 -86.5t1 -86.5v-15q0 -54 -6 -100q-15 -117 -66 -404zM610 512q-16 77 -27 138q-19 105 -25 162q-10 91 -10 186q-5 -20 -81 -240q-49 -142 -61 -245z" />
    <glyph glyph-name="five" unicode="5" horiz-adv-x="1153" 
d="M99 276q14 0 33 -6q79 -25 169 -25q53 0 110 9q153 24 153 208q0 137 -177 233q-46 25 -46 59q0 85 226 85q205 0 337 -102q145 -112 145 -311q0 -162 -93 -273q-89 -107 -248 -152q-85 -24 -181 -24q-229 0 -395 126q-28 21 -71 94q-15 25 -15 42q0 37 53 37zM402 1390
q121 0 207 -38q34 -15 72 -15q57 0 135 37q31 15 54 15q36 0 55 -34q32 -58 32 -121q0 -121 -80.5 -205.5t-200.5 -84.5q-46 0 -138 13t-138 13q-73 0 -86 -31q-8 -19 -8 -67q0 -11 1 -34t1 -34q0 -30 -51 -30q-49 0 -93 66q-70 105 -70 224q0 65 21 132q61 194 287 194z
" />
    <glyph glyph-name="six" unicode="6" horiz-adv-x="1153" 
d="M628 1390q67 0 67 -79q0 -35 -80 -236l-103 -259q-49 -123 -49 -276q0 -120 138 -120q101 0 135 101q14 41 14 75q0 55 -33 99q-25 34 -122 86q-42 23 -42 48q0 39 69 67q59 24 102 24q32 0 63 -7q99 -22 161 -79q140 -128 140 -366q0 -215 -154 -358
q-150 -140 -367 -140q-223 0 -370 158q-116 124 -130 283q0 195 40 315q98 295 349 547q116 117 172 117z" />
    <glyph glyph-name="seven" unicode="7" horiz-adv-x="1153" 
d="M576 831q-23 -4 -51 -4q-32 0 -94.5 12.5t-94.5 12.5q-71 0 -125 -36q-13 -9 -28 -9q-40 0 -80 76q-45 86 -45 170q0 95 60 194q88 145 247 145q40 0 83 -9l91 -19q47 -10 123 -31q25 -7 55 -7q64 0 155 37q34 14 62 14q29 0 47 -18q46 -46 49 -141l1 -32q1 -22 -3 -56
q-7 -70 -18 -109q-90 -337 -402 -963q-42 -84 -96 -84q-69 0 -69 91v17q0 4 2 20q15 116 25 169z" />
    <glyph glyph-name="eight" unicode="8" horiz-adv-x="1153" 
d="M776 869q312 -162 312 -426q0 -222 -160 -342q-172 -129 -351 -129q-218 0 -353 91q-158 106 -158 314q0 84 52 200q47 104 136 104h12q9 -2 13 -2q-171 145 -171 335q0 189 179 304q112 72 279 72q155 0 268 -67q136 -80 136 -223q0 -89 -51 -157q-57 -74 -143 -74z
M746 883q-29 32 -29 65q0 29 21 62q17 26 17 54q0 42 -45 83q-34 31 -95 31q-117 0 -117 -91q0 -82 94 -130q107 -55 154 -74zM308 655q5 -15 5 -39q0 -28 -8 -50q-16 -44 -16 -92q0 -124 70 -163q45 -25 91 -25q21 0 44 7q62 19 81 83q3 10 3 19q0 57 -92 125
q-61 45 -178 135z" />
    <glyph glyph-name="nine" unicode="9" horiz-adv-x="1153" 
d="M563 944q-112 0 -136 -108q-6 -27 -6 -54q0 -73 52 -124q35 -35 110 -76q32 -18 32 -40q0 -38 -71 -72q-63 -30 -106 -30q-61 0 -128 37q-237 131 -237 411q0 131 73 260q137 242 423 242q352 0 454 -275q45 -122 45 -250q0 -152 -67 -308q-12 -28 -86 -152
q-161 -270 -320 -395q-46 -36 -80 -36q-30 0 -50.5 26t-20.5 57q0 18 9 44q22 62 40 102q85 184 143 364l33 102q22 68 22 124q0 151 -128 151z" />
    <glyph glyph-name="colon" unicode=":" horiz-adv-x="615" 
d="M312 892q83 0 133 -53.5t50 -137.5t-51 -137t-135 -53q-83 0 -136 53.5t-53 136.5q0 84 54 137.5t138 53.5zM312 354q83 0 133 -53t50 -137t-51.5 -137t-134.5 -53t-136 53.5t-53 136.5q0 84 54 137t138 53z" />
    <glyph glyph-name="semicolon" unicode=";" horiz-adv-x="615" 
d="M311 892q84 0 134 -53.5t50 -137.5t-51.5 -137t-135.5 -53q-83 0 -135.5 53.5t-52.5 136.5q0 84 53.5 137.5t137.5 53.5zM243 -26q-74 7 -104 62q-22 40 -22 85q0 12 3 31q11 73 62 118t124 45q87 0 141 -59q51 -57 51 -145q0 -102 -54.5 -209t-136.5 -168
q-47 -35 -87 -35q-29 0 -52 20t-23 48q0 32 38 85q45 62 53 86q4 12 7 36z" />
    <glyph glyph-name="less" unicode="&#x3c;" horiz-adv-x="1024" 
d="M334 696l510 -250q115 -56 115 -160t-59 -104q-18 0 -44 13l-745 375q-46 23 -46 71v112q0 46 44 69l90 48l657 329q24 12 44 12q60 0 60 -96v-10q0 -103 -115 -159z" />
    <glyph glyph-name="equal" unicode="=" horiz-adv-x="1153" 
d="M906 774h-636q-191 0 -191 129q0 133 197 133h624q178 0 178 -131t-172 -131zM906 328h-636q-191 0 -191 129q0 133 197 133h624q178 0 178 -131t-172 -131z" />
    <glyph glyph-name="greater" unicode="&#x3e;" horiz-adv-x="1024" 
d="M744 696l-511 250q-115 56 -115 159q0 106 60 106q20 0 44 -12l747 -377q44 -22 44 -69v-112q0 -47 -46 -71l-88 -46l-657 -329q-26 -13 -45 -13q-48 0 -57 84q-1 9 -1 13v7q0 104 115 160z" />
    <glyph glyph-name="question" unicode="?" horiz-adv-x="990" 
d="M521 329q66 -13 106 -61t40 -115q0 -13 -1 -17q-5 -71 -55 -116.5t-122 -45.5q-148 0 -172 149q-3 19 -3 39q0 117 131 162q-183 0 -183 149q0 114 181 157q155 37 239 120q77 76 133 232q20 56 66 56q63 0 63 -183q0 -199 -113 -344q-117 -152 -310 -182zM447 1390
q139 0 264 -62q154 -76 154 -199q0 -67 -37 -67q-35 0 -98 32q-71 36 -122 36q-31 0 -52 -15q-53 -38 -91 -109q-64 -118 -85 -142q-55 -64 -145 -64q-150 0 -198 134q-21 59 -21 115q0 71 33 135q53 102 169 157q103 49 229 49z" />
    <glyph glyph-name="at" unicode="@" horiz-adv-x="1473" 
d="M873 482q-57 -73 -162 -121q-31 -14 -62 -14q-77 0 -126 83q-41 70 -41 153v20q0 6 2 22q34 267 232 341q27 10 54 10q66 0 137 -63q44 71 99 71q95 0 95 -124q0 -34 -13 -107q-36 -200 -95 -329q-32 -70 -70 -70q-30 0 -39 56zM869 803q-41 39 -77 39q-14 0 -28 -6
q-46 -20 -68 -71q-14 -32 -14 -64q0 -18 4 -35q12 -50 71 -50q70 0 93 63q9 25 19 124zM782 1390q276 0 455 -178t179 -454q0 -144 -54 -259q-68 -145 -196 -145q-36 0 -90 27q-26 13 -26 29q0 17 30 37q138 92 138 271v18q0 236 -197 325q-91 41 -187 41q-87 0 -172 -34
q-181 -72 -260 -247q-51 -113 -51 -213q0 -39 8 -79q27 -134 118.5 -217t228.5 -100q16 -2 22 -2h22q115 0 234 66q45 25 77 25q41 0 57 -43q9 -24 9 -49q0 -51 -41 -101q-110 -134 -364 -134q-252 0 -424.5 150t-217.5 400q-12 66 -12 135q0 154 63 310q91 225 324 344
q151 77 327 77z" />
    <glyph glyph-name="A" unicode="A" horiz-adv-x="1143" 
d="M312 289q-25 -164 -37 -198q-41 -117 -134 -117q-115 0 -115 148q0 157 66 430q140 578 357 785q60 57 127 57q85 0 180 -90q66 -62 140 -216q133 -276 197 -626q17 -93 17 -191q0 -83 -13 -148q-30 -149 -186 -149q-102 0 -137 128l-54 198q-13 -63 -76 -100
q-55 -33 -124 -33q-172 0 -208 122zM325 349q64 85 184 85q124 0 192 -68l-27 90q-57 191 -116 293q-37 64 -70 64q-60 0 -115 -218q-18 -72 -33 -158z" />
    <glyph glyph-name="B" unicode="B" horiz-adv-x="1296" 
d="M986 760q152 -51 208 -158q38 -73 38 -155q0 -158 -120 -291q-166 -184 -451 -184q-270 0 -478 161q-49 38 -115 122q-35 45 -35 85q0 37 26.5 66.5t63.5 29.5q33 0 74 -26q80 -50 132 -77q-36 50 -44 98l-19 107q-42 237 -42 597q-132 48 -132 172q0 97 41 97q6 0 17 -4
q56 -20 123 -31q44 60 114 60t115 -59q58 0 172.5 -3.5t172.5 -3.5q179 0 276 -173q46 -82 46 -164q0 -43 -13 -86q-37 -123 -170 -180zM549 1109q0 -251 -45 -495q-3 -18 -36 -165l-8 -36q-22 -99 -89 -99q56 -19 122 -19q63 0 136 20q145 40 145 191q0 75 -51 112
q-38 19 -95 51q-51 29 -51 90q0 73 51 99q47 19 95 37q51 30 51 108q0 91 -81 102q-44 6 -94 6h-25q-17 -2 -25 -2z" />
    <glyph glyph-name="C" unicode="C" horiz-adv-x="1073" 
d="M259 983q69 0 69 -60q0 -6 -2 -21q-11 -82 -11 -126q0 -181 144 -283q91 -64 194 -64q58 0 121 21q55 31 171 81q19 6 34 6q21 0 39 -12q31 -20 31 -105q0 -188 -141 -319q-138 -127 -328 -127q-166 0 -290 89t-184 245q-43 112 -43 305q0 144 97 298q45 72 99 72z
M520 1075q-61 0 -120 -57q-29 -28 -57 -28q-31 0 -58 31q-33 37 -33 78q0 58 63 119q90 87 159 123q85 44 193 44q70 0 144 -18q172 -42 172 -228q0 -79 -51 -141q-54 -67 -131 -67q-57 0 -140.5 72t-140.5 72z" />
    <glyph glyph-name="D" unicode="D" horiz-adv-x="1234" 
d="M825 1191q342 -168 342 -574q0 -328 -216 -505q-170 -139 -401 -139q-254 0 -408 115q-90 67 -90 135q0 78 66 78q31 0 102 -33q29 -13 105 -50q-42 42 -71 231q-34 221 -34 549q-99 49 -151 151q-23 45 -23 93q0 58 35 114q30 48 63 48q7 0 72 -27q22 -9 50 -20
q54 80 118 80q23 0 49 -11q92 -39 118 -147q188 -46 274 -88zM774 553q0 131 -63 206q-53 63 -184 119q0 -258 -65 -532q-16 -66 -24 -86q-20 -47 -60 -61q198 0 292 76q104 85 104 278z" />
    <glyph glyph-name="E" unicode="E" horiz-adv-x="1048" 
d="M208 878q71 0 71 -116q0 -213 195 -304q81 -38 158 -38q106 0 206 71q67 47 109 47q70 0 70 -148q0 -61 -21 -119q-50 -140 -165.5 -218t-265.5 -78q-146 0 -268.5 78.5t-184.5 210.5q-60 128 -60 258q0 116 27 212q40 144 129 144zM636 1075q-85 0 -85 -80q0 -39 27 -72
q38 -46 89 -46q18 0 52 8.5t52 8.5q31 0 57 -12q50 -23 50 -108q0 -78 -68 -121q-58 -37 -140 -37q-173 0 -281.5 107t-108.5 280q0 174 109 280.5t283 106.5q112 0 195 -43q103 -53 103 -155q0 -61 -39 -107q-41 -49 -101 -49q-33 0 -97 19.5t-97 19.5z" />
    <glyph glyph-name="F" unicode="F" horiz-adv-x="1034" 
d="M440 96q-35 -122 -111 -122q-99 0 -122 218q-47 447 -47 749q-97 45 -135 175q-16 55 -16 103q0 67 31 119q23 39 52 39q9 -2 50 -14q24 -7 45 -12q56 108 136 108q14 0 29 -3q101 -21 150 -129h72q77 0 120 6q79 11 188 47q30 10 54 10q54 0 83 -49q43 -72 43 -152
q0 -198 -189 -263q-108 -37 -359 -37l-11 -227q57 99 130 99q6 1 13 1h10q67 0 118 -40t66 -105q3 -13 3 -26q0 -58 -60 -104q-56 -44 -115 -44q-21 0 -45 6q-88 22 -127 111q0 -269 -56 -464z" />
    <glyph glyph-name="G" unicode="G" horiz-adv-x="1164" 
d="M823 492q-30 -3 -62 -3q-54 0 -114 10q-96 16 -96 129q0 137 203 171q36 6 78 6q37 0 83 -8q81 -14 119 -53q57 -58 57 -245q0 -189 -27 -264q-45 -126 -174 -191q-110 -56 -257 -56q-229 0 -377 112q-176 133 -200 372q-5 50 -5 91q0 185 88 329q56 91 117 91
q73 0 73 -50q0 -19 -12 -48q-41 -100 -41 -150q0 -257 210 -350q63 -28 153 -28h36q12 2 17 2q120 11 131 133zM544 1075q-67 0 -137 -47q-33 -22 -62 -22q-33 0 -58.5 26.5t-25.5 59.5q0 41 32 96q85 145 273 188q66 15 123 15q113 0 208 -57q80 -48 99 -124q9 -36 9 -68
q0 -114 -94 -172q-29 -18 -66 -18q-78 0 -180 81q-53 42 -121 42z" />
    <glyph glyph-name="H" unicode="H" horiz-adv-x="1234" 
d="M444 384l-12 -89q-5 -36 -23 -138q-38 -183 -111 -183q-60 0 -86 93q-17 61 -63 451q-44 373 -44 571q0 301 208 301q198 0 198 -303q0 -177 -52 -590q58 81 153 81q87 0 158 -79q-49 406 -49 602q0 289 208 289q198 0 198 -304q0 -208 -27 -440q-11 -114 -64 -433
l-29 -141q-20 -98 -88 -98q-84 0 -121 256q-6 41 -6 66l-8 91q-57 -114 -170 -114q-114 0 -170 111z" />
    <glyph glyph-name="I" unicode="I" horiz-adv-x="611" 
d="M310 1390q198 0 198 -320q0 -333 -88 -851q-3 -21 -13 -77l-15 -68q-22 -100 -91 -100q-78 0 -94 112l-23 159q-83 574 -83 848q0 297 209 297z" />
    <glyph glyph-name="J" unicode="J" horiz-adv-x="973" 
d="M459 1092q0 120 43 199q54 99 165 99q198 0 198 -308q0 -261 -76 -754q63 -53 63 -119q0 -234 -432 -234q-146 0 -297 90q-136 81 -136 238q0 81 48 142q51 66 130 66q78 0 107 -54l34 -101q25 -54 94 -54q109 0 109 129q0 78 -14 197q-36 306 -36 464z" />
    <glyph glyph-name="K" unicode="K" horiz-adv-x="1215" 
d="M484 703q-16 -156 -35 -315q-21 -179 -58 -311q-21 -74 -81 -100q-14 -6 -25 -6q-43 0 -67 74q-30 93 -70 477q-43 414 -43 574q0 120 44 197q55 97 166 97q171 0 195 -240q4 -40 4 -98v-13q0 -38 -5 -88l-16 -161q47 63 131 186q32 46 94 169q57 111 98 163
q55 69 130 69q69 0 112 -44.5t43 -113.5q0 -144 -126 -275q-76 -79 -249 -191q81 -34 144 -118q33 -44 95 -163q67 -129 91 -164q58 -87 133 -127q67 -36 67 -73q0 -30 -45 -62q-101 -72 -180 -72q-161 0 -261 122q-57 69 -141 267z" />
    <glyph glyph-name="L" unicode="L" horiz-adv-x="961" 
d="M105 1089q0 301 208 301q198 0 198 -314q0 -116 -26 -348t-26 -348q0 -77 52 -77q91 0 258 83q69 34 96 34q105 0 105 -142q0 -135 -115 -216q-93 -66 -240 -86q-51 -7 -97 -7q-91 0 -179 24q-133 36 -191 127q-32 50 -32 89q0 50 61 116q-72 578 -72 764z" />
    <glyph glyph-name="M" unicode="M" horiz-adv-x="1502" 
d="M757 1004q40 136 98 234q88 149 185 149q39 0 82 -25q139 -81 246 -475q60 -221 60 -436q0 -247 -89 -379q-66 -98 -159 -98q-78 0 -105 72q-14 37 -20 139l-6 104q-1 23 -5 88q-9 104 -45 271q-16 73 -48 73q-33 0 -54 -78l-47 -171q-68 -249 -154 -249q-72 0 -97 94
l-30 113q-27 101 -47 156q-38 103 -77 138q-8 7 -15 7q-26 0 -46 -83q-30 -124 -30 -262v-265q0 -112 -98 -145q-21 -7 -43 -7q-65 0 -99 80q-57 135 -57 314q0 120 27 261q66 346 170 560q77 159 153 190q29 12 58 12q43 0 86 -30q126 -88 206 -352z" />
    <glyph glyph-name="N" unicode="N" horiz-adv-x="1196" 
d="M851 624q7 67 8 166l1 110q1 97 -26 277q-4 27 -4 64v28q0 10 4 44q9 77 98 77q106 0 134 -228q12 -102 11 -185l-2 -128q-6 -403 -31 -617q-28 -245 -182 -245q-91 0 -148 84q-63 93 -89 155l-40 96q-21 51 -64 152q-92 208 -136 208q-48 0 -48 -78v-15q2 -12 2 -18
l24 -200q14 -117 14 -200v-11q0 -43 -4 -75q0 -111 -109 -111q-117 0 -142 254q-9 95 -7 194l3 130q-1 95 0 285q4 226 45 370q53 183 165 183q188 0 349 -295q109 -200 174 -471z" />
    <glyph glyph-name="O" unicode="O" horiz-adv-x="1210" 
d="M613 472q115 0 185 88q66 81 66 199q0 111 -27 213q-8 30 -8 62q0 23 5 49q11 58 87 58q116 0 183 -203q50 -152 50 -300q0 -237 -115 -423q-149 -241 -431 -241q-176 0 -314 107q-228 177 -228 559q0 336 174 551q93 114 260 180q66 26 128 26q92 0 175 -58
q62 -43 62 -105q0 -19 -7 -42q-20 -64 -76 -64q-21 0 -49 9q-56 18 -113 28q-6 1 -21 1q-44 0 -90 -27q-131 -77 -152 -271q-4 -37 -4 -72q0 -133 62 -222q70 -102 198 -102z" />
    <glyph glyph-name="P" unicode="P" horiz-adv-x="1186" 
d="M484 388q-25 -273 -42 -333q-23 -81 -76 -81q-72 0 -108 197q-69 380 -69 775q-189 96 -189 293q0 151 48 151q6 0 16 -4l147 -61q51 93 134 93q6 0 17 -2t17 -2q106 -22 139 -140q195 -31 304 -77q148 -62 232 -181q87 -122 87 -279q0 -213 -149 -353
q-115 -108 -278 -108q-171 0 -230 112zM519 850q0 -105 -30 -398q23 22 42 22q10 0 19 -8q22 -20 61 -20q117 0 132 117q2 16 2 22v17q0 170 -226 248z" />
    <glyph glyph-name="Q" unicode="Q" horiz-adv-x="1263" 
d="M935 102q-152 -128 -333 -128q-284 0 -415 222q-120 204 -120 486q0 248 152 486q142 222 401 222q90 0 159 -36q86 -45 86 -125q0 -104 -63 -104q-16 0 -36 7q-102 35 -156 35q-121 0 -194 -118q-63 -101 -63 -230q0 -144 57 -236q68 -111 203 -111q203 0 230 181
q11 74 11 149q0 95 -21 175q-10 38 -10 68q0 80 73 91q13 2 23 2q85 0 147 -116q91 -170 91 -361q0 -37 -5 -87q-24 -240 -168 -423q23 3 44 3q90 0 188 -55q121 -68 121 -194q0 -74 -54.5 -127t-129.5 -53q-130 0 -179 137q-40 112 -40 208q0 22 1 32z" />
    <glyph glyph-name="R" unicode="R" horiz-adv-x="1236" 
d="M777 552q75 -31 144 -132q98 -143 118 -163q14 -14 104 -61q63 -33 63 -79q0 -75 -98 -114q-73 -29 -164 -29q-147 0 -197 71q-38 54 -84 150l-74 158q-34 54 -68 107q-46 78 -58 120l-43 -435q0 -27 -20 -114q-13 -57 -69 -57q-75 0 -87 142l-15 180q-5 36 -15 135
q-4 60 -16 227l-27 363q-99 42 -142 139q-20 45 -20 96q0 53 23 105q19 43 46 43q11 0 28 -10q47 -28 93 -45q57 69 127 69q85 0 145 -85q77 11 172 11q87 0 171 -10q176 -21 259 -198q49 -105 49 -198q0 -92 -49 -172q-97 -157 -296 -214zM495 990l-26 -359q16 49 62 62
l98 28q70 20 95 42q36 31 36 95q0 91 -94 118q-48 14 -171 14z" />
    <glyph glyph-name="S" unicode="S" horiz-adv-x="976" 
d="M105 289q81 0 148 -34q24 -12 49 -12q49 0 97.5 44.5t48.5 92.5q0 7 -2 18q-18 97 -149 211l-85 74q-109 95 -137 224q-8 37 -8 85q0 201 179 325q105 73 252 73q119 0 218 -50q123 -62 123 -168q0 -65 -34 -75q-14 -4 -37 -4q-21 0 -44 5l-95 21q-18 4 -31 4
q-29 0 -48 -16q-29 -24 -29 -51q0 -18 13 -39q28 -45 65 -78q179 -160 230 -222q115 -142 115 -287q0 -138 -89 -250q-81 -102 -216 -160q-114 -49 -270 -49q-137 0 -251 81q-56 40 -87 136q-7 22 -7 40q0 61 81 61z" />
    <glyph glyph-name="T" unicode="T" horiz-adv-x="1059" 
d="M544 909q171 -26 164 -237q-1 -19 -5 -80q-3 -46 -3 -71q0 -66 -8 -114q-20 -122 -30 -170q-19 -93 -46 -167q-35 -96 -89 -96q-79 0 -132 314q-25 151 -31 237l-10 154q-10 155 120 220q-65 0 -125 -2l-90 -3q-103 -3 -188 89q-94 102 -94 264q0 68 42 111q28 29 80 29
q24 0 52 -6q124 -27 246 -27q91 0 248 25q38 6 81 6q132 0 221 -75q115 -97 115 -291q0 -139 -92 -139q-27 0 -57 11q-103 37 -213 37q-79 0 -156 -19z" />
    <glyph glyph-name="U" unicode="U" horiz-adv-x="1236" 
d="M623 -26q-175 0 -309 91q-138 93 -195 255q-53 151 -53 320q0 337 173 610q89 140 179 140q73 0 83 -58q3 -18 3 -36q0 -39 -15 -95q-36 -82 -90 -248q-16 -74 -16 -151q0 -79 17 -173q33 -183 225 -183t238 210q11 50 11 118q0 40 -3 68q-10 93 -34 168q-8 24 -38 84
q-60 119 -60 196q0 87 92 87q90 0 179 -135q169 -255 169 -541q0 -308 -121 -499q-145 -228 -435 -228z" />
    <glyph glyph-name="V" unicode="V" horiz-adv-x="1107" 
d="M899 373q-159 -399 -341 -399q-190 0 -349 351q-125 276 -176 591q-16 99 -16 175q0 79 16 154q31 145 182 145q104 0 151 -179l34 -129q68 -257 153 -436q45 -95 86 -95q77 0 138 333l48 261q22 118 39 157q39 88 119 88q102 0 114 -145q3 -37 3 -94q0 -62 -29 -185
l-31 -131q-63 -268 -141 -462z" />
    <glyph glyph-name="W" unicode="W" horiz-adv-x="1457" 
d="M724 361q-114 -387 -284 -387q-108 0 -195 161q-137 253 -184 626q-10 79 -10 170q0 96 14 182q27 167 141 244q47 32 99 32q58 0 88 -49q17 -29 27 -143l20 -236q27 -318 90 -318q31 0 52 77l47 171q69 250 156 250q69 0 95 -94l25 -91l43 -141q57 -186 98 -186
q42 0 58 82q18 93 18 187q0 123 -3 208l-5 142q-4 115 101 140q17 4 32 4q76 0 111 -94q51 -136 51 -310q0 -121 -25 -257q-46 -250 -116 -439q-118 -318 -266 -318q-153 0 -278 387z" />
    <glyph glyph-name="X" unicode="X" horiz-adv-x="1210" 
d="M892 753q15 -38 60 -174q3 -8 41 -119q57 -166 176 -240q82 -51 82 -97q0 -30 -33 -56q-85 -67 -199 -67q-390 0 -577 488q-49 -89 -66 -221q0 -63 -23 -184q-45 -110 -143 -110q-83 0 -133 84q-37 62 -37 143q0 302 299 586q-77 197 -174 294q-44 35 -84 67
q-59 48 -59 75q0 7 1 10q17 72 150 113q58 18 94 18q314 0 502 -350q37 51 59 159q25 119 42 151q36 67 121 67q75 0 115 -59q35 -51 35 -130q0 -228 -249 -448z" />
    <glyph glyph-name="Y" unicode="Y" horiz-adv-x="1050" 
d="M654 291q33 6 69 6q56 0 130 -17q113 -26 113 -146q0 -152 -269 -185q-49 -6 -110 -6q-54 0 -102 5q-105 11 -154 37q-81 43 -81 111q0 31 15 65q49 110 101 183q-343 392 -343 735q0 200 126 265q48 25 90 25q64 0 93 -71q3 -8 50 -133q7 -18 26 -70q4 -12 17 -45
l17 -41q66 -159 141 -196q8 -4 16 -4q50 0 100 202q25 103 41 147q73 205 172 205q68 0 104 -65q29 -53 29 -127q0 -197 -134 -462q-80 -157 -257 -418z" />
    <glyph glyph-name="Z" unicode="Z" horiz-adv-x="1032" 
d="M474 430l221 3q112 2 217 44q22 9 39 9q31 0 52 -27q33 -42 33 -94q0 -272 -277 -340q-115 -28 -249 -27l-240 2q-179 1 -215 106q-12 35 -12 77q0 78 45 167l378 747q-62 -21 -137 -21q-65 0 -131 13q-158 31 -158 184q0 86 42 103q23 9 55 9q27 0 58 -6q93 -18 198 -18
q95 0 200 13l121 15q8 1 21 1q54 0 92.5 -32t38.5 -85q0 -22 -5 -38q-25 -78 -47 -123z" />
    <glyph glyph-name="bracketleft" unicode="[" horiz-adv-x="787" 
d="M420 -260q45 52 181 52q133 0 133 -107q0 -49 -42 -78q-37 -26 -88 -26h-341q-158 0 -158 166v1725q0 167 158 167q37 0 112 4t112 4q163 0 210 -37q37 -29 37 -77q0 -105 -180 -105q-89 0 -134 51v-1739z" />
    <glyph glyph-name="backslash" unicode="\" horiz-adv-x="726" 
d="M476 -1l-488 1263q-20 52 -20 116v17q2 12 2 18q8 81 113 81q95 0 142 -120l502 -1291q16 -41 16 -84q0 -28 -8 -57q-20 -73 -113 -73q-96 0 -146 130z" />
    <glyph glyph-name="bracketright" unicode="]" horiz-adv-x="787" 
d="M367 1479q-46 -52 -181 -52q-133 0 -133 107q0 50 41 79q37 26 89 26h340q159 0 159 -167v-1725q0 -166 -159 -166q-8 0 -120 -6q-56 -3 -104 -3q-161 0 -209 37q-38 29 -38 77q0 105 180 105q88 0 135 -51v1739z" />
    <glyph glyph-name="asciicircum" unicode="^" horiz-adv-x="1024" 
d="M512 1175l-173 -356q-63 -129 -175 -129q-110 0 -110 65q0 23 14 52l203 416q38 78 50 96q38 57 82 57h218q50 0 78 -53l54 -102l201 -410q14 -29 14 -51q0 -64 -111 -64q-113 0 -176 130z" />
    <glyph glyph-name="underscore" unicode="_" horiz-adv-x="1024" 
d="M857 -328h-666q-191 0 -191 110q0 113 191 113h659q171 0 171 -111q0 -112 -164 -112z" />
    <glyph glyph-name="grave" unicode="`" horiz-adv-x="1024" 
d="M443 1377q63 0 111 -70q61 -89 61 -200q0 -33 -7 -62q-15 -62 -70 -62q-61 0 -120 69q-86 101 -86 208q0 29 7 53q19 64 104 64z" />
    <glyph glyph-name="a" unicode="a" horiz-adv-x="1000" 
d="M671 169q-127 -195 -290 -195q-147 0 -225 120q-87 134 -87 274q0 404 217 517q64 33 125 33q27 0 58 -7q92 -21 167 -89q51 96 133 96q164 0 164 -343q0 -118 -26 -266q-22 -127 -39 -184q-10 -33 -56 -117q-23 -42 -45 -42q-41 0 -96 203zM613 625q-69 75 -124 75
q-17 0 -34 -8q-65 -31 -89 -110q-12 -39 -12 -77q0 -39 14 -83q26 -81 117 -81q127 0 127 104v93q0 45 1 87z" />
    <glyph glyph-name="b" unicode="b" horiz-adv-x="1003" 
d="M317 195l-19 -128q-14 -93 -72 -93q-44 0 -63 56q-8 24 -17 94q-93 739 -93 978q0 288 177 288q94 0 132 -74q45 -88 45 -172v-49q0 6 1 -2v-23v-37q0 -46 -14 -172q-5 -45 -5 -68q83 125 223 125q170 0 258 -159q72 -130 72 -313q0 -179 -83 -314q-97 -158 -265 -158
q-174 0 -277 221zM351 468q42 -60 68 -81q40 -33 97 -33q164 0 164 211q0 69 -58 126q-32 31 -77 31q-21 0 -61.5 -13t-61.5 -13q-29 0 -36 40l-15 -130q-4 -38 -20 -138z" />
    <glyph glyph-name="c" unicode="c" horiz-adv-x="887" 
d="M562 853q52 67 111 67q7 -1 11 -1q99 -9 144 -113q13 -30 13 -65q0 -68 -49 -125q-51 -60 -118 -60q-47 0 -92 45q-58 59 -58 129q0 41 22 90q-79 -87 -142 -223q-21 -45 -21 -88q0 -82 80 -153q62 -55 132 -55q15 0 22 1q81 11 160 52q27 14 46 14q42 0 42 -72
q0 -140 -133 -235q-121 -87 -267 -87q-186 0 -297 117t-111 304q0 89 30 182q47 145 163 240q58 47 182 90q35 12 71 12h12q8 -2 12 -2q36 -5 36 -49q0 -10 -1 -15z" />
    <glyph glyph-name="d" unicode="d" horiz-adv-x="1003" 
d="M686 195q-102 -221 -275 -221q-166 0 -262 159q-82 135 -82 313q0 184 70 312q87 160 256 160q140 0 220 -125q0 19 -17 153q-7 55 -7 151v50q0 86 46 170q40 73 137 73q185 0 185 -288q0 -223 -96 -978q-19 -150 -82 -150q-60 0 -74 92zM651 468l-18 135l-16 133
q-6 -43 -38 -43q-12 0 -27 6q-53 22 -89 22q-135 0 -135 -184q0 -73 44 -126q46 -57 118 -57q87 0 161 114z" />
    <glyph glyph-name="e" unicode="e" horiz-adv-x="875" 
d="M451 -26q-190 0 -305 158q-93 127 -93 299q0 221 151 370q59 58 150.5 95.5t174.5 37.5q104 0 184 -61q87 -67 87 -168q0 -91 -55.5 -167.5t-142.5 -111.5q-37 -15 -69 -15q-43 0 -84 28q-28 19 -28 42q0 19 26 58q14 20 53 77q29 45 29 76q0 28 -21.5 55.5t-48.5 27.5
q-10 0 -22 -4q-38 -13 -61 -43q-62 -81 -62 -201t82 -188q62 -51 157 -51q77 0 162 48q55 31 83 31q30 0 30 -36q0 -6 -2 -18q-13 -93 -56 -161q-112 -178 -319 -178z" />
    <glyph glyph-name="f" unicode="f" horiz-adv-x="592" 
d="M281 1442q176 0 176 -262q0 -88 -52 -180q-46 -82 -122 -82q-74 0 -121 81q-54 93 -54 180q0 263 173 263zM192 892l129 -2q66 -1 123 8q31 5 58 5q89 0 89 -61q0 -9 -3 -23q-22 -103 -152 -127q-59 -11 -225 -11q-158 0 -158 108q0 105 139 103zM291 656q46 0 66 -57
l31 -88l65 -217q47 -157 62 -311q5 -52 5 -90q0 -103 -29 -190q-41 -122 -196 -122q-151 0 -194 118q-32 87 -32 272q0 102 56 309q37 136 100 318q28 58 66 58z" />
    <glyph glyph-name="g" unicode="g" horiz-adv-x="940" 
d="M746 707q75 -42 96 -128q12 -49 12 -94q0 -135 -79 -253q-52 -78 -128 -106q-51 -19 -133 -26q220 -62 220 -286v-16q-2 -12 -2 -18q-11 -112 -85.5 -182t-185.5 -70t-182.5 70t-81.5 182q0 256 214 320q-171 23 -264.5 127.5t-93.5 276.5q0 200 132 318q109 98 243 98
q22 0 54 -4q95 -12 175 -12q77 0 150 10q15 2 26 2q85 0 85 -86q0 -123 -172 -123zM705 709q-71 12 -163 36q-23 6 -43 6q-60 0 -105 -52.5t-45 -113.5q0 -23 9 -44q30 -70 92 -97q27 -12 56 -12q141 0 141 177q0 75 58 100zM480 0q-86 0 -86 -84q0 -86 85 -86q83 0 83 84
q0 86 -82 86z" />
    <glyph glyph-name="h" unicode="h" horiz-adv-x="1008" 
d="M324 451q57 132 97 207q143 270 285 270q82 0 155 -177q82 -198 82 -459q0 -331 -204 -331q-53 0 -74 36q-13 21 -22 85l-12 81q-13 85 -23 128q-41 168 -98 168q-51 0 -99 -93q-17 -32 -56 -137q-45 -121 -51 -133q-45 -96 -85 -96q-48 0 -58 67q-108 700 -108 1065
q0 258 188 258q178 0 178 -245q0 -118 -14 -198l-27 -154q-32 -184 -54 -342z" />
    <glyph glyph-name="i" unicode="i" horiz-adv-x="476" 
d="M241 1377q83 0 132 -58q47 -54 47 -139t-47 -139q-50 -58 -133 -58q-86 0 -137.5 54.5t-51.5 141.5q0 85 52.5 141.5t137.5 56.5zM249 918q104 0 136 -111q23 -80 23 -254q0 -107 -34 -277q-26 -131 -39 -180q-29 -112 -84 -119t-93 104q-18 52 -48 191q-36 166 -36 280
q0 157 21 230q39 136 154 136z" />
    <glyph glyph-name="j" unicode="j" horiz-adv-x="503" 
d="M253 1377q82 0 132 -59q48 -55 48 -138q0 -86 -48 -140q-50 -57 -134 -57q-85 0 -135.5 55t-50.5 141q0 84 52.5 141t135.5 57zM259 918q180 0 174 -334q-2 -25 -5 -97q1 -53 -5 -204q-18 -293 -79 -526q-36 -137 -93 -137q-51 0 -67 60l-25 93l-45 252q-38 213 -38 384
q0 233 27 353q35 156 156 156z" />
    <glyph glyph-name="k" unicode="k" horiz-adv-x="978" 
d="M601 554q118 -63 180 -211q65 -155 175 -225q51 -32 51 -58t-51 -46q-103 -40 -152 -40q-211 0 -311 229q-23 55 -84 196q-9 21 -50 101l-56 -412q-15 -114 -78 -114q-56 0 -69 81l-18 116q-2 12 -17 153q-4 39 -39 312q-29 227 -29 467q0 287 177 287q93 0 139 -78
q38 -63 38 -162q-36 -314 -36 -537q177 248 371 304q21 6 41 6q52 0 86.5 -36t34.5 -88q0 -101 -172 -157q-87 -28 -131 -88z" />
    <glyph glyph-name="l" unicode="l" horiz-adv-x="484" 
d="M237 1377q101 0 140 -83q44 -93 44 -194v-28q0 -111 -10 -194l-20 -166q-12 -133 -62 -510l-20 -132q-15 -96 -75 -96q-51 0 -70 73q-44 170 -79 535q-32 334 -32 547q0 248 184 248z" />
    <glyph glyph-name="m" unicode="m" horiz-adv-x="1389" 
d="M360 600q68 163 99 213q80 131 169 131q133 0 208 -326q44 140 81 205q69 121 162 121q90 0 154 -154q79 -190 79 -338q0 -235 -31 -337q-47 -154 -176 -154q-52 0 -73 46q-12 26 -21 92l-12 87q-19 141 -59 217q-21 41 -54 41q-13 0 -28 -6v-63q0 -133 -12 -235
q-21 -179 -191 -179q-82 0 -95 53q-16 66 -16 117q0 22 -5 60l-15 114q-19 141 -60 141q-45 0 -96 -154l-63 -191q-34 -102 -79 -102q-5 0 -13 2q-59 14 -80 120l-38 190q-32 160 -32 276q0 152 20 224q37 133 148 133q142 0 142 -128v-31q0 -122 -13 -185z" />
    <glyph glyph-name="n" unicode="n" horiz-adv-x="978" 
d="M361 583q193 345 319 345q29 0 58 -15q66 -34 117 -216q17 -61 37 -192q11 -72 11 -244q0 -106 -53 -210q-46 -90 -155 -90q-55 0 -75 43q-13 28 -26 118q-5 36 -19 128q-32 196 -91 196q-46 0 -87 -89q-42 -136 -94 -265q-37 -92 -89 -92q-81 0 -123 323q-9 68 -16 149
q-1 16 -4 90l-5 145q-8 237 161 237q145 0 145 -136q0 -154 -11 -225z" />
    <glyph glyph-name="o" unicode="o" horiz-adv-x="944" 
d="M798 126q-117 -152 -323 -152q-166 0 -279 103q-143 130 -143 359q0 217 116 354q81 96 218 131q47 12 93 12q72 0 140 -30q86 -38 86 -100q0 -10 -1 -15q-8 -41 -45 -41q-19 0 -47 11q-56 22 -106 22q-153 0 -153 -179q0 -78 46.5 -130t123.5 -52q78 0 125 49t46 127
l-1 93q-1 59 56 59q78 0 116 -133q26 -91 26 -200q0 -166 -94 -288z" />
    <glyph glyph-name="p" unicode="p" horiz-adv-x="1052" 
d="M398 757q100 174 256 174q168 0 264 -162q80 -135 80 -317q0 -187 -75 -318q-92 -160 -265 -160q-187 0 -270 172l-9 -107q-1 -20 -6 -77q0 -4 -16 -101q-39 -241 -116 -241q-74 0 -101 173l-39 252q-35 226 -35 378q0 207 15 293q35 202 155 202q124 0 162 -161z
M411 452l-17 -250q12 30 37 30q4 0 8 -1l72 -18q52 -13 84 -13q44 0 84 46q46 53 46 114q0 176 -172 176q-69 0 -142 -84z" />
    <glyph glyph-name="q" unicode="q" horiz-adv-x="1067" 
d="M668 757q40 161 160 161q170 0 168 -295q0 -33 -2.5 -103t-2.5 -106q0 -121 -23 -339q-48 -455 -145 -455q-75 0 -115 239q-7 37 -19 122q-1 16 -4 61l-8 104q-80 -172 -271 -172q-173 0 -266 160q-76 131 -76 318q0 182 81 318q96 161 266 161q157 0 257 -174zM654 452
q-73 84 -143 84q-154 0 -174 -155q-1 -8 -1 -21q0 -59 47 -114q40 -46 84 -46q38 0 84 12l73 19q30 8 48 -29z" />
    <glyph glyph-name="r" unicode="r" horiz-adv-x="764" 
d="M384 755q51 161 209 161q154 0 154 -194q0 -176 -150 -208q-19 -4 -41 -4q-117 0 -167 153l-7 -140q-1 -26 -5 -100q-2 -35 -22 -161q-45 -288 -132 -288q-83 0 -128 324q-19 133 -23 238l-6 143q-3 80 32 165q31 74 139 74q122 0 147 -163z" />
    <glyph glyph-name="s" unicode="s" horiz-adv-x="716" 
d="M120 184q61 0 117 19q32 11 32 42q0 26 -21 64l-108 152q-61 86 -61 172q0 114 83 189q74 68 192 88q41 7 74 7q59 0 115 -19q86 -29 86 -108q0 -59 -34 -59q-13 0 -27 6q-31 13 -50 13q-61 0 -61 -58q0 -37 52 -91q81 -84 107 -121q70 -99 70 -189q0 -21 -5 -45
q-49 -233 -317 -273q-33 -5 -59 -5q-92 0 -177 47q-52 29 -74 98q-5 16 -5 26q0 45 71 45z" />
    <glyph glyph-name="t" unicode="t" horiz-adv-x="697" 
d="M517 675l-11 -141q-1 -30 -9 -115q-5 -30 -20 -123q-51 -322 -137 -322q-83 0 -136 328q-22 138 -31 238l-12 137q-151 0 -151 113t137 113q0 129 21 241q24 128 179 128q148 0 172 -131q15 -82 15 -155q0 -43 -6 -84q180 0 180 -116q0 -68 -39 -89q-17 -9 -100 -19
q-25 -3 -52 -3z" />
    <glyph glyph-name="u" unicode="u" horiz-adv-x="955" 
d="M314 918q74 0 74 -98q0 -34 -7 -69q-3 -13 -31 -114q-22 -78 -22 -108q0 -69 37 -114q39 -48 107 -48q67 0 107 51q37 47 37 116q0 30 -17 92q-31 113 -31 189q0 28 5 53q10 50 68 50q79 0 153 -123q108 -180 108 -359q0 -136 -67 -260q-109 -202 -364 -202
q-316 0 -395 308q-18 70 -18 149q0 135 63 292q78 195 193 195z" />
    <glyph glyph-name="v" unicode="v" horiz-adv-x="863" 
d="M230 944q54 0 85 -52q11 -19 40 -100l27 -76l48 -117q17 -41 57 -107q28 -46 53 -46q58 0 92 189q18 99 25 157q16 131 84 131q14 0 28 -5q57 -20 57 -89q0 -184 -117 -498q-133 -357 -267 -357q-130 0 -267 303q-122 269 -122 421q0 91 42 162q50 84 135 84z" />
    <glyph glyph-name="w" unicode="w" horiz-adv-x="1248" 
d="M644 223q-95 -249 -205 -249q-138 0 -271 299q-115 259 -115 422q0 91 40 162q49 87 131 87q57 0 110 -111q9 -18 61 -163q34 -95 72 -160q21 -36 46 -36q18 0 43 22l-14 114q-3 24 -3 68v40q0 101 37 170q30 56 98 56q86 0 164 -238q41 -126 46 -137q41 -97 86 -97
q39 0 47 70l17 153q12 106 20 136q24 87 83 87q85 0 85 -120q0 -128 -37 -273q-142 -558 -308 -558q-65 0 -173 158q-37 55 -60 98z" />
    <glyph glyph-name="x" unicode="x" horiz-adv-x="982" 
d="M685 473q64 -136 82 -163q35 -54 126 -130q86 -72 86 -89q0 -26 -34 -52q-86 -65 -176 -65q-154 0 -248 99q-69 73 -133 241q-16 -35 -56 -157q-31 -97 -47 -125q-39 -71 -100 -71q-57 0 -90 47q-29 41 -29 101q0 192 228 407q-72 166 -179 252q-54 43 -54 77q0 25 29 43
q70 43 146 43q219 0 357 -272q37 56 59 105l49 112q30 68 103 68q40 0 70 -33q39 -44 39 -94q0 -64 -60 -143q-105 -138 -168 -201z" />
    <glyph glyph-name="y" unicode="y" horiz-adv-x="911" 
d="M276 168q-126 208 -173 374q-24 85 -24 208q0 68 54.5 133.5t121.5 65.5q33 0 58 -27q56 -62 94 -159l76 -196q37 -95 96 -95q50 0 72 94q2 10 18 135q13 103 27 143q30 86 96 86q71 0 71 -91v-23q0 -113 -12 -183q-19 -110 -50 -221l-38 -135q-18 -63 -92 -232
q-45 -102 -45 -165q0 -36 14 -59q64 -104 64 -156q0 -59 -126 -59q-162 0 -209 84q-23 41 -23 86q0 30 22.5 86.5t22.5 86.5q0 35 -19 64q-27 41 -96 155z" />
    <glyph glyph-name="z" unicode="z" horiz-adv-x="807" 
d="M395 340q100 0 139 6q46 2 135 38q22 9 41 9q30 0 48 -25q29 -41 29 -95q0 -138 -96 -209q-86 -64 -228 -64q-22 0 -65 -2t-65 -2h-20q-180 0 -241 62q-20 20 -20 55q0 57 79 187l250 411q-45 -13 -97 -13q-49 0 -99 11q-106 23 -106 145q0 81 61 76l114 -9q93 -7 167 -6
l169 3q91 2 91 -59q0 -7 -3 -21q-17 -76 -52 -132z" />
    <glyph glyph-name="braceleft" unicode="{" horiz-adv-x="1153" 
d="M439 608q206 0 270 -157q38 -93 38 -339q0 -157 18 -205q34 -92 162 -92q120 0 120 -75q0 -80 -132 -126q-98 -34 -198 -34q-118 0 -196 72q-81 75 -81 192q0 48 -1 84l-4 143q-1 63 -10 212q-9 96 -91 143l-43 18q-59 24 -110 46q-89 39 -89 120q0 63 60 101
q21 13 115 49q129 49 150 159q17 89 17 244q0 178 6 244q11 120 118 189q70 45 166 45h24q10 -2 15 -2q86 -8 170 -41q118 -46 118 -110q0 -11 -4 -21q-26 -63 -120 -63q-174 0 -174 -133q0 -40 -3 -120.5t-3 -120.5q0 -202 -53 -296q-71 -126 -255 -126z" />
    <glyph glyph-name="bar" unicode="|" horiz-adv-x="1024" 
d="M629 1199v-1350q0 -191 -122 -191q-126 0 -126 191v1343q0 171 124 171t124 -164z" />
    <glyph glyph-name="braceright" unicode="}" horiz-adv-x="1153" 
d="M714 608q-206 0 -270 158q-37 92 -37 340q0 156 -18 204q-35 94 -162 94q-121 0 -121 75q0 79 132 125q100 35 198 35q119 0 198.5 -73t79.5 -191q0 -29 2 -127l2 -98q4 -182 6 -197q16 -110 95 -160q45 -29 150 -64q93 -31 93 -119q0 -63 -60 -101q-23 -15 -116 -50
q-129 -49 -150 -160q-17 -90 -17 -239v-88q0 -89 -6 -161q-10 -120 -118 -188q-68 -43 -164 -43h-25q-11 2 -16 2q-87 8 -170 40q-117 45 -117 109q0 11 4 21q26 63 120 63q173 0 173 132q0 31 5 151q2 48 2 90q0 199 53 294q70 126 254 126z" />
    <glyph glyph-name="asciitilde" unicode="~" horiz-adv-x="1365" 
d="M324 1152l-139 92q67 146 110 194q74 83 198 83q67 0 191 -51t190 -51h29l17 4q65 15 117 104l143 -84q-62 -127 -122 -184q-83 -79 -200 -79q-69 0 -152 33q-35 15 -106 43q-64 25 -109 25q-30 0 -56 -8q-60 -18 -111 -121z" />
    <glyph glyph-name="c129" horiz-adv-x="1034" 
d="M440 96q-35 -122 -111 -122q-99 0 -122 218q-47 447 -47 749q-97 45 -135 175q-16 55 -16 103q0 67 31 119q23 39 52 39q9 -2 50 -14q24 -7 45 -12q56 108 136 108q14 0 29 -3q101 -21 150 -129h72q77 0 120 6q79 11 188 47q30 10 54 10q54 0 83 -49q43 -72 43 -152
q0 -198 -189 -263q-108 -37 -359 -37l-11 -227q57 99 130 99q6 1 13 1h10q67 0 118 -40t66 -105q3 -13 3 -26q0 -58 -60 -104q-56 -44 -115 -44q-21 0 -45 6q-88 22 -127 111q0 -269 -56 -464z" />
    <glyph glyph-name="c141" horiz-adv-x="1532" 
d="M1115 -9q-49 -17 -84 -17q-161 0 -261 122q-56 69 -141 267l-145 340q-54 -481 -93 -624q-21 -77 -82 -102q-15 -6 -25 -6q-42 0 -66 74q-30 93 -70 477q-43 414 -43 574q0 120 44 197q55 97 166 97q171 0 195 -240q4 -40 4 -98v-13q0 -38 -5 -88l-16 -161q47 63 131 186
q32 46 94 169q57 111 98 163q55 69 130 69q69 0 112 -44.5t43 -113.5q0 -144 -126 -275q-76 -79 -249 -191q81 -34 144 -118q41 -54 95 -162q60 -119 91 -165q58 -87 133 -127q26 -14 38 -27q91 0 194 -74q92 -66 92 -175q0 -75 -54 -127.5t-130 -52.5q-92 0 -151 91
q-46 70 -63 175z" />
    <glyph glyph-name="c292" 
 />
    <glyph glyph-name="c293" 
 />
    <glyph glyph-name="c294" 
 />
    <glyph glyph-name="c295" 
 />
    <glyph glyph-name="c296" 
 />
    <glyph glyph-name="c297" 
 />
    <glyph glyph-name="c298" 
 />
    <glyph glyph-name="c299" 
 />
    <glyph glyph-name="c300" 
 />
    <glyph glyph-name="c301" 
 />
    <glyph glyph-name="c302" 
 />
    <glyph glyph-name="c303" 
 />
    <glyph glyph-name="c157" horiz-adv-x="1113" 
d="M835 -23l-31 -3q-152 0 -234 101q-38 47 -122 238q-36 81 -89 187l-56 -412q-15 -114 -78 -114q-51 0 -66 78q-2 8 -21 119q-21 60 -51 200q-34 158 -34 272q0 287 177 287q120 0 144 -115q11 -52 11 -102q0 -56 -14 -100q177 248 371 304q21 6 41 6q52 0 86.5 -36
t34.5 -88q0 -101 -172 -157q-87 -28 -131 -88q106 -58 167 -186q73 -154 141 -215q60 0 119 -70q86 -102 86 -211q0 -23 -7 -49q-17 -62 -101 -62q-67 0 -117 77q-39 60 -54 139z" />
    <glyph glyph-name="c306" 
 />
    <glyph glyph-name="currency" unicode="&#xa4;" horiz-adv-x="1210" 
d="M862 746q-86 -106 -254 -106q-169 0 -253 114q12 -121 73 -196q69 -86 185 -86q112 0 182 82q67 79 67 192zM856 868q-2 26 -15 83q-12 54 -12 83q0 23 5 49q11 58 87 58q116 0 183 -203q50 -152 50 -300q0 -235 -115 -423q-147 -241 -431 -241q-175 0 -314 107
q-228 176 -228 559q0 334 174 551q92 115 259 180q67 26 128 26q93 0 176 -58q62 -43 62 -105q0 -19 -7 -42q-20 -64 -76 -64q-22 0 -49 9q-57 19 -113 28q-6 1 -21 1q-43 0 -90 -27q-127 -74 -153 -282q94 85 245 85q149 0 255 -74z" />
    <glyph glyph-name="brokenbar" unicode="&#xa6;" horiz-adv-x="1050" 
d="M827 160q0 -152 -198 -184q-43 -7 -83 -7q-38 0 -80 6q-153 22 -199 109q-5 10 -18 68q-10 46 -21 44q-20 -4 -32 -4q-53 0 -100 99q-39 83 -39 128q0 49 86 64q29 5 56 5q6 0 6 8t-6 23l-20 51q-77 198 -113 256q-40 66 -40 280q0 200 127 264q52 26 90 26q63 0 92 -72
q49 -123 76 -203q37 -110 99 -206q35 -54 77 -76q10 -4 16 -4q48 0 99 200q26 104 41 146q72 209 173 209q67 0 103 -66q30 -54 30 -127q0 -147 -95 -303q-80 -132 -135 -326l-11 -39q-3 -11 -3 -16q0 -7 6 -9q73 -8 98 -34q16 -17 51 -101q12 -29 12 -58q0 -83 -122 -83
q-23 0 -23 -68z" />
    <glyph glyph-name="section" unicode="&#xa7;" horiz-adv-x="1153" 
d="M319 820q-99 91 -99 217q0 115 91 213q82 88 200 126q52 17 104 17q71 0 140 -32q84 -39 84 -93q0 -42 -48 -57q-17 -5 -84 -12q-130 -13 -130 -76q0 -33 41 -60q47 -31 212 -108q133 -62 189 -119q82 -83 82 -213q0 -118 -79 -213q-86 -104 -199 -104q75 -89 75 -183
q0 -34 -8 -64q-36 -134 -147 -229q-104 -89 -246 -122q-43 -10 -87 -10q-96 0 -182 53q-57 35 -57 81q0 64 95 64q232 0 232 130q0 86 -93 125l-154 65q-196 83 -196 298q0 23 1 33q11 110 82.5 183.5t180.5 89.5zM430 760q2 -10 2 -16q0 -40 -48 -74q-26 -19 -26 -40
q0 -71 205 -151q110 -43 167 -98q21 65 63 118q11 14 11 29q0 40 -76 77q-21 10 -154 70q-92 41 -144 85z" />
    <glyph glyph-name="copyright" unicode="&#xa9;" horiz-adv-x="1548" 
d="M782 1390q251 0 435 -149.5t241 -395.5q19 -82 19 -167q0 -135 -53 -277q-84 -224 -329 -350q-148 -76 -358 -76q-171 0 -336 105q-158 101 -245 256q-90 159 -90 344q0 304 205.5 507t510.5 203zM780 1232q-173 0 -306 -89.5t-197 -249.5q-40 -100 -40 -215q0 -51 6 -93
q23 -163 150 -293q158 -162 380 -162t379.5 161.5t157.5 387.5q0 109 -40 210q-62 157 -191 249q-132 94 -299 94zM561 865q39 0 40 -29l2 -55q7 -181 116 -223q44 -17 96 -17q77 0 167 42q21 10 38 10q42 0 42 -71q0 -201 -218 -250q-31 -7 -71 -7q-52 0 -112 17
q-99 28 -158 112q-58 81 -58 186q0 82 23 166q33 119 93 119zM728 905q-31 0 -98 -23q-17 -6 -29 -6q-37 0 -37 52q0 78 89 128q75 43 159 43h15q66 0 124 -27q72 -33 72 -121q0 -50 -34 -87.5t-83 -37.5q-34 0 -89 39.5t-89 39.5z" />
    <glyph glyph-name="ordfeminine" unicode="&#xaa;" horiz-adv-x="1210" 
d="M422 560q30 -88 184 -88q116 0 185 86q61 75 74 196q-112 -112 -206 -130q-52 -10 -103 -10q-29 0 -50 3l-85 12q-12 2 -12 -16q0 -15 13 -53zM460 912q42 -5 152 -37q75 -22 162 -22h35q25 3 37 4q-50 96 -171 131q-43 10 -153 38q-97 25 -124 75q-75 138 -75 220
q0 23 7 43q20 57 75 57q15 0 55 -11q78 -21 279 -76q161 -45 241 -143q174 -214 174 -551q0 -383 -229 -559q-139 -107 -313 -107q-286 0 -432 241q-114 188 -114 423q0 237 133 262q85 16 175 16q51 0 86 -4z" />
    <glyph glyph-name="guillemotleft" unicode="&#xab;" horiz-adv-x="879" 
d="M351 826q82 0 82 -75q0 -67 -96 -141q-64 -50 -64 -96q0 -32 62 -105q19 -21 66 -75q40 -47 40 -85q0 -43 -40.5 -80.5t-83.5 -37.5q-19 0 -38 8q-118 49 -194 219q-32 72 -32 112q0 84 106 217q110 139 192 139zM734 826q47 0 69 -43q10 -19 10 -39q0 -21 -14 -43
q-83 -132 -121 -162q-9 -7 -9 -20q0 -44 99 -157q38 -43 54 -96q4 -13 4 -25q0 -41 -37.5 -75.5t-78.5 -34.5q-19 0 -38 8q-118 49 -194 220q-32 72 -32 111q0 80 104 215q108 141 184 141z" />
    <glyph glyph-name="registered" unicode="&#xae;" horiz-adv-x="1548" 
d="M782 1390q251 0 435 -149.5t241 -395.5q19 -82 19 -167q0 -135 -53 -277q-84 -224 -329 -350q-148 -76 -358 -76q-171 0 -336 105q-158 101 -245 256q-90 159 -90 344q0 304 205.5 507t510.5 203zM780 1232q-173 0 -306 -89.5t-197 -249.5q-40 -100 -40 -215q0 -51 6 -93
q23 -163 150 -293q158 -162 380 -162t379.5 161.5t157.5 387.5q0 109 -40 210q-62 157 -191 249q-132 94 -299 94zM872 616q49 -24 105.5 -102.5t115.5 -102.5q37 -15 37 -36q-6 -45 -75 -71q-47 -18 -93 -18q-61 0 -103 36q-4 3 -65 112q-38 65 -111 197l-16 -190
q-4 -48 -17 -112q-18 -40 -45 -40q-50 0 -66 162l-8 79q-2 21 -3 52l-2 69l-18 232q-63 36 -63 118q0 53 31 93q5 7 9 7q3 -1 4 -2l36 -29q33 44 83 44q46 0 80 -53q190 0 261 -26q126 -46 126 -201q0 -166 -203 -218zM699 874l-14 -207q16 36 104 45q76 7 76 78
q0 67 -65 67q-9 -1 -25 -1q-46 0 -76 18z" />
    <glyph glyph-name="plusminus" unicode="&#xb1;" horiz-adv-x="911" 
d="M578 -394q-162 0 -209 83q-22 39 -22 86q0 44 23 93q13 28 19 61q-87 -39 -137 -39q-111 0 -111 90q0 33 20 75q48 101 115 113q-123 198 -173 374q-24 84 -24 208q0 68 54.5 133.5t121.5 65.5q33 0 58 -27q56 -61 94 -159l76 -196q37 -95 96 -95q50 0 72 94q2 10 18 135
q13 103 27 143q30 86 96 86q71 0 71 -91v-23q0 -113 -12 -183q-19 -110 -50 -221l-38 -135q60 18 92 18q41 0 41 -29q0 -46 -55 -163q-27 -58 -80 -73l-107 -31q-18 -56 -24 -104q-2 -16 -2 -26q0 -29 12 -48q39 -62 61 -138q3 -10 3 -18q0 -59 -126 -59z" />
    <glyph glyph-name="mu1" unicode="&#xb5;" horiz-adv-x="944" 
d="M693 651q0 96 57 96q78 0 116 -133q26 -91 26 -200q0 -165 -94 -288q-116 -152 -323 -152q-166 0 -279 103q-143 131 -143 359q0 216 116 354q81 96 218 131q47 12 93 12q70 0 140 -31q86 -38 86 -100q0 -8 -1 -13q-8 -42 -45 -42q-19 0 -47 11q-57 22 -109 22
q-28 0 -55 -8q-71 -21 -89 -113q55 48 167 48q91 0 166 -56zM354 601q0 -78 46.5 -130t123.5 -52q78 0 124.5 49t46.5 127q-95 -69 -176 -69q-94 0 -165 75z" />
    <glyph glyph-name="mu1" unicode="&#x3bc;" horiz-adv-x="944" 
d="M693 651q0 96 57 96q78 0 116 -133q26 -91 26 -200q0 -165 -94 -288q-116 -152 -323 -152q-166 0 -279 103q-143 131 -143 359q0 216 116 354q81 96 218 131q47 12 93 12q70 0 140 -31q86 -38 86 -100q0 -8 -1 -13q-8 -42 -45 -42q-19 0 -47 11q-57 22 -109 22
q-28 0 -55 -8q-71 -21 -89 -113q55 48 167 48q91 0 166 -56zM354 601q0 -78 46.5 -130t123.5 -52q78 0 124.5 49t46.5 127q-95 -69 -176 -69q-94 0 -165 75z" />
    <glyph glyph-name="periodcentered" unicode="&#xb7;" 
 />
    <glyph glyph-name="periodcentered" unicode="&#x2219;" 
 />
    <glyph glyph-name="ordmasculine" unicode="&#xba;" horiz-adv-x="944" 
d="M181 94q-102 92 -122 221q-3 19 -3 41q0 104 88 191q39 39 106 39q39 0 86 -13q64 -18 116 -18q138 0 138 86q0 26 -14 58l-58 133q2 -9 2 -17v-16q0 -108 -115 -144q-42 -13 -78 -13q-69 0 -98 56q-24 46 -24 82q0 25 12 48q52 98 171 98q89 0 123 -58q9 56 51 51
q76 -9 184 -114q44 -43 55 -59q92 -137 92 -306q0 -37 -6 -85q-28 -222 -218 -326q-91 -50 -191 -50q-57 0 -120 18q-102 29 -177 97zM261 434q27 -123 106 -123q29 0 63 16q131 61 151 177q-95 -88 -179 -95q-12 -1 -18 -1h-15q-65 0 -108 26z" />
    <glyph glyph-name="guillemotright" unicode="&#xbb;" horiz-adv-x="881" 
d="M568 826q79 0 171 -132q87 -124 87 -207q0 -85 -131 -241q-55 -65 -117 -101q-26 -15 -52 -15q-29 0 -56 22t-27 50q0 31 73 118l70 84q17 22 17 45q0 19 -11 35q-40 59 -117 144q-37 41 -37 80q0 42 44 84q35 34 86 34zM176 826q76 0 169 -134q88 -126 88 -206
q0 -91 -128 -242q-54 -63 -114 -97q-27 -15 -50 -15q-29 0 -51 22q-31 30 -31 61q0 41 55 86q96 78 96 144q0 34 -44 86q-19 22 -67 79q-33 40 -47 88q-2 7 -2 18q0 43 41.5 76.5t84.5 33.5z" />
    <glyph glyph-name="threequarters" unicode="&#xbe;" horiz-adv-x="2253" 
d="M1956 154q91 0 194 -74q92 -66 92 -175q0 -75 -54 -127.5t-130 -52.5q-166 0 -213 269q-54 -20 -89 -20q-181 0 -262 123q-92 140 -155 296l-50 124q-18 45 -81 187l-14 -96l-10 -86q-48 -411 -70 -477q-25 -74 -67 -74q-13 0 -26 6q-99 46 -142 436l-30 290l-66 -153
q-28 -65 -65 -157q-61 -152 -155 -296q-80 -123 -262 -123q-94 0 -181 69q-41 32 -41 67q0 37 64 71q75 40 134 127q33 49 91 165q114 227 238 280q-176 113 -250 190q-125 129 -125 276q0 116 111 151q32 10 56 10q77 0 118 -73q95 -169 191 -331q29 -49 133 -186l-17 163
q-5 48 -5 100q0 50 5 98q25 239 194 239q213 0 213 -334q0 -153 -12 -267q47 63 131 187q68 100 115 197q26 53 77 134q46 73 119 73q23 0 55 -10q111 -35 111 -151q0 -146 -125 -275q-76 -79 -250 -191q92 -40 143 -116q36 -54 78 -134l72 -137q8 -13 37 -61
q49 -81 134 -124q31 -16 41 -27z" />
    <glyph glyph-name="questiondown" unicode="&#xbf;" horiz-adv-x="1788" 
d="M1124 313q-36 81 -89 186l-33 -196l-26 -136l-27 -116q-18 -77 -74 -77q-60 0 -77 113l-10 66l-12 91l-35 256q-43 -83 -89 -187q-86 -195 -121 -238q-81 -101 -235 -101q-51 0 -151 40q-52 21 -52 46q0 26 51 58q88 55 172 221q81 160 183 215q-43 60 -128 86
q-175 55 -175 159q0 53 34.5 88t87.5 35q23 0 40 -5q138 -41 279 -196q61 -67 92 -108q-12 38 -12 81q0 53 20 121q34 115 156 115q115 0 143 -111q11 -43 11 -207q93 129 224 228q74 56 147 77q21 6 41 6q52 0 86.5 -36t34.5 -88q0 -79 -97 -131q-34 -18 -75 -26
q-79 -15 -131 -88q142 -76 181 -214q33 -116 125 -187q60 0 119 -70q86 -102 86 -211q0 -23 -7 -49q-17 -62 -101 -62q-67 0 -117 77q-39 60 -54 139q-29 -3 -54 -3q-150 0 -209 99t-122 240z" />
    <glyph glyph-name="Agrave" unicode="&#xc0;" horiz-adv-x="1143" 
d="M312 289q-25 -164 -37 -198q-41 -117 -134 -117q-115 0 -115 148q0 157 66 430q140 578 357 785q60 57 127 57q85 0 180 -90q66 -62 140 -216q133 -276 197 -626q17 -93 17 -191q0 -83 -13 -148q-30 -149 -186 -149q-102 0 -137 128l-54 198q-13 -63 -76 -100
q-55 -33 -124 -33q-172 0 -208 122zM325 349q64 85 184 85q124 0 192 -68l-27 90q-57 191 -116 293q-37 64 -70 64q-60 0 -115 -218q-18 -72 -33 -158z" />
    <glyph glyph-name="Aacute" unicode="&#xc1;" horiz-adv-x="1296" 
d="M981 762q155 -60 210 -168q39 -77 39 -156q0 -149 -115 -280q-169 -192 -496 -192q-45 0 -101 5q-334 30 -448 196q-26 38 -26 74q0 35 23.5 62.5t57.5 27.5t75 -26q80 -50 134 -78q-30 53 -45 154l-23 157q-18 124 -23 206l-10 169q-123 17 -184 139q-42 84 -42 160
q0 31 3 46q1 5 7 27q27 98 67 89t105 -18q44 59 127 101q16 8 32 8q68 0 154 -139q188 0 248 16q12 3 104 30q72 21 103 21q7 0 16 -2q26 -6 52 -71q36 -89 36 -161q0 -276 -538 -276l-23 -340q-1 -25 -7 -96q-3 -34 -20 -104q-18 -76 -25 -90q-22 -45 -72 -45
q38 -13 80 -13q79 0 168 51q145 83 145 229q-23 -19 -121 -28q-100 0 -141 99q-11 27 -11 56q0 23 6 50q30 137 225 159q9 1 16 1h13q95 0 225 -50z" />
    <glyph glyph-name="Acircumflex" unicode="&#xc2;" horiz-adv-x="1296" 
d="M986 760q152 -51 208 -158q38 -73 38 -155q0 -158 -120 -291q-166 -184 -451 -184q-270 0 -478 161q-49 38 -115 122q-35 45 -35 85q0 37 26.5 66.5t63.5 29.5q33 0 74 -26q80 -50 132 -77q-36 50 -44 98l-19 107q-42 237 -42 597q-132 48 -132 172q0 97 41 97q6 0 17 -4
q56 -20 123 -31q44 60 114 60t115 -59q58 0 172.5 -3.5t172.5 -3.5q179 0 276 -173q46 -82 46 -164q0 -43 -13 -86q-37 -123 -170 -180zM549 1109q0 -251 -45 -495q-3 -18 -36 -165l-8 -36q-22 -99 -89 -99q56 -19 122 -19q63 0 136 20q145 40 145 191q0 75 -51 112
q-38 19 -95 51q-51 29 -51 90q0 73 51 99q47 19 95 37q51 30 51 108q0 91 -81 102q-44 6 -94 6h-25q-17 -2 -25 -2z" />
    <glyph glyph-name="Atilde" unicode="&#xc3;" horiz-adv-x="1034" 
d="M440 96q-33 -122 -111 -122q-99 0 -122 218q-47 449 -47 749q-97 45 -135 175q-16 55 -16 103q0 67 31 119q23 39 52 39q9 -2 50 -14q24 -7 45 -12q56 108 136 108q14 0 29 -3q101 -21 150 -129h72q157 0 308 53q29 10 54 10q54 0 83 -49q43 -72 43 -152
q0 -198 -189 -263q-108 -37 -359 -37q0 -71 -11 -211.5t-11 -211.5q0 -115 -17 -218q-10 -59 -35 -152z" />
    <glyph glyph-name="Adieresis" unicode="&#xc4;" horiz-adv-x="1444" 
d="M89 -25q-68 0 -68 83q0 59 76 144l34 38q17 23 60 49q81 488 238 813q90 186 211 265q43 28 90 28q99 0 199 -110q74 -82 131 -213q20 -46 89 -236q119 -328 119 -569q30 12 52 12q62 0 62 -90v-18q-1 -5 -4 -21q-11 -62 -50 -114q-46 -61 -103 -61h-1136zM467 287
q45 14 93 14q25 0 60 -5q131 -19 267 -19l-37 118q-55 174 -96 267q-11 24 -39 78q-38 73 -72 73q-63 0 -118 -231q-19 -80 -37 -179z" />
    <glyph glyph-name="Aring" unicode="&#xc5;" horiz-adv-x="1048" 
d="M208 878q71 0 71 -116q0 -213 195 -304q81 -38 158 -38q106 0 206 71q67 47 109 47q70 0 70 -148q0 -61 -21 -119q-50 -140 -165.5 -218t-265.5 -78q-146 0 -268.5 78.5t-184.5 210.5q-60 128 -60 258q0 116 27 212q40 144 129 144zM636 1075q-85 0 -85 -80q0 -39 27 -72
q38 -46 89 -46q18 0 52 8.5t52 8.5q31 0 57 -12q50 -23 50 -108q0 -78 -68 -121q-58 -37 -140 -37q-173 0 -281.5 107t-108.5 280q0 174 109 280.5t283 106.5q112 0 195 -43q103 -53 103 -155q0 -61 -39 -107q-41 -49 -101 -49q-33 0 -97 19.5t-97 19.5z" />
    <glyph glyph-name="AE" unicode="&#xc6;" horiz-adv-x="1935" 
d="M1208 704l-14 -96l-10 -86q-48 -411 -70 -477q-25 -74 -67 -74q-13 0 -26 6q-99 46 -142 436l-30 290l-66 -153q-28 -65 -65 -157q-61 -152 -155 -296q-80 -123 -262 -123q-94 0 -181 69q-41 32 -41 67q0 37 64 71q75 40 134 127q33 49 91 165q114 227 238 280
q-176 113 -250 190q-125 129 -125 276q0 116 111 151q32 10 56 10q77 0 118 -73q95 -169 191 -331q29 -49 133 -186l-17 163q-5 48 -5 100q0 50 5 98q25 239 194 239q213 0 213 -334q0 -153 -12 -267q47 63 131 187q68 100 115 197q26 53 77 134q46 73 119 73q23 0 55 -10
q111 -35 111 -151q0 -146 -125 -275q-76 -79 -250 -191q92 -40 143 -116q36 -54 78 -134l72 -137q3 -5 37 -61q48 -78 134 -124q62 -33 62 -71q0 -69 -130 -116q-55 -20 -91 -20q-181 0 -262 123q-92 140 -155 296l-50 124q-18 45 -81 187z" />
    <glyph glyph-name="Ccedilla" unicode="&#xc7;" horiz-adv-x="1234" 
d="M846 1363q188 -12 278 -175q45 -82 45 -165q0 -43 -12 -83q-37 -124 -171 -180q154 -52 208 -158q38 -75 38 -158q0 -145 -115 -282q-161 -191 -461 -191q-103 0 -211 31q-232 67 -376 253q-35 45 -35 85q0 37 25 66.5t61 29.5t77 -26q109 -69 201 -101q43 -15 96 -15
q61 0 136 20q115 31 142 159q5 24 5 43q0 92 -102 129q-92 34 -100 122q0 89 100 109q89 17 99 118q1 10 1 13v7q0 67 -73 89q-16 5 -129 15q-78 7 -148 7q-160 0 -160 182q0 101 46 101q14 0 32 -9q62 -31 128 -31h19q15 4 73 5l61 1h43z" />
    <glyph glyph-name="Egrave" unicode="&#xc8;" horiz-adv-x="1292" 
d="M802 1q-81 -27 -179 -27q-175 0 -309 91q-138 92 -195 255q-53 150 -53 320q0 337 173 610q89 140 179 140q73 0 82 -58q3 -19 3 -39q0 -93 -66 -239q-31 -69 -38 -101q-15 -70 -15 -151t16 -173q32 -183 225 -183q196 0 226 173q13 75 13 153q0 84 -31 245
q-14 73 -28 139q-6 28 -6 50q0 76 59 123q77 61 166 61q155 0 186 -222q8 -57 8 -136v-46l-8 -145q-4 -73 -16 -225q-8 -101 -8 -141q0 -92 -29 -206q-5 -17 -60 -200q-26 -87 -128 -82l-86 4q-40 2 -81 10z" />
    <glyph glyph-name="Eacute" unicode="&#xc9;" horiz-adv-x="1292" 
d="M802 1q-81 -27 -179 -27q-175 0 -309 91q-138 92 -195 255q-53 150 -53 320q0 337 173 610q89 140 179 140q73 0 82 -58q3 -19 3 -39q0 -93 -66 -239q-31 -69 -38 -101q-15 -70 -15 -151t16 -173q32 -183 225 -183q196 0 226 173q13 75 13 153q0 84 -31 245
q-14 73 -28 139q-6 28 -6 50q0 76 59 123q77 61 166 61q155 0 186 -222q8 -57 8 -136v-46l-8 -145q-4 -73 -16 -225q-8 -101 -8 -141q0 -92 -29 -206q-5 -17 -60 -200q-26 -87 -128 -82l-86 4q-40 2 -81 10zM773 1875q82 0 100 -61q7 -24 7 -53q0 -106 -86 -210
q-58 -70 -120 -70q-55 0 -70 61q-7 28 -7 60q0 113 69 211q44 62 107 62z" />
    <glyph glyph-name="Ecircumflex" unicode="&#xca;" horiz-adv-x="1215" 
d="M484 703q-16 -156 -35 -315q-21 -179 -58 -311q-21 -74 -81 -100q-14 -6 -25 -6q-43 0 -67 74q-30 93 -70 477q-43 414 -43 574q0 120 44 197q55 97 166 97q171 0 195 -240q4 -40 4 -98v-13q0 -38 -5 -88l-16 -161q47 63 131 186q32 46 94 169q57 111 98 163
q55 69 130 69q69 0 112 -44.5t43 -113.5q0 -144 -126 -275q-76 -79 -249 -191q81 -34 144 -118q33 -44 95 -163q67 -129 91 -164q58 -87 133 -127q67 -36 67 -73q0 -30 -45 -62q-101 -72 -180 -72q-161 0 -261 122q-57 69 -141 267z" />
    <glyph glyph-name="Edieresis" unicode="&#xcb;" horiz-adv-x="1143" 
d="M488 813q-60 0 -115 -218q-18 -72 -33 -158l-15 -88q-11 -57 -42 -225q-26 -150 -142 -150q-115 0 -115 148q0 153 67 430q140 579 356 785q60 57 127 57q86 0 180 -90q67 -64 140 -216q133 -277 197 -626q17 -93 17 -191q0 -83 -13 -148q-30 -149 -186 -149
q-102 0 -137 128l-54 198l-37 126q-62 213 -123 323q-35 64 -72 64z" />
    <glyph glyph-name="Igrave" unicode="&#xcc;" horiz-adv-x="1502" 
d="M757 1004q40 136 98 234q88 149 185 149q39 0 82 -25q139 -81 246 -475q60 -221 60 -436q0 -247 -89 -379q-66 -98 -159 -98q-78 0 -105 72q-14 37 -20 139l-6 104q-1 23 -5 88q-9 104 -45 271q-16 73 -48 73q-33 0 -54 -78l-47 -171q-68 -249 -154 -249q-72 0 -97 94
l-30 113q-27 101 -47 156q-38 103 -77 138q-8 7 -15 7q-26 0 -46 -83q-30 -124 -30 -262v-265q0 -112 -98 -145q-21 -7 -43 -7q-65 0 -99 80q-57 135 -57 314q0 120 27 261q66 346 170 560q77 159 153 190q29 12 58 12q43 0 86 -30q126 -88 206 -352z" />
    <glyph glyph-name="Iacute" unicode="&#xcd;" horiz-adv-x="1234" 
d="M444 384l-12 -89q-5 -36 -23 -138q-38 -183 -111 -183q-60 0 -86 93q-17 61 -63 451q-44 373 -44 571q0 301 208 301q198 0 198 -303q0 -177 -52 -590q58 81 153 81q87 0 158 -79q-49 406 -49 602q0 289 208 289q198 0 198 -304q0 -208 -27 -440q-11 -114 -64 -433
l-29 -141q-20 -98 -88 -98q-84 0 -121 256q-6 41 -6 66l-8 91q-57 -114 -170 -114q-114 0 -170 111z" />
    <glyph glyph-name="Icircumflex" unicode="&#xce;" horiz-adv-x="1210" 
d="M613 472q115 0 185 88q66 81 66 199q0 111 -27 213q-8 30 -8 62q0 23 5 49q11 58 87 58q116 0 183 -203q50 -152 50 -300q0 -237 -115 -423q-149 -241 -431 -241q-176 0 -314 107q-228 177 -228 559q0 336 174 551q93 114 260 180q66 26 128 26q92 0 175 -58
q62 -43 62 -105q0 -19 -7 -42q-20 -64 -76 -64q-21 0 -49 9q-56 18 -113 28q-6 1 -21 1q-44 0 -90 -27q-131 -77 -152 -271q-4 -37 -4 -72q0 -133 62 -222q70 -102 198 -102z" />
    <glyph glyph-name="Idieresis" unicode="&#xcf;" horiz-adv-x="1234" 
d="M498 892q0 -98 -16 -220l-55 -419q0 -34 -20 -120q-37 -159 -115 -159q-71 0 -87 123l-76 602q-22 174 -22 276q-91 101 -91 215q0 76 8 113q16 74 75 74q7 -3 60 -17q8 -2 27 -7q71 108 147 108q18 0 36 -6q96 -33 135 -128q17 -3 41 -3q19 0 56 1t56 1q70 0 140 6
q43 59 120 59q81 0 131 -44q46 9 103 42q14 8 26 8q33 0 33 -71q0 -101 -82 -238q0 -576 -135 -1056q-17 -59 -57 -59q-15 0 -28 5q-63 24 -74 83q-74 394 -96 705q-6 86 -6 132q-57 -8 -122 -7z" />
    <glyph glyph-name="Eth" unicode="&#xd0;" horiz-adv-x="1186" 
d="M484 388q-25 -273 -42 -333q-23 -81 -76 -81q-72 0 -108 197q-69 380 -69 775q-189 96 -189 293q0 151 48 151q6 0 16 -4l147 -61q51 93 134 93q6 0 17 -2t17 -2q106 -22 139 -140q195 -31 304 -77q148 -62 232 -181q87 -122 87 -279q0 -213 -149 -353
q-115 -108 -278 -108q-171 0 -230 112zM519 850q0 -105 -30 -398q23 22 42 22q10 0 19 -8q22 -20 61 -20q117 0 132 117q2 16 2 22v17q0 170 -226 248z" />
    <glyph glyph-name="Ntilde" unicode="&#xd1;" horiz-adv-x="1073" 
d="M259 983q69 0 69 -60q0 -6 -2 -21q-11 -82 -11 -126q0 -181 144 -283q91 -64 194 -64q58 0 121 21q55 31 171 81q19 6 34 6q21 0 39 -12q31 -20 31 -105q0 -188 -141 -319q-138 -127 -328 -127q-166 0 -290 89t-184 245q-43 112 -43 305q0 144 97 298q45 72 99 72z
M520 1075q-61 0 -120 -57q-29 -28 -57 -28q-31 0 -58 31q-33 37 -33 78q0 58 63 119q90 87 159 123q85 44 193 44q70 0 144 -18q172 -42 172 -228q0 -79 -51 -141q-54 -67 -131 -67q-57 0 -140.5 72t-140.5 72z" />
    <glyph glyph-name="Ograve" unicode="&#xd2;" horiz-adv-x="1059" 
d="M544 909q171 -26 164 -237q-1 -19 -5 -80q-3 -46 -3 -71q0 -66 -8 -114q-20 -122 -30 -170q-19 -93 -46 -167q-35 -96 -89 -96q-79 0 -132 314q-25 151 -31 237l-10 154q-10 155 120 220q-65 0 -125 -2l-90 -3q-103 -3 -188 89q-94 102 -94 264q0 68 42 111q28 29 80 29
q24 0 52 -6q124 -27 246 -27q91 0 248 25q38 6 81 6q132 0 221 -75q115 -97 115 -291q0 -139 -92 -139q-27 0 -57 11q-103 37 -213 37q-79 0 -156 -19z" />
    <glyph glyph-name="Oacute" unicode="&#xd3;" horiz-adv-x="1153" 
d="M330 525q-159 185 -228 380q-39 110 -39 219t66 196q39 51 119 68q14 3 27 3q60 0 94 -56q24 -40 50 -127q17 -55 27.5 -88.5t30.5 -90.5q81 -229 156 -229q52 0 77 92q24 98 49 197q31 122 63 189q53 112 133 112q68 0 106 -71q31 -58 31 -132q0 -54 -16 -120
q-75 -307 -324 -692q-106 -164 -164 -243q-26 -36 -91 -115q-40 -49 -76 -49q-31 0 -51 28q-18 25 -18 57q0 50 35 132q71 165 84 202q-93 82 -141 138z" />
    <glyph glyph-name="Ocircumflex" unicode="&#xd4;" horiz-adv-x="1586" 
d="M841 55q-22 -81 -76 -81q-101 0 -146 470l-17 179q-2 22 -7 146l-7 177q-84 29 -143 29q-36 0 -60 -12q-70 -35 -70 -108v-12q0 -55 26 -107q34 -68 85 -93q143 -70 135 -120q-7 -48 -49 -43q-323 42 -410 274q-48 128 -48 251q0 351 269 351q209 0 287 -31q52 93 133 93
h21q6 -2 15 -4q105 -24 138 -140q408 -60 544 -270q76 -117 76 -236q0 -292 -194 -424q-100 -68 -230 -68q-173 0 -230 112q-24 -267 -42 -333zM918 850q0 -84 -9 -190q-2 -28 -21 -208q23 22 42 22q9 0 17 -8q20 -21 63 -21q134 0 134 141v18q0 92 -55 145q-68 65 -171 101
z" />
    <glyph glyph-name="Otilde" unicode="&#xd5;" horiz-adv-x="1210" 
d="M892 753q15 -38 60 -174q3 -8 41 -119q57 -166 176 -240q82 -51 82 -97q0 -30 -33 -56q-85 -67 -199 -67q-390 0 -577 488q-49 -89 -66 -221q0 -63 -23 -184q-45 -110 -143 -110q-83 0 -133 84q-37 62 -37 143q0 302 299 586q-77 197 -174 294q-44 35 -84 67
q-59 48 -59 75q0 7 1 10q17 72 150 113q58 18 94 18q314 0 502 -350q37 51 59 159q25 119 42 151q36 67 121 67q75 0 115 -59q35 -51 35 -130q0 -228 -249 -448z" />
    <glyph glyph-name="Odieresis" unicode="&#xd6;" horiz-adv-x="1494" 
d="M1021 -6q-32 -8 -115 -8q-77 0 -104 15q-81 -27 -179 -27q-174 0 -308 91q-137 92 -195 254q-54 151 -54 320q0 339 173 611q89 140 179 140q73 0 82 -58q3 -19 3 -39q0 -90 -65 -237q-32 -73 -39 -103q-15 -66 -15 -151q0 -81 16 -173q32 -183 225 -183q196 0 226 173
q13 75 13 153q0 84 -31 245q-14 73 -28 139q-6 28 -6 50q0 76 59 123q77 61 166 61q155 0 186 -222q8 -57 8 -136v-46l-8 -145q-4 -73 -16 -225q-8 -101 -8 -141q0 -84 -12 -155q-6 -36 -23 -88l-13 -40l-12 -40q109 0 198 -68q97 -73 97 -179q0 -74 -55 -127t-129 -53
q-96 0 -155 91q-47 71 -61 178z" />
    <glyph glyph-name="multiply" unicode="&#xd7;" horiz-adv-x="1292" 
d="M789 489q-87 -28 -185 -28h-37q-1 0 -39 4q-290 30 -394 363q-16 51 -16 106q0 142 109 316q85 136 253 136q129 0 129 -121q0 -36 -9 -64l-25 -78l-27 -69q-42 -107 -42 -184q0 -29 6 -57q21 -100 87 -119q55 -16 98 -16q87 0 88 74l8 404q2 105 59.5 169.5t159.5 64.5
q151 0 184 -217q13 -88 9 -181l-7 -151l-24 -366q-3 -53 -10 -111q-3 -23 -23 -95l-56 -197q-22 -76 -89 -78l-125 -3q-28 -1 -54 248l-18 171q0 76 -10 79z" />
    <glyph glyph-name="Oslash" unicode="&#xd8;" horiz-adv-x="1887" 
d="M923 59q-127 -94 -313 -94q-174 0 -309.5 92t-194.5 254q-52 143 -52 320q0 339 173 610q89 140 178 140q74 0 83 -58q3 -19 3 -36q0 -54 -34 -156q-16 -48 -32 -85q-32 -74 -38 -102q-16 -75 -16 -150q0 -76 17 -173q32 -184 225 -184q36 0 71 8q-19 92 -19 191
q0 116 27 239q49 222 146 375q89 140 178 140q74 0 83 -58q3 -19 3 -39q0 -42 -14 -93q-36 -83 -90 -247q-15 -70 -15 -150q0 -81 16 -173q32 -184 225 -184q198 0 226 173q13 80 13 153q0 78 -31 245q-12 65 -28 139q-6 28 -6 50q0 76 59 123q77 61 166 61q155 0 186 -223
q5 -35 6 -79q2 -82 1 -103l-7 -144q-2 -46 -8 -180q-1 -11 -17 -186q0 -127 -33 -240q-11 -42 -42 -152q-26 -89 -89 -120q-14 -7 -40 -7q-29 0 -73 11q-84 21 -106 34q-81 -27 -179 -27q-168 0 -299 85z" />
    <glyph glyph-name="Ugrave" unicode="&#xd9;" horiz-adv-x="2089" 
d="M923 59q-127 -94 -313 -94q-174 0 -309.5 92t-194.5 254q-52 143 -52 320q0 337 173 610q89 140 178 140q74 0 83 -58q3 -19 3 -36q0 -54 -34 -156q-16 -48 -32 -85q-32 -74 -38 -102q-16 -75 -16 -151q0 -75 17 -172q32 -184 225 -184q36 0 71 8q-19 92 -19 191
q0 220 88 445q37 94 85 169q90 140 178 140q74 0 83 -58q3 -19 3 -39q0 -42 -14 -93q-36 -83 -90 -247q-15 -70 -15 -150q0 -81 16 -173q32 -184 225 -184q196 0 226 173q13 75 13 153q0 76 -31 245q-13 71 -28 139q-6 27 -6 50q0 76 59 123q77 61 166 61q155 0 186 -223
q5 -35 6 -79q2 -82 1 -103l-7 -144q-1 -46 -8 -180q-5 -49 -17 -186q-2 -38 -10 -145q-10 -57 -24 -98l-13 -39l-12 -41q109 0 198 -68q97 -73 97 -179q0 -74 -55 -127t-130 -53q-178 0 -215 269q-32 -8 -115 -8q-77 0 -104 15q-81 -27 -179 -27q-168 0 -299 85z" />
    <glyph glyph-name="Uacute" unicode="&#xda;" horiz-adv-x="1516" 
d="M1193 762q155 -59 210 -168q39 -77 39 -158q0 -145 -116 -278q-167 -192 -496 -192q-49 0 -100 5q-204 20 -311 75q-86 44 -138 121q-26 38 -26 74q0 35 23.5 62.5t57.5 27.5t75 -26q87 -55 134 -78q-30 53 -45 154l-23 157q-18 124 -23 206l-10 169q-68 -12 -123 -12
q-151 0 -230 90q-75 85 -75 238q0 30 4 65q9 79 67 79q14 0 33 -5q87 -23 250 -61q43 59 142 125q27 18 54 18q71 0 147 -124q44 0 86 -57q14 -19 53 -95q59 -114 59 -179q0 -61 -101 -98q-38 -14 -76 -14l-22 -340q-1 -24 -7 -94q-11 -94 -46 -199q-14 -42 -72 -42
q38 -13 80 -13q80 0 169 51q144 83 144 229q-22 -19 -121 -28q-99 0 -141 99q-11 26 -11 58q0 23 5 48q28 139 224 160q9 1 15 1h13q95 0 229 -51z" />
    <glyph glyph-name="Ucircumflex" unicode="&#xdb;" horiz-adv-x="1752" 
d="M981 762q155 -59 210 -168q39 -77 39 -156q0 -149 -115 -280q-169 -192 -496 -192q-49 0 -100 5q-204 20 -311 75q-86 44 -138 121q-26 38 -26 74q0 35 23.5 62.5t57.5 27.5t75 -26q80 -50 134 -78q-75 90 -112 311q-4 29 -15 102l-4 26q-6 40 -9 82l-14 174l-14 219
q-3 53 5 123q10 84 31 116q24 36 101 73q21 10 43 10q79 0 156 -137q35 -63 35 -209q0 -80 -4 -125q-3 -28 -10 -109l-23 -340q-1 -25 -7 -96q-4 -42 -18 -96l-14 -54q-11 -31 -23 -62q-15 -27 -62 -27q38 -13 80 -13q79 0 168 51q145 83 145 229q-35 -27 -121 -27
q-101 0 -141 98q-11 27 -11 58q0 23 5 48q28 139 224 160q9 1 15 1h13q94 0 228 -51zM1481 1390q198 0 198 -320q0 -333 -88 -851q-3 -21 -13 -77l-15 -68q-22 -100 -91 -100q-78 0 -94 112l-23 159q-83 574 -83 848q0 297 209 297z" />
    <glyph glyph-name="Udieresis" unicode="&#xdc;" horiz-adv-x="1296" 
d="M981 762q155 -59 210 -168q39 -77 39 -156q0 -149 -115 -280q-169 -192 -496 -192q-49 0 -100 5q-204 20 -311 75q-86 44 -138 121q-26 38 -26 74q0 35 23.5 62.5t57.5 27.5t75 -26q80 -50 134 -78q-75 90 -112 311q-4 29 -15 102l-4 26q-6 40 -9 82l-14 174l-14 219
q-3 53 5 123q10 84 31 116q24 36 101 73q21 10 43 10q79 0 156 -137q35 -63 35 -209q0 -80 -4 -125q-3 -28 -10 -109l-23 -340q-1 -25 -7 -96q-4 -42 -18 -96l-14 -54q-11 -31 -23 -62q-15 -27 -62 -27q38 -13 80 -13q79 0 168 51q145 83 145 229q-35 -27 -121 -27
q-101 0 -141 98q-11 27 -11 58q0 23 5 48q28 139 224 160q9 1 15 1h13q94 0 228 -51z" />
    <glyph glyph-name="Yacute" unicode="&#xdd;" horiz-adv-x="1234" 
d="M773 572q-43 -99 -134 -122q-24 -6 -46 -6q-59 0 -114 43q-59 45 -59 103q0 14 3 27q32 143 208 143q72 0 130 -99q-14 52 -41 88q-62 82 -193 129l-154 55q-122 44 -175 77q-85 53 -128 139q-24 47 -24 93q0 56 35 114q29 48 62 48q5 0 73 -27q13 -5 50 -20
q85 -36 142 -48l143 -30q165 -35 274 -88q342 -167 342 -574q0 -328 -216 -505q-169 -138 -401 -138q-255 0 -408 114q-90 67 -90 134q0 15 6 33q15 45 61 45q33 0 126 -42q124 -56 133 -59q415 0 396 354z" />
    <glyph glyph-name="Thorn" unicode="&#xde;" horiz-adv-x="1895" 
d="M785 384q-57 -112 -171 -112t-170 112l-13 -99q-22 -169 -66 -258q-26 -53 -67 -53q-60 0 -86 93q-18 64 -63 451l-45 387q-7 60 -7 113q0 151 51 271q43 102 166 102q125 0 161 -103q41 -117 41 -264q0 -66 -8 -131l-49 -396q57 81 147 81q87 0 155 -70q-8 56 -8 136
q0 193 72 377q97 248 362 350q44 17 103 17q60 0 142 -19q122 -28 122 -122q0 -25 -9 -55q-20 -66 -71 -66q-15 0 -31 5q-74 23 -136 34q-6 1 -20 1q-46 0 -91 -27q-87 -52 -127 -163q-30 -84 -30 -173v-23q0 -8 2 -26q13 -121 74 -196q69 -86 185 -86q201 0 231 179
q13 78 13 155q0 87 -20 166q-9 36 -9 63q0 69 55 100q23 13 48 13q53 0 102 -68q78 -108 104 -255q15 -85 15 -171q0 -72 -8 -128q-49 -345 -269 -478q-130 -79 -264 -79q-104 0 -206 48q-234 110 -307 367z" />
    <glyph glyph-name="germandbls" unicode="&#xdf;" horiz-adv-x="1250" 
d="M429 552q-200 57 -297 214q-48 78 -48 171q0 91 49 199q80 177 259 198q85 10 174 10q79 0 169 -11q50 73 130 84q7 1 17 1q68 0 125 -69q45 14 92 45q15 10 28 10q33 0 54 -60q16 -46 16 -88q0 -103 -76 -179q-35 -35 -86 -56l-27 -363q-1 -44 -10 -172q-6 -49 -21 -190
l-16 -180q-13 -142 -86 -142q-72 0 -89 171l-43 435q-13 -49 -57 -114q-74 -109 -128 -237q-61 -145 -101 -187q-64 -68 -195 -68q-90 0 -164 29q-98 38 -98 114q0 45 65 80q92 49 103 60q25 25 118 161q69 101 143 134zM711 990q-125 0 -171 -13q-94 -27 -94 -119
q0 -63 35 -95q26 -24 96 -41q11 -3 97 -29q49 -15 63 -62z" />
    <glyph glyph-name="agrave" unicode="&#xe0;" horiz-adv-x="1000" 
d="M671 169q-127 -195 -290 -195q-147 0 -225 120q-87 134 -87 274q0 404 217 517q64 33 125 33q27 0 58 -7q92 -21 167 -89q51 96 133 96q164 0 164 -343q0 -118 -26 -266q-22 -127 -39 -184q-10 -33 -56 -117q-23 -42 -45 -42q-41 0 -96 203zM613 625q-69 75 -124 75
q-17 0 -34 -8q-65 -31 -89 -110q-12 -39 -12 -77q0 -39 14 -83q26 -81 117 -81q127 0 127 104v93q0 45 1 87z" />
    <glyph glyph-name="aacute" unicode="&#xe1;" horiz-adv-x="944" 
d="M726 112q-108 -138 -297 -138q-181 0 -280 120q-108 131 -108 269q0 395 307 470q45 11 87 11q73 0 132 -29q74 -36 74 -101q0 -40 -38 -40q-19 0 -47 11q-52 20 -98 20q-38 0 -70 -15q-70 -33 -70 -147q0 -71 43 -118t113 -47t114 45t43 115l-1 86q-1 52 52 52
q82 0 106 -125q20 -104 20 -227q0 -107 -82 -212zM459 1036q-77 0 -113 -37l-45 -71q-29 -36 -70 -36q-67 0 -67 80q0 160 139 289q115 106 241 106q32 0 62 -6q100 -20 152 -20q21 0 55 13.5t46 13.5q79 0 79 -84v-23q-2 -7 -4 -17q-28 -174 -184 -262q-34 -19 -72 -19
q-39 0 -90 26l-61 31q-31 16 -68 16z" />
    <glyph glyph-name="acircumflex" unicode="&#xe2;" horiz-adv-x="944" 
d="M466 1165q-109 -30 -152 -238q-20 -97 -20 -194q0 -98 24 -190q42 -161 128 -161q19 0 38 7q78 29 78 97q0 34 -16 73q-68 167 -124 167q-33 0 -33 29q0 81 85 81q45 0 115 -20q157 -45 220 -265q16 -56 16 -130q0 -189 -102 -313q-109 -134 -294 -134q-239 0 -318 175
q-64 142 -64 302q0 13 1.5 36t1.5 33q2 72 22 170q12 60 54 221q63 245 177 350q140 129 296 129q147 0 206 -86q50 -72 50 -152v-15q-1 -7 -1 -10q-10 -90 -82 -145q-35 -27 -176 -60q-51 -12 -89 -12q-23 0 -53 9q-38 12 -38 31q0 16 75 38q82 24 82 81q0 45 -19 83
q-10 20 -41 20q-21 0 -47 -7z" />
    <glyph glyph-name="atilde" unicode="&#xe3;" horiz-adv-x="716" 
d="M613 184q71 0 71 -45q0 -11 -5 -26q-23 -70 -74 -98q-86 -47 -178 -47q-25 0 -58 5q-266 40 -317 273q-5 23 -5 46q0 89 70 188q24 34 108 121q51 53 51 92q0 56 -62 56q-21 0 -49 -12q-14 -6 -26 -6q-35 0 -35 59q0 77 86 108q53 19 114 19q32 0 75 -7q117 -19 192 -88
q84 -76 84 -189q0 -83 -61 -171q-18 -25 -108 -153q-22 -39 -22 -64q0 -31 32 -42q54 -19 117 -19z" />
    <glyph glyph-name="adieresis" unicode="&#xe4;" horiz-adv-x="1067" 
d="M668 757q40 161 160 161q170 0 168 -295q0 -33 -2.5 -103t-2.5 -106q0 -121 -23 -339q-48 -455 -145 -455q-75 0 -115 239q-7 37 -19 122q-1 16 -4 61l-8 104q-80 -172 -271 -172q-173 0 -266 160q-76 131 -76 318q0 182 81 318q96 161 266 161q157 0 257 -174zM654 452
q-73 84 -143 84q-154 0 -174 -155q-1 -8 -1 -21q0 -59 47 -114q40 -46 84 -46q38 0 84 12l73 19q30 8 48 -29z" />
    <glyph glyph-name="aring" unicode="&#xe5;" horiz-adv-x="875" 
d="M451 -26q-190 0 -305 158q-93 127 -93 299q0 221 151 370q59 58 150.5 95.5t174.5 37.5q104 0 184 -61q87 -67 87 -168q0 -91 -55.5 -167.5t-142.5 -111.5q-37 -15 -69 -15q-43 0 -84 28q-28 19 -28 42q0 19 26 58q14 20 53 77q29 45 29 76q0 28 -21.5 55.5t-48.5 27.5
q-10 0 -22 -4q-38 -13 -61 -43q-62 -81 -62 -201t82 -188q62 -51 157 -51q77 0 162 48q55 31 83 31q30 0 30 -36q0 -6 -2 -18q-13 -93 -56 -161q-112 -178 -319 -178z" />
    <glyph glyph-name="ae" unicode="&#xe6;" horiz-adv-x="1645" 
d="M1035 499l-33 -196l-26 -136l-27 -116q-18 -77 -74 -77q-60 0 -77 113l-10 66l-12 91l-35 256q-43 -83 -89 -187q-86 -195 -121 -238q-81 -101 -235 -101q-51 0 -151 40q-52 21 -52 46q0 26 51 58q88 55 172 221q81 160 183 215q-43 60 -128 86q-175 55 -175 159
q0 53 34.5 88t87.5 35q23 0 40 -5q138 -41 279 -196q61 -67 92 -108q-12 38 -12 81q0 53 20 121q34 115 156 115q115 0 143 -111q11 -43 11 -207q93 129 224 228q74 56 147 77q21 6 41 6q52 0 86.5 -36t34.5 -88q0 -79 -97 -131q-34 -18 -75 -26q-79 -15 -131 -88
q102 -55 181 -215q83 -164 174 -221q50 -31 50 -58q0 -25 -51 -45q-104 -41 -151 -41q-155 0 -235 100q-33 41 -121 239q-36 82 -89 186z" />
    <glyph glyph-name="ccedilla" unicode="&#xe7;" horiz-adv-x="875" 
d="M450 332q-17 20 -17 35q0 35 102 35q33 0 54 -9q146 -62 146 -249v-30q0 -4 -4 -31q-30 -208 -184 -345q-92 -82 -269 -119q-38 -8 -77 -8q-118 0 -190 91q-46 58 -46 193q0 97 77 97q-15 0 84 -17q18 -3 34 -3q94 0 206 81q154 111 154 186q0 82 -45 84q-21 1 -25 9z
M287 643q-29 0 -36 53q-2 15 -2 25q0 84 73 139q93 70 223 70q117 0 186 -58q72 -62 72 -178q0 -102 -76 -169.5t-179 -67.5q-64 0 -127 54q-21 18 -21 33q0 32 87 32q57 0 57 61v7q0 31 -16 48q-38 39 -77 39q-45 0 -91 -44t-73 -44z" />
    <glyph glyph-name="egrave" unicode="&#xe8;" horiz-adv-x="978" 
d="M609 322q-80 -144 -141 -226q-90 -122 -174 -122q-113 0 -178 234q-50 180 -50 412q0 324 210 324q56 0 75 -43q13 -29 29 -159q35 -283 106 -283q49 0 96 89q8 15 8 39q0 27 -14 83t-14 85q0 44 15 98q9 33 63 57q45 20 86 20q148 0 171 -108q9 -42 9 -185
q0 -124 -18 -284q-42 -372 -145 -392q-5 -1 -12 -1q-67 0 -90 126q-17 92 -22 127q-10 65 -10 109z" />
    <glyph glyph-name="eacute" unicode="&#xe9;" horiz-adv-x="978" 
d="M564 1390q83 0 102 -61q8 -26 8 -55q0 -37 -15 -81q-24 -71 -71 -127q-58 -69 -121 -69q-77 0 -77 125q0 111 62 199q48 69 112 69zM609 322q-80 -144 -141 -226q-90 -122 -174 -122q-113 0 -178 234q-50 180 -50 412q0 324 210 324q56 0 75 -43q13 -29 29 -159
q35 -283 106 -283q49 0 96 89q8 15 8 39q0 27 -14 83t-14 85q0 44 15 98q9 33 63 57q45 20 86 20q148 0 171 -108q9 -42 9 -185q0 -124 -18 -284q-42 -372 -145 -392q-5 -1 -12 -1q-67 0 -90 126q-17 92 -22 127q-10 65 -10 109z" />
    <glyph glyph-name="ecircumflex" unicode="&#xea;" horiz-adv-x="978" 
d="M601 554q115 -62 181 -212q69 -157 174 -224q51 -33 51 -58q0 -26 -51 -46q-103 -40 -152 -40q-152 0 -234 101q-38 47 -122 238q-40 91 -89 187l-56 -412q-15 -114 -78 -114q-51 0 -66 78q-2 8 -21 119q-21 60 -51 200q-34 158 -34 272q0 287 177 287q120 0 144 -115
q11 -52 11 -102q0 -56 -14 -100q177 248 371 304q21 6 41 6q52 0 86.5 -36t34.5 -88q0 -101 -172 -157q-87 -28 -131 -88z" />
    <glyph glyph-name="edieresis" unicode="&#xeb;" horiz-adv-x="863" 
d="M649 -24q-56 0 -86 52q-3 4 -40 101l-28 74q-30 78 -47 117q-69 154 -109 154q-37 0 -59 -59q-26 -69 -35 -131l-22 -145q-11 -75 -24 -98q-24 -45 -62 -45q-13 0 -27 5q-57 20 -57 90q0 184 117 498q133 357 266 357q129 0 267 -302q123 -269 123 -422q0 -90 -43 -162
q-50 -84 -134 -84z" />
    <glyph glyph-name="igrave" unicode="&#xec;" horiz-adv-x="1248" 
d="M628 695q95 249 205 249q138 0 270 -300q116 -264 116 -421q0 -91 -40 -162q-49 -87 -131 -87q-57 0 -111 111q-13 27 -61 162q-33 93 -70 160q-20 36 -46 36q-20 0 -44 -21l14 -115q3 -25 3 -55q0 -278 -135 -278q-87 0 -164 237q-40 123 -46 137q-41 98 -86 98
q-40 0 -48 -70l-17 -153q-11 -102 -26 -153q-20 -70 -76 -70q-85 0 -85 120q0 210 117 525q64 173 114 234q59 72 114 72q46 0 90 -51q95 -112 143 -205z" />
    <glyph glyph-name="iacute" unicode="&#xed;" horiz-adv-x="978" 
d="M604 455q-38 -55 -117 -55q-88 0 -130 51q-11 -125 -50 -343q-20 -108 -93 -108q-55 0 -84 136q-64 301 -64 571q0 237 161 237q75 0 117 -62q36 -53 36 -132q0 -49 -19 -167q58 56 143 56q64 0 105 -56q-19 127 -19 167q0 78 37 132q42 62 116 62q162 0 162 -237
q0 -256 -65 -571q-28 -136 -84 -136q-57 0 -91 105q-16 48 -27 183q-10 124 -34 167z" />
    <glyph glyph-name="icircumflex" unicode="&#xee;" horiz-adv-x="944" 
d="M798 126q-116 -152 -323 -152q-198 0 -305 132q-118 146 -118 297q0 432 335 518q47 12 93 12q82 0 158 -40q67 -35 67 -104q0 -44 -39 -44q-18 0 -53 13q-56 21 -104 21q-43 0 -79 -17q-76 -36 -76 -161q0 -77 46 -128q48 -54 124 -54q78 0 125 49t46 127l-1 95
q-1 57 56 57q88 0 115 -137q22 -112 22 -251q0 -116 -89 -233z" />
    <glyph glyph-name="idieresis" unicode="&#xef;" horiz-adv-x="978" 
d="M361 583q193 345 319 345q29 0 58 -15q66 -34 117 -216q17 -61 37 -192q11 -72 11 -244q0 -106 -53 -210q-46 -90 -155 -90q-55 0 -75 43q-13 28 -26 118q-5 36 -19 128q-32 196 -91 196q-46 0 -87 -89q-42 -136 -94 -265q-37 -92 -89 -92q-81 0 -123 323q-9 68 -16 149
q-1 16 -4 90l-5 145q-8 237 161 237q145 0 145 -136q0 -154 -11 -225z" />
    <glyph glyph-name="eth" unicode="&#xf0;" horiz-adv-x="1052" 
d="M398 757q100 174 256 174q168 0 264 -162q80 -135 80 -317q0 -187 -75 -318q-92 -160 -265 -160q-187 0 -270 172l-9 -107q-1 -20 -6 -77q0 -4 -16 -101q-39 -241 -116 -241q-74 0 -101 173l-39 252q-35 226 -35 378q0 207 15 293q35 202 155 202q124 0 162 -161z
M411 452l-17 -250q12 30 37 30q4 0 8 -1l72 -18q52 -13 84 -13q44 0 84 46q46 53 46 114q0 176 -172 176q-69 0 -142 -84z" />
    <glyph glyph-name="ntilde" unicode="&#xf1;" horiz-adv-x="887" 
d="M562 853q52 67 111 67q7 -1 11 -1q99 -9 144 -113q13 -30 13 -65q0 -68 -49 -125q-51 -60 -118 -60q-47 0 -92 45q-58 59 -58 129q0 41 22 90q-79 -87 -142 -223q-21 -45 -21 -88q0 -82 80 -153q62 -55 132 -55q15 0 22 1q81 11 160 52q27 14 46 14q42 0 42 -72
q0 -140 -133 -235q-121 -87 -267 -87q-186 0 -297 117t-111 304q0 89 30 182q47 145 163 240q58 47 182 90q35 12 71 12h12q8 -2 12 -2q36 -5 36 -49q0 -10 -1 -15z" />
    <glyph glyph-name="ograve" unicode="&#xf2;" horiz-adv-x="1389" 
d="M360 600q68 163 99 213q80 131 169 131q133 0 208 -326q44 140 81 205q69 121 162 121q90 0 154 -154q79 -190 79 -338q0 -235 -31 -337q-47 -154 -176 -154q-52 0 -73 46q-12 26 -21 92l-12 87q-19 141 -59 217q-21 41 -54 41q-13 0 -28 -6v-63q0 -133 -12 -235
q-21 -179 -191 -179q-82 0 -95 53q-16 66 -16 117q0 22 -5 60l-15 114q-19 141 -60 141q-45 0 -96 -154l-63 -191q-34 -102 -79 -102q-5 0 -13 2q-59 14 -80 120l-38 190q-32 160 -32 276q0 152 20 224q37 133 148 133q142 0 142 -128v-31q0 -122 -13 -185z" />
    <glyph glyph-name="oacute" unicode="&#xf3;" horiz-adv-x="911" 
d="M234 -393q-133 0 -202 120q-37 65 -37 130q0 53 24 104q18 38 43 38q3 0 88 -36q90 -38 95 -40q9 -2 17 -2q41 0 88 44l20 23q6 7 11 16q1 2 4 7q-154 185 -252 444q-55 146 -55 261q0 129 86 194q50 38 90 38q33 0 59 -27q56 -58 96 -159l77 -195q38 -95 93 -95
q48 0 71 95q2 8 20 135q15 104 28 142q30 87 94 87q74 0 74 -116q0 -119 -30 -260q-53 -250 -130 -445q-198 -503 -472 -503z" />
    <glyph glyph-name="ocircumflex" unicode="&#xf4;" horiz-adv-x="1589" 
d="M992 452l-17 -250q12 30 37 30q4 0 8 -1l72 -18q52 -13 84 -13q44 0 84 46q46 53 46 114q0 12 -1 20q-20 156 -172 156q-69 0 -141 -84zM666 154q-95 -180 -255 -180q-166 0 -262 159q-82 135 -82 313q0 184 70 312q87 160 256 160q140 0 220 -125q0 19 -17 153
q-7 55 -7 151v50q0 86 46 170q40 73 137 73q107 0 170 -94q55 -81 55 -194q0 -21 -1 -48.5t-5 -100.5l-15 -205q98 183 258 183q168 0 264 -162q81 -136 81 -317q0 -189 -75 -319q-92 -159 -266 -159q-186 0 -269 172l-9 -107q-1 -20 -6 -77q-3 -19 -16 -101
q-39 -241 -116 -241q-52 0 -77 64q-10 25 -24 109l-24 142zM651 468l-18 135l-16 133q-6 -43 -38 -43q-12 0 -27 6q-53 22 -89 22q-135 0 -135 -184q0 -73 44 -126q46 -57 118 -57q87 0 161 114z" />
    <glyph glyph-name="otilde" unicode="&#xf5;" horiz-adv-x="982" 
d="M685 473q64 -136 82 -163q35 -54 126 -130q86 -72 86 -89q0 -26 -34 -52q-86 -65 -176 -65q-154 0 -248 99q-69 73 -133 241q-16 -35 -56 -157q-31 -97 -47 -125q-39 -71 -100 -71q-57 0 -90 47q-29 41 -29 101q0 192 228 407q-72 166 -179 252q-54 43 -54 77q0 25 29 43
q70 43 146 43q219 0 357 -272q37 56 59 105l49 112q30 68 103 68q40 0 70 -33q39 -44 39 -94q0 -64 -60 -143q-105 -138 -168 -201z" />
    <glyph glyph-name="odieresis" unicode="&#xf6;" horiz-adv-x="1056" 
d="M776 -22q-22 -18 -45 -18q-67 0 -90 126q-17 92 -22 127q-10 65 -10 109q-82 -145 -141 -226q-89 -122 -174 -122q-113 0 -178 234q-50 180 -50 412q0 324 210 324q65 0 90 -81q7 -22 21 -136q17 -134 38 -190q30 -78 61 -78q24 0 56 34q48 50 48 94q0 27 -14 83t-14 85
q0 44 15 98q9 33 63 57q45 20 86 20q148 0 171 -108q6 -28 6 -116l-1 -168q0 -188 -52 -386q61 0 119 -70q85 -103 85 -207q0 -27 -7 -52q-17 -62 -100 -62q-68 0 -118 78q-38 59 -53 139z" />
    <glyph glyph-name="divide" unicode="&#xf7;" horiz-adv-x="978" 
d="M579 588q-94 -164 -199 -257q-28 -25 -62 -25q-86 0 -202 177q-48 73 -48 191q0 108 49 183q56 87 159 87q57 0 75 -43q3 -8 10 -45l14 -79q15 -85 58 -85q15 0 34 10q76 39 106 151q21 76 162 76t162 -107q9 -46 9 -186q0 -124 -18 -285q-42 -377 -145 -390
q-79 -10 -125 259q-19 113 -27 212z" />
    <glyph glyph-name="oslash" unicode="&#xf8;" horiz-adv-x="1500" 
d="M610 322q-143 -250 -244 -320q-38 -26 -77 -26q-30 0 -58 15q-64 34 -115 217q-20 72 -38 191q-12 80 -12 214v30q0 107 53 211q46 90 157 90q56 0 75 -43q8 -17 21 -116q33 -247 98 -319q9 -10 21 -10q31 0 69 74q33 64 33 123q0 47 19 136q33 155 183 155q62 0 86 -71
q6 -16 22 -123q19 -125 31 -167q26 -90 65 -122q11 -7 18 -7q35 0 84 94q8 15 8 39q0 28 -13.5 82.5t-13.5 82.5q0 46 15 101q21 77 160 77q137 0 160 -108q8 -38 8 -185q0 -316 -69 -549q-34 -116 -93 -127q-5 -1 -13 -1q-67 0 -90 126q-31 169 -31 236q-99 -172 -129 -213
q-99 -135 -186 -135q-143 0 -204 348z" />
    <glyph glyph-name="ugrave" unicode="&#xf9;" horiz-adv-x="1577" 
d="M1297 -22q-27 -18 -47 -18q-67 0 -90 126q-31 169 -31 236q-99 -172 -129 -213q-99 -135 -186 -135q-143 0 -204 348q-143 -250 -244 -320q-38 -26 -77 -26q-30 0 -58 15q-64 34 -115 217q-20 72 -38 191q-12 80 -12 214v30q0 107 53 211q46 90 157 90q56 0 75 -43
q8 -17 21 -116q33 -247 98 -319q9 -10 21 -10q31 0 69 74q33 64 33 123q0 47 19 136q33 155 183 155q62 0 86 -71q6 -16 22 -123q19 -125 31 -167q26 -90 65 -122q11 -7 18 -7q35 0 84 94q8 15 8 39q0 28 -13.5 83t-13.5 83q0 45 15 100q21 76 160 76q137 0 160 -107
q6 -28 6 -115l-1 -168q0 -189 -51 -385q60 0 119 -71q86 -103 86 -211q0 -23 -7 -49q-17 -62 -100 -62q-68 0 -118 77q-39 60 -54 140z" />
    <glyph glyph-name="uacute" unicode="&#xfa;" horiz-adv-x="1129" 
d="M425 75q-36 -75 -79 -75q-66 0 -107 221q-17 94 -26 199l-8 99q-2 39 -3 79q-8 38 -54 41q-64 4 -69 8q-21 19 -21 51q0 46 52 121q87 125 249 125q122 0 137 -108q9 -65 9 -120v-30q0 -10 -5 -54l-8 -71l-7 -69q53 85 224 85q145 0 239 -74q104 -80 104 -221
q0 -136 -109 -219q-99 -76 -239 -76q-150 0 -279 88zM463 328q32 -18 116 -37q13 -3 28 -3q55 0 55 64q0 66 -75 73q-86 9 -103 45q0 -60 -21 -142z" />
    <glyph glyph-name="ucircumflex" unicode="&#xfb;" horiz-adv-x="1331" 
d="M293 75q-35 -75 -79 -75q-81 0 -123 323q-9 68 -16 149q-1 16 -4 90l-5 145q-8 237 161 237q124 0 138 -109q8 -62 8 -118q0 -41 -5 -85l-8 -71l-7 -69q53 85 225 85q145 0 239 -73q103 -81 103 -222q0 -138 -108 -220q-98 -75 -240 -75q-150 0 -279 88zM331 328
q32 -18 116 -37q13 -3 28 -3q55 0 55 64q0 66 -75 73q-86 9 -103 45q0 -60 -21 -142zM984 311q0 61 -20 181.5t-20 181.5q0 270 156 270q161 0 161 -237q0 -24 -2.5 -72.5t-2.5 -72.5q0 -73 -21 -239q-41 -323 -122 -323q-73 0 -100 130q-29 139 -29 181z" />
    <glyph glyph-name="udieresis" unicode="&#xfc;" horiz-adv-x="992" 
d="M293 75q-35 -75 -79 -75q-81 0 -123 323q-9 68 -16 149q-1 16 -4 90l-5 145q-8 237 161 237q124 0 138 -109q8 -62 8 -118q0 -41 -5 -85l-8 -71l-7 -69q53 85 225 85q145 0 239 -73q103 -81 103 -222q0 -138 -108 -220q-98 -75 -240 -75q-150 0 -279 88zM331 328
q32 -18 116 -37q13 -3 28 -3q55 0 55 64q0 66 -75 73q-86 9 -103 45q0 -60 -21 -142z" />
    <glyph glyph-name="yacute" unicode="&#xfd;" horiz-adv-x="944" 
d="M358 -3q-127 36 -231 157q-75 87 -75 184q0 39 12 80q17 59 49 59q22 0 52 -28q65 -61 139 -94q34 -15 71 -15q108 0 171 83q-69 -23 -114 -23q-44 0 -71 20q-47 34 -47 78q0 5 2 17q9 53 81 83q22 9 49 9q60 0 146 -45q0 109 -74 270q2 -9 2 -17v-16q0 -109 -115 -145
q-45 -14 -77 -14q-68 0 -99 58q-23 43 -23 80q0 27 11 49q50 102 177 102h13q10 -2 14 -2q61 -7 90 -59q9 56 51 51q77 -9 184 -114q45 -44 55 -59q93 -138 93 -313q0 -76 -20 -143q-53 -176 -205 -261q-90 -50 -189 -50q-59 0 -122 18z" />
    <glyph glyph-name="thorn" unicode="&#xfe;" horiz-adv-x="1331" 
d="M490 401q-92 0 -133 50l-10 -111q0 -42 -22 -151q-38 -189 -111 -189q-81 0 -123 323q-9 68 -16 149q-1 16 -4 90l-5 145q-8 237 161 237q144 0 144 -137q0 -160 -10 -224q47 45 78 45q29 0 79 -6q57 171 220 267q83 49 170 49q84 0 169 -45q67 -35 67 -104
q0 -44 -38 -44q-18 0 -53 13q-56 21 -105 21q-43 0 -79 -17q-75 -35 -75 -161q0 -77 47 -129.5t123 -52.5q78 0 124.5 49t45.5 127l-1 95q-1 57 57 57q141 0 141 -333q0 -190 -112 -313q-116 -127 -305 -127q-186 0 -299 124q-125 137 -125 303z" />
    <glyph glyph-name="ydieresis" unicode="&#xff;" horiz-adv-x="1000" 
d="M446 569q0 -67 74 -74q87 -8 103 -44v20q0 15 -3.5 44t-3.5 44v17q0 25 4 41q-36 20 -104 24q-70 4 -70 -72zM403 934q138 0 260 -73q59 74 130 81q160 0 160 -232q0 -75 -18 -194l-22 -145q0 -69 -38 -219q-45 -178 -108 -178q-41 0 -66 84l-32 108q-76 -132 -219 -183
q-51 -18 -99 -18q-110 0 -176 72q-63 69 -63 181q0 81 52 81q30 0 74 -29q91 -61 177 -61q36 0 71 11q116 36 136 209q-52 -85 -224 -85q-143 0 -238 74q-105 81 -105 220q0 140 107 222q97 74 241 74z" />
    <glyph glyph-name="Idotaccent" unicode="&#x130;" horiz-adv-x="1024" 
d="M536 1324q74 0 190 -98q67 -56 67 -107q0 -36 -32.5 -68.5t-68.5 -32.5q-23 0 -65 22q-47 33 -118 75q-14 8 -29 8q-19 0 -66 -36l-62 -50q-27 -19 -49 -19q-26 0 -48 21.5t-22 47.5q0 19 10 37q53 96 194 168q62 32 99 32z" />
    <glyph glyph-name="OE" unicode="&#x152;" horiz-adv-x="1371" 
d="M942 -22l-23 -4q-84 0 -121 256q-6 41 -6 66l-8 91q-57 -114 -170 -114q-114 0 -170 111l-12 -89q-5 -36 -23 -138q-38 -183 -111 -183q-61 0 -86 93q-18 67 -63 451q-44 376 -44 571q0 301 208 301q198 0 198 -303q0 -177 -52 -590q58 81 153 81q87 0 158 -79
q-49 406 -49 602q0 289 208 289q198 0 198 -304q0 -223 -27 -440q-33 -267 -64 -433l-5 -27l-4 -33q115 0 207 -65q103 -73 103 -183q0 -74 -54.5 -127t-129.5 -53q-171 0 -211 253z" />
    <glyph glyph-name="oe" unicode="&#x153;" horiz-adv-x="1048" 
d="M761 0q-61 0 -96 105q-16 48 -27 183q-10 122 -34 167q-38 -55 -117 -55q-88 0 -130 51l-17 -144q-8 -70 -35 -202q-21 -105 -91 -105q-55 0 -84 136q-64 301 -64 571q0 237 161 237q75 0 117 -62q36 -53 36 -132q0 -49 -19 -167q58 56 143 56q64 0 105 -56
q-19 127 -19 167q0 79 36 132q42 62 117 62q162 0 162 -237q0 -253 -62 -552q61 0 119 -71q47 -57 70 -127q15 -45 15 -82q0 -27 -7 -52q-17 -62 -100 -62q-66 0 -120 89q-42 69 -59 150z" />
    <glyph glyph-name="rcedilla" unicode="&#x157;" horiz-adv-x="2048" 
 />
    <glyph glyph-name="Rcaron" unicode="&#x158;" horiz-adv-x="2048" 
 />
    <glyph glyph-name="rcaron" unicode="&#x159;" horiz-adv-x="2048" 
 />
    <glyph glyph-name="Sacute" unicode="&#x15a;" horiz-adv-x="2048" 
 />
    <glyph glyph-name="sacute" unicode="&#x15b;" horiz-adv-x="2048" 
 />
    <glyph glyph-name="Scaron" unicode="&#x160;" 
 />
    <glyph glyph-name="scaron" unicode="&#x161;" 
 />
    <glyph glyph-name="Zcaron" unicode="&#x17d;" horiz-adv-x="1234" 
d="M448 447q14 36 36 83l14 30q12 27 37 78q138 289 284 289q79 0 152 -176q81 -196 81 -459q0 -331 -203 -331q-53 0 -74 36q-13 21 -22 85l-12 81q-13 85 -23 128q-41 168 -98 168q-60 0 -130 -155q-12 -26 -38 -88l-59 -139q-44 -103 -90 -103q-28 0 -58.5 32t-35.5 61
q-25 145 -73 531q-35 281 -35 534q0 105 54 177q60 81 161 81q199 0 199 -339q0 -83 -17 -196q-6 -37 -22 -145q-1 -10 -10 -92z" />
    <glyph glyph-name="zcaron" unicode="&#x17e;" horiz-adv-x="1008" 
d="M324 451q57 132 97 207q143 270 285 270q82 0 155 -177q82 -198 82 -459q0 -331 -204 -331q-53 0 -74 36q-13 21 -22 85l-12 81q-13 85 -23 128q-41 168 -98 168q-51 0 -99 -93q-17 -32 -56 -137q-45 -121 -51 -133q-45 -96 -85 -96q-48 0 -58 67q-108 700 -108 1065
q0 258 188 258q178 0 178 -245q0 -118 -14 -198l-27 -154q-32 -184 -54 -342z" />
    <glyph glyph-name="florin" unicode="&#x192;" horiz-adv-x="716" 
d="M613 184q71 0 71 -45q0 -11 -5 -26q-23 -70 -74 -98q-83 -46 -180 -46h-23q-10 2 -15 2q-243 26 -322 227q-17 43 -17 89q0 56 27 118q-31 22 -31 57q0 31 29 75q42 64 152 64q48 62 48 97q0 51 -59 51q-21 0 -49 -12q-14 -6 -26 -6q-35 0 -35 59q0 77 86 108
q53 19 114 19q32 0 75 -7q117 -19 192 -88q84 -76 84 -189q0 -33 -11 -71q7 1 19 1q36 0 41 -26q2 -10 2 -17q0 -67 -84 -127q-34 -24 -70 -24q-11 0 -25 3q-63 -91 -63 -127q0 -31 32 -42q54 -19 117 -19z" />
    <glyph glyph-name="tilde" unicode="&#x2dc;" 
 />
    <glyph glyph-name="Xi" unicode="&#x39e;" 
 />
    <glyph glyph-name="afii10023" unicode="&#x401;" horiz-adv-x="1048" 
d="M208 878q71 0 71 -116q0 -213 195 -304q81 -38 158 -38q106 0 206 71q67 47 109 47q70 0 70 -148q0 -61 -21 -119q-50 -140 -165.5 -218t-265.5 -78q-146 0 -268.5 78.5t-184.5 210.5q-60 128 -60 258q0 116 27 212q40 144 129 144zM636 1075q-85 0 -85 -80q0 -39 27 -72
q38 -46 89 -46q18 0 52 8.5t52 8.5q31 0 57 -12q50 -23 50 -108q0 -78 -68 -121q-58 -37 -140 -37q-173 0 -281.5 107t-108.5 280q0 174 109 280.5t283 106.5q112 0 195 -43q103 -53 103 -155q0 -61 -39 -107q-41 -49 -101 -49q-33 0 -97 19.5t-97 19.5zM464 1796
q58 0 94 -51q32 -45 32 -106q0 -65 -29 -108q-33 -50 -95 -50q-60 0 -95 50q-31 44 -31 107t30 107q34 51 94 51zM848 1796q58 0 92 -51q30 -45 30 -106q0 -64 -31 -108q-35 -50 -96 -50q-59 0 -93 51q-30 44 -30 106q0 64 31 108q35 50 97 50z" />
    <glyph glyph-name="afii10052" unicode="&#x403;" horiz-adv-x="1034" 
d="M440 96q-35 -122 -111 -122q-99 0 -122 218q-47 447 -47 749q-97 45 -135 175q-16 55 -16 103q0 67 31 119q23 39 52 39q9 -2 50 -14q24 -7 45 -12q56 108 136 108q14 0 29 -3q101 -21 150 -129h72q77 0 120 6q79 11 188 47q30 10 54 10q54 0 83 -49q43 -72 43 -152
q0 -198 -189 -263q-108 -37 -359 -37l-11 -227q57 99 130 99q6 1 13 1h10q67 0 118 -40t66 -105q3 -13 3 -26q0 -58 -60 -104q-56 -44 -115 -44q-21 0 -45 6q-88 22 -127 111q0 -269 -56 -464z" />
    <glyph glyph-name="afii10053" unicode="&#x404;" horiz-adv-x="1210" 
d="M422 560q30 -88 184 -88q116 0 185 86q61 75 74 196q-112 -112 -206 -130q-52 -10 -103 -10q-29 0 -50 3l-85 12q-12 2 -12 -16q0 -15 13 -53zM460 912q42 -5 152 -37q75 -22 162 -22h35q25 3 37 4q-50 96 -171 131q-43 10 -153 38q-97 25 -124 75q-75 137 -75 220
q0 23 7 43q20 57 75 57q15 0 55 -11q78 -21 279 -76q161 -45 241 -143q174 -214 174 -551q0 -383 -229 -559q-139 -107 -313 -107q-286 0 -432 241q-114 188 -114 423q0 237 133 262q85 16 175 16q51 0 86 -4z" />
    <glyph glyph-name="afii10055" unicode="&#x406;" horiz-adv-x="611" 
d="M310 1390q198 0 198 -320q0 -333 -88 -851q-3 -21 -13 -77l-15 -68q-22 -100 -91 -100q-78 0 -94 112l-23 159q-83 574 -83 848q0 297 209 297z" />
    <glyph glyph-name="afii10056" unicode="&#x407;" horiz-adv-x="476" 
d="M241 1377q83 0 132 -58q47 -54 47 -139t-47 -139q-50 -58 -133 -58q-86 0 -137.5 54.5t-51.5 141.5q0 85 52.5 141.5t137.5 56.5zM249 918q104 0 136 -111q23 -80 23 -254q0 -107 -34 -277q-26 -131 -39 -180q-29 -112 -84 -119t-93 104q-18 52 -48 191q-36 166 -36 280
q0 157 21 230q39 136 154 136z" />
    <glyph glyph-name="afii10059" unicode="&#x40a;" horiz-adv-x="1371" 
d="M942 -22l-23 -4q-84 0 -121 256q-6 41 -6 66l-8 91q-57 -114 -170 -114q-114 0 -170 111l-12 -89q-5 -36 -23 -138q-38 -183 -111 -183q-61 0 -86 93q-18 67 -63 451q-44 376 -44 571q0 301 208 301q198 0 198 -303q0 -177 -52 -590q58 81 153 81q87 0 158 -79
q-49 406 -49 602q0 289 208 289q198 0 198 -304q0 -223 -27 -440q-33 -267 -64 -433l-5 -27l-4 -33q115 0 207 -65q103 -73 103 -183q0 -74 -54.5 -127t-129.5 -53q-171 0 -211 253z" />
    <glyph glyph-name="afii10060" unicode="&#x40b;" horiz-adv-x="1234" 
d="M448 447q14 36 36 83l14 30q13 27 37 78q138 289 284 289q79 0 152 -176q81 -196 81 -459q0 -331 -203 -331q-53 0 -74 36q-13 21 -22 85l-12 81q-13 85 -23 128q-41 168 -98 168q-60 0 -130 -155q-12 -26 -38 -88l-59 -139q-44 -103 -90 -103q-28 0 -58.5 32t-35.5 61
q-25 145 -73 531q-35 281 -35 534q0 105 54 177q60 81 161 81q199 0 199 -339q0 -83 -17 -196q-6 -37 -22 -145q-1 -10 -10 -92z" />
    <glyph glyph-name="afii10061" unicode="&#x40c;" horiz-adv-x="1532" 
d="M1115 -9q-49 -17 -84 -17q-161 0 -261 122q-56 69 -141 267l-145 340q-54 -481 -93 -624q-21 -77 -82 -102q-15 -6 -25 -6q-42 0 -66 74q-30 93 -70 477q-43 414 -43 574q0 120 44 197q55 97 166 97q171 0 195 -240q4 -40 4 -98v-13q0 -38 -5 -88l-16 -161q47 63 131 186
q32 46 94 169q57 111 98 163q55 69 130 69q69 0 112 -44.5t43 -113.5q0 -144 -126 -275q-76 -79 -249 -191q81 -34 144 -118q41 -54 95 -162q60 -119 91 -165q58 -87 133 -127q26 -14 38 -27q91 0 194 -74q92 -66 92 -175q0 -75 -54 -127.5t-130 -52.5q-92 0 -151 91
q-46 70 -63 175z" />
    <glyph glyph-name="afii10017" unicode="&#x410;" horiz-adv-x="1143" 
d="M312 289q-25 -164 -37 -198q-41 -117 -134 -117q-115 0 -115 148q0 157 66 430q140 578 357 785q60 57 127 57q85 0 180 -90q66 -62 140 -216q133 -276 197 -626q17 -93 17 -191q0 -83 -13 -148q-30 -149 -186 -149q-102 0 -137 128l-54 198q-13 -63 -76 -100
q-55 -33 -124 -33q-172 0 -208 122zM325 349q64 85 184 85q124 0 192 -68l-27 90q-57 191 -116 293q-37 64 -70 64q-60 0 -115 -218q-18 -72 -33 -158z" />
    <glyph glyph-name="afii10018" unicode="&#x411;" horiz-adv-x="1296" 
d="M981 762q155 -60 210 -168q39 -77 39 -156q0 -149 -115 -280q-169 -192 -496 -192q-45 0 -101 5q-334 30 -448 196q-26 38 -26 74q0 35 23.5 62.5t57.5 27.5t75 -26q80 -50 134 -78q-30 53 -45 154l-23 157q-18 124 -23 206l-10 169q-123 17 -184 139q-42 84 -42 160
q0 31 3 46q1 5 7 27q27 98 67 89t105 -18q44 59 127 101q16 8 32 8q68 0 154 -139q188 0 248 16q12 3 104 30q72 21 103 21q7 0 16 -2q26 -6 52 -71q36 -89 36 -161q0 -276 -538 -276l-23 -340q-1 -25 -7 -96q-3 -34 -20 -104q-18 -76 -25 -90q-22 -45 -72 -45
q38 -13 80 -13q79 0 168 51q145 83 145 229q-23 -19 -121 -28q-100 0 -141 99q-11 27 -11 56q0 23 6 50q30 137 225 159q9 1 16 1h13q95 0 225 -50z" />
    <glyph glyph-name="afii10019" unicode="&#x412;" horiz-adv-x="1296" 
d="M986 760q152 -51 208 -158q38 -73 38 -155q0 -158 -120 -291q-166 -184 -451 -184q-270 0 -478 161q-49 38 -115 122q-35 45 -35 85q0 37 26.5 66.5t63.5 29.5q33 0 74 -26q80 -50 132 -77q-36 50 -44 98l-19 107q-42 237 -42 597q-132 48 -132 172q0 97 41 97q6 0 17 -4
q56 -20 123 -31q44 60 114 60t115 -59q58 0 172.5 -3.5t172.5 -3.5q179 0 276 -173q46 -82 46 -164q0 -43 -13 -86q-37 -123 -170 -180zM549 1109q0 -251 -45 -495q-3 -18 -36 -165l-8 -36q-22 -99 -89 -99q56 -19 122 -19q63 0 136 20q145 40 145 191q0 75 -51 112
q-38 19 -95 51q-51 29 -51 90q0 73 51 99q47 19 95 37q51 30 51 108q0 91 -81 102q-44 6 -94 6h-25q-17 -2 -25 -2z" />
    <glyph glyph-name="afii10020" unicode="&#x413;" horiz-adv-x="1034" 
d="M440 96q-33 -122 -111 -122q-99 0 -122 218q-47 449 -47 749q-97 45 -135 175q-16 55 -16 103q0 67 31 119q23 39 52 39q9 -2 50 -14q24 -7 45 -12q56 108 136 108q14 0 29 -3q101 -21 150 -129h72q157 0 308 53q29 10 54 10q54 0 83 -49q43 -72 43 -152
q0 -198 -189 -263q-108 -37 -359 -37q0 -71 -11 -211.5t-11 -211.5q0 -115 -17 -218q-10 -59 -35 -152z" />
    <glyph glyph-name="afii10021" unicode="&#x414;" horiz-adv-x="1444" 
d="M89 -25q-68 0 -68 83q0 59 76 144l34 38q17 23 60 49q81 488 238 813q90 186 211 265q43 28 90 28q99 0 199 -110q74 -82 131 -213q20 -46 89 -236q119 -328 119 -569q30 12 52 12q62 0 62 -90v-18q-1 -5 -4 -21q-11 -62 -50 -114q-46 -61 -103 -61h-1136zM467 287
q45 14 93 14q25 0 60 -5q131 -19 267 -19l-37 118q-55 174 -96 267q-11 24 -39 78q-38 73 -72 73q-63 0 -118 -231q-19 -80 -37 -179z" />
    <glyph glyph-name="afii10022" unicode="&#x415;" horiz-adv-x="1048" 
d="M208 878q71 0 71 -116q0 -213 195 -304q81 -38 158 -38q106 0 206 71q67 47 109 47q70 0 70 -148q0 -61 -21 -119q-50 -140 -165.5 -218t-265.5 -78q-146 0 -268.5 78.5t-184.5 210.5q-60 128 -60 258q0 116 27 212q40 144 129 144zM636 1075q-85 0 -85 -80q0 -39 27 -72
q38 -46 89 -46q18 0 52 8.5t52 8.5q31 0 57 -12q50 -23 50 -108q0 -78 -68 -121q-58 -37 -140 -37q-173 0 -281.5 107t-108.5 280q0 174 109 280.5t283 106.5q112 0 195 -43q103 -53 103 -155q0 -61 -39 -107q-41 -49 -101 -49q-33 0 -97 19.5t-97 19.5z" />
    <glyph glyph-name="afii10024" unicode="&#x416;" horiz-adv-x="1935" 
d="M1208 704l-14 -96l-10 -86q-48 -411 -70 -477q-25 -74 -67 -74q-13 0 -26 6q-99 46 -142 436l-30 290l-66 -153q-28 -65 -65 -157q-61 -152 -155 -296q-80 -123 -262 -123q-94 0 -181 69q-41 32 -41 67q0 37 64 71q75 40 134 127q33 49 91 165q114 227 238 280
q-176 113 -250 190q-125 129 -125 276q0 116 111 151q32 10 56 10q77 0 118 -73q95 -169 191 -331q29 -49 133 -186l-17 163q-5 48 -5 100q0 50 5 98q25 239 194 239q213 0 213 -334q0 -153 -12 -267q47 63 131 187q68 100 115 197q26 53 77 134q46 73 119 73q23 0 55 -10
q111 -35 111 -151q0 -146 -125 -275q-76 -79 -250 -191q92 -40 143 -116q36 -54 78 -134l72 -137q3 -5 37 -61q48 -78 134 -124q62 -33 62 -71q0 -69 -130 -116q-55 -20 -91 -20q-181 0 -262 123q-92 140 -155 296l-50 124q-18 45 -81 187z" />
    <glyph glyph-name="afii10025" unicode="&#x417;" horiz-adv-x="1234" 
d="M846 1363q188 -12 278 -175q45 -82 45 -165q0 -43 -12 -83q-37 -124 -171 -180q154 -52 208 -158q38 -75 38 -158q0 -145 -115 -282q-161 -191 -461 -191q-103 0 -211 31q-232 67 -376 253q-35 45 -35 85q0 37 25 66.5t61 29.5t77 -26q109 -69 201 -101q43 -15 96 -15
q61 0 136 20q115 31 142 159q5 24 5 43q0 92 -102 129q-92 34 -100 122q0 89 100 109q89 17 99 118q1 10 1 13v7q0 67 -73 89q-16 5 -129 15q-78 7 -148 7q-160 0 -160 182q0 101 46 101q14 0 32 -9q62 -31 128 -31h19q15 4 73 5l61 1h43z" />
    <glyph glyph-name="afii10026" unicode="&#x418;" horiz-adv-x="1292" 
d="M802 1q-81 -27 -179 -27q-175 0 -309 91q-138 92 -195 255q-53 150 -53 320q0 337 173 610q89 140 179 140q73 0 82 -58q3 -19 3 -39q0 -93 -66 -239q-31 -69 -38 -101q-15 -70 -15 -151t16 -173q32 -183 225 -183q196 0 226 173q13 75 13 153q0 84 -31 245
q-14 73 -28 139q-6 28 -6 50q0 76 59 123q77 61 166 61q155 0 186 -222q8 -57 8 -136v-46l-8 -145q-4 -73 -16 -225q-8 -101 -8 -141q0 -92 -29 -206q-5 -17 -60 -200q-26 -87 -128 -82l-86 4q-40 2 -81 10z" />
    <glyph glyph-name="afii10027" unicode="&#x419;" horiz-adv-x="1292" 
d="M802 1q-81 -27 -179 -27q-175 0 -309 91q-138 92 -195 255q-53 150 -53 320q0 337 173 610q89 140 179 140q73 0 82 -58q3 -19 3 -39q0 -93 -66 -239q-31 -69 -38 -101q-15 -70 -15 -151t16 -173q32 -183 225 -183q196 0 226 173q13 75 13 153q0 84 -31 245
q-14 73 -28 139q-6 28 -6 50q0 76 59 123q77 61 166 61q155 0 186 -222q8 -57 8 -136v-46l-8 -145q-4 -73 -16 -225q-8 -101 -8 -141q0 -92 -29 -206q-5 -17 -60 -200q-26 -87 -128 -82l-86 4q-40 2 -81 10zM773 1875q82 0 100 -61q7 -24 7 -53q0 -106 -86 -210
q-58 -70 -120 -70q-55 0 -70 61q-7 28 -7 60q0 113 69 211q44 62 107 62z" />
    <glyph glyph-name="afii10028" unicode="&#x41a;" horiz-adv-x="1215" 
d="M484 703q-16 -156 -35 -315q-21 -179 -58 -311q-21 -74 -81 -100q-14 -6 -25 -6q-43 0 -67 74q-30 93 -70 477q-43 414 -43 574q0 120 44 197q55 97 166 97q171 0 195 -240q4 -40 4 -98v-13q0 -38 -5 -88l-16 -161q47 63 131 186q32 46 94 169q56 110 98 163
q55 69 130 69q69 0 112 -44.5t43 -113.5q0 -144 -126 -275q-76 -79 -249 -191q81 -34 144 -118q33 -44 95 -163q67 -129 91 -164q58 -87 133 -127q67 -36 67 -73q0 -30 -45 -62q-101 -72 -180 -72q-161 0 -261 122q-57 69 -141 267z" />
    <glyph glyph-name="afii10029" unicode="&#x41b;" horiz-adv-x="1143" 
d="M488 813q-60 0 -115 -218q-18 -72 -33 -158l-15 -88q-11 -57 -42 -225q-26 -150 -142 -150q-115 0 -115 148q0 153 67 430q140 579 356 785q60 57 127 57q86 0 180 -90q67 -64 140 -216q133 -277 197 -626q17 -93 17 -191q0 -83 -13 -148q-30 -149 -186 -149
q-102 0 -137 128l-54 198l-37 126q-62 213 -123 323q-35 64 -72 64z" />
    <glyph glyph-name="afii10030" unicode="&#x41c;" horiz-adv-x="1502" 
d="M757 1004q40 136 98 234q88 149 185 149q39 0 82 -25q139 -81 246 -475q60 -221 60 -436q0 -247 -89 -379q-66 -98 -159 -98q-78 0 -105 72q-14 37 -20 139l-6 104q-1 23 -5 88q-9 104 -45 271q-16 73 -48 73q-33 0 -54 -78l-47 -171q-68 -249 -154 -249q-72 0 -97 94
l-30 113q-27 101 -47 156q-38 103 -77 138q-8 7 -15 7q-26 0 -46 -83q-30 -124 -30 -262v-265q0 -112 -98 -145q-21 -7 -43 -7q-65 0 -99 80q-57 135 -57 314q0 120 27 261q66 346 170 560q77 159 153 190q29 12 58 12q43 0 86 -30q126 -88 206 -352z" />
    <glyph glyph-name="afii10031" unicode="&#x41d;" horiz-adv-x="1234" 
d="M444 384l-12 -89q-5 -36 -23 -138q-38 -183 -111 -183q-60 0 -86 93q-17 61 -63 451q-44 373 -44 571q0 301 208 301q198 0 198 -303q0 -177 -52 -590q58 81 153 81q87 0 158 -79q-49 406 -49 602q0 289 208 289q198 0 198 -304q0 -208 -27 -440q-11 -114 -64 -433
l-29 -141q-20 -98 -88 -98q-84 0 -121 256q-6 41 -6 66l-8 91q-57 -114 -170 -114q-114 0 -170 111z" />
    <glyph glyph-name="afii10032" unicode="&#x41e;" horiz-adv-x="1210" 
d="M613 472q115 0 185 88q66 81 66 199q0 111 -27 213q-8 30 -8 62q0 23 5 49q11 58 87 58q116 0 183 -203q50 -152 50 -300q0 -237 -115 -423q-149 -241 -431 -241q-176 0 -314 107q-228 177 -228 559q0 336 174 551q93 114 260 180q66 26 128 26q92 0 175 -58
q62 -43 62 -105q0 -19 -7 -42q-20 -64 -76 -64q-21 0 -49 9q-56 18 -113 28q-6 1 -21 1q-44 0 -90 -27q-131 -77 -152 -271q-4 -37 -4 -72q0 -133 62 -222q70 -102 198 -102z" />
    <glyph glyph-name="afii10033" unicode="&#x41f;" horiz-adv-x="1234" 
d="M498 892q0 -98 -16 -220l-55 -419q0 -34 -20 -120q-37 -159 -115 -159q-71 0 -87 123l-76 602q-22 174 -22 276q-91 101 -91 215q0 76 8 113q16 74 75 74q7 -3 60 -17q8 -2 27 -7q71 108 147 108q18 0 36 -6q96 -33 135 -128q17 -3 41 -3q19 0 56 1t56 1q70 0 140 6
q43 59 120 59q81 0 131 -44q46 9 103 42q14 8 26 8q33 0 33 -71q0 -101 -82 -238q0 -576 -135 -1056q-17 -59 -57 -59q-15 0 -28 5q-63 24 -74 83q-74 394 -96 705q-6 86 -6 132q-57 -8 -122 -7z" />
    <glyph glyph-name="afii10034" unicode="&#x420;" horiz-adv-x="1186" 
d="M484 388q-25 -273 -42 -333q-23 -81 -76 -81q-72 0 -108 197q-69 380 -69 775q-189 96 -189 293q0 151 48 151q6 0 16 -4l147 -61q51 93 134 93q6 0 17 -2t17 -2q106 -22 139 -140q195 -31 304 -77q148 -62 232 -181q87 -122 87 -279q0 -213 -149 -353
q-115 -108 -278 -108q-171 0 -230 112zM519 850q0 -104 -30 -398q23 22 42 22q10 0 19 -8q22 -20 61 -20q117 0 132 117q2 16 2 22v17q0 170 -226 248z" />
    <glyph glyph-name="afii10035" unicode="&#x421;" horiz-adv-x="1073" 
d="M259 983q69 0 69 -60q0 -6 -2 -21q-11 -82 -11 -126q0 -181 144 -283q91 -64 194 -64q58 0 121 21q55 31 171 81q19 6 34 6q21 0 39 -12q31 -20 31 -105q0 -188 -141 -319q-138 -127 -328 -127q-166 0 -290 89t-184 245q-43 112 -43 305q0 144 97 298q45 72 99 72z
M520 1075q-61 0 -120 -57q-29 -28 -57 -28q-31 0 -58 31q-33 37 -33 78q0 58 63 119q90 87 159 123q85 44 193 44q70 0 144 -18q172 -42 172 -228q0 -79 -51 -141q-54 -67 -131 -67q-57 0 -140.5 72t-140.5 72z" />
    <glyph glyph-name="afii10036" unicode="&#x422;" horiz-adv-x="1059" 
d="M544 909q171 -26 164 -237q-1 -19 -5 -80q-3 -46 -3 -71q0 -66 -8 -114q-20 -122 -30 -170q-19 -93 -46 -167q-35 -96 -89 -96q-79 0 -132 314q-25 151 -31 237l-10 154q-10 155 120 220q-65 0 -125 -2l-90 -3q-103 -3 -188 89q-94 102 -94 264q0 68 42 111q28 29 80 29
q24 0 52 -6q124 -27 246 -27q91 0 248 25q38 6 81 6q132 0 221 -75q115 -97 115 -291q0 -139 -92 -139q-27 0 -57 11q-103 37 -213 37q-79 0 -156 -19z" />
    <glyph glyph-name="afii10037" unicode="&#x423;" horiz-adv-x="1153" 
d="M330 525q-159 185 -228 380q-39 110 -39 219t66 196q39 51 119 68q14 3 27 3q60 0 94 -56q24 -40 50 -127q17 -55 27.5 -88.5t30.5 -90.5q81 -229 156 -229q52 0 77 92q24 98 49 197q31 122 63 189q53 112 133 112q68 0 106 -71q31 -58 31 -132q0 -54 -16 -120
q-75 -307 -324 -692q-106 -164 -164 -243q-26 -36 -91 -115q-40 -49 -76 -49q-31 0 -51 28q-18 25 -18 57q0 50 35 132q71 165 84 202q-93 82 -141 138z" />
    <glyph glyph-name="afii10038" unicode="&#x424;" horiz-adv-x="1586" 
d="M841 55q-22 -81 -76 -81q-101 0 -146 470l-17 179q-2 22 -7 146l-7 177q-84 29 -143 29q-36 0 -60 -12q-70 -35 -70 -108v-12q0 -55 26 -107q34 -68 85 -93q143 -70 135 -120q-7 -48 -49 -43q-323 42 -410 274q-48 128 -48 251q0 351 269 351q209 0 287 -31q52 93 133 93
h21q6 -2 15 -4q105 -24 138 -140q408 -60 544 -270q76 -117 76 -236q0 -292 -194 -424q-100 -68 -230 -68q-173 0 -230 112q-24 -267 -42 -333zM918 850q0 -84 -9 -190q-2 -28 -21 -208q23 22 42 22q9 0 17 -8q20 -21 63 -21q134 0 134 141v18q0 92 -55 145q-68 65 -171 101
z" />
    <glyph glyph-name="afii10039" unicode="&#x425;" horiz-adv-x="1210" 
d="M892 753q15 -38 60 -174q3 -8 41 -119q57 -166 176 -240q82 -51 82 -97q0 -30 -33 -56q-85 -67 -199 -67q-390 0 -577 488q-49 -89 -66 -221q0 -63 -23 -184q-45 -110 -143 -110q-83 0 -133 84q-37 62 -37 143q0 302 299 586q-77 197 -174 294q-44 35 -84 67
q-59 48 -59 75q0 7 1 10q17 72 150 113q58 18 94 18q314 0 502 -350q37 51 59 159q25 119 42 151q36 67 121 67q75 0 115 -59q35 -51 35 -130q0 -228 -249 -448z" />
    <glyph glyph-name="afii10040" unicode="&#x426;" horiz-adv-x="1494" 
d="M1021 -6q-32 -8 -115 -8q-77 0 -104 15q-81 -27 -179 -27q-174 0 -308 91q-137 92 -195 254q-54 151 -54 320q0 339 173 611q89 140 179 140q73 0 82 -58q3 -19 3 -39q0 -90 -65 -237q-32 -73 -39 -103q-15 -66 -15 -151q0 -81 16 -173q32 -183 225 -183q196 0 226 173
q13 75 13 153q0 84 -31 245q-14 73 -28 139q-6 28 -6 50q0 76 59 123q77 61 166 61q155 0 186 -222q8 -57 8 -136v-46l-8 -145q-4 -73 -16 -225q-8 -101 -8 -141q0 -84 -12 -155q-6 -36 -23 -88l-13 -40l-12 -40q109 0 198 -68q97 -73 97 -179q0 -74 -55 -127t-129 -53
q-96 0 -155 91q-47 71 -61 178z" />
    <glyph glyph-name="afii10041" unicode="&#x427;" horiz-adv-x="1292" 
d="M789 489q-87 -28 -185 -28h-37q-1 0 -39 4q-290 30 -394 363q-16 51 -16 106q0 142 109 316q85 136 253 136q129 0 129 -121q0 -36 -9 -64l-25 -78l-27 -69q-42 -107 -42 -184q0 -29 6 -57q21 -100 87 -119q55 -16 98 -16q87 0 88 74l8 404q2 105 59.5 169.5t159.5 64.5
q151 0 184 -217q13 -88 9 -181l-7 -151l-24 -366q-3 -53 -10 -111q-3 -23 -23 -95l-56 -197q-22 -76 -89 -78l-125 -3q-28 -1 -54 248l-18 171q0 76 -10 79z" />
    <glyph glyph-name="afii10042" unicode="&#x428;" horiz-adv-x="1887" 
d="M923 59q-127 -94 -313 -94q-174 0 -309.5 92t-194.5 254q-52 143 -52 320q0 339 173 610q89 140 178 140q74 0 83 -58q3 -19 3 -36q0 -86 -66 -241q-33 -77 -38 -102q-16 -77 -16 -150q0 -76 17 -173q32 -184 225 -184q36 0 71 8q-19 92 -19 191q0 116 27 239
q49 222 146 375q89 140 178 140q74 0 83 -58q3 -19 3 -39q0 -42 -14 -93q-36 -83 -90 -247q-15 -70 -15 -150q0 -81 16 -173q32 -184 225 -184q198 0 226 173q13 80 13 153q0 78 -31 245q-12 65 -28 139q-6 28 -6 50q0 76 59 123q77 61 166 61q155 0 186 -223q5 -35 6 -79
q2 -82 1 -103l-7 -144q-2 -46 -8 -180q-1 -11 -17 -186q0 -127 -33 -240q-11 -42 -42 -152q-26 -89 -89 -120q-14 -7 -40 -7q-29 0 -73 11q-84 21 -106 34q-81 -27 -179 -27q-168 0 -299 85z" />
    <glyph glyph-name="afii10043" unicode="&#x429;" horiz-adv-x="2089" 
d="M923 59q-127 -94 -313 -94q-174 0 -309.5 92t-194.5 254q-52 143 -52 320q0 337 173 610q89 140 178 140q74 0 83 -58q3 -19 3 -36q0 -86 -66 -241q-33 -77 -38 -102q-16 -77 -16 -151q0 -75 17 -172q32 -184 225 -184q36 0 71 8q-19 92 -19 191q0 220 88 445
q37 94 85 169q90 140 178 140q74 0 83 -58q3 -19 3 -39q0 -42 -14 -93q-36 -83 -90 -247q-15 -70 -15 -150q0 -81 16 -173q32 -184 225 -184q196 0 226 173q13 75 13 153q0 76 -31 245q-13 71 -28 139q-6 27 -6 50q0 76 59 123q77 61 166 61q155 0 186 -223q5 -35 6 -79
q2 -82 1 -103l-7 -144q-1 -46 -8 -180q-5 -49 -17 -186q-2 -38 -10 -145q-10 -57 -24 -98l-13 -39l-12 -41q109 0 198 -68q97 -73 97 -179q0 -74 -55 -127t-130 -53q-178 0 -215 269q-32 -8 -115 -8q-77 0 -104 15q-81 -27 -179 -27q-168 0 -299 85z" />
    <glyph glyph-name="afii10044" unicode="&#x42a;" horiz-adv-x="1516" 
d="M1193 762q155 -59 210 -168q39 -77 39 -158q0 -145 -116 -278q-167 -192 -496 -192q-49 0 -100 5q-204 20 -311 75q-86 44 -138 121q-26 38 -26 74q0 35 23.5 62.5t57.5 27.5t75 -26q87 -55 134 -78q-30 53 -45 154l-23 157q-18 124 -23 206l-10 169q-68 -12 -123 -12
q-151 0 -230 90q-75 85 -75 238q0 30 4 65q9 79 67 79q14 0 33 -5q87 -23 250 -61q43 59 142 125q27 18 54 18q71 0 147 -124q44 0 86 -57q14 -19 53 -95q59 -114 59 -179q0 -61 -101 -98q-38 -14 -76 -14l-22 -340q-1 -24 -7 -94q-11 -94 -46 -199q-14 -42 -72 -42
q38 -13 80 -13q80 0 169 51q144 83 144 229q-22 -19 -121 -28q-99 0 -141 99q-11 26 -11 58q0 23 5 48q28 139 224 160q9 1 15 1h13q95 0 229 -51z" />
    <glyph glyph-name="afii10045" unicode="&#x42b;" horiz-adv-x="1752" 
d="M981 762q155 -59 210 -168q39 -77 39 -156q0 -149 -115 -280q-169 -192 -496 -192q-49 0 -100 5q-204 20 -311 75q-86 44 -138 121q-26 38 -26 74q0 35 23.5 62.5t57.5 27.5t75 -26q80 -50 134 -78q-74 89 -112 311q-21 122 -28 210l-14 174l-14 219q-3 53 5 123
q10 84 31 116q24 36 101 73q21 10 43 10q79 0 156 -137q35 -63 35 -209q0 -80 -4 -125q-3 -28 -10 -109l-23 -340q-1 -25 -7 -96q-4 -42 -18 -96l-14 -54q-11 -31 -23 -62q-15 -27 -62 -27q38 -13 80 -13q79 0 168 51q145 83 145 229q-35 -27 -121 -27q-101 0 -141 98
q-11 27 -11 58q0 23 5 48q28 139 224 160q9 1 15 1h13q94 0 228 -51zM1481 1390q198 0 198 -320q0 -333 -88 -851q-3 -21 -13 -77l-15 -68q-22 -100 -91 -100q-78 0 -94 112l-23 159q-83 574 -83 848q0 297 209 297z" />
    <glyph glyph-name="afii10046" unicode="&#x42c;" horiz-adv-x="1296" 
d="M981 762q155 -59 210 -168q39 -77 39 -156q0 -149 -115 -280q-169 -192 -496 -192q-49 0 -100 5q-204 20 -311 75q-86 44 -138 121q-26 38 -26 74q0 35 23.5 62.5t57.5 27.5t75 -26q80 -50 134 -78q-74 89 -112 311q-21 122 -28 210l-14 174l-14 219q-3 53 5 123
q10 84 31 116q24 36 101 73q21 10 43 10q79 0 156 -137q35 -63 35 -209q0 -80 -4 -125q-3 -28 -10 -109l-23 -340q-1 -25 -7 -96q-4 -42 -18 -96l-14 -54q-11 -31 -23 -62q-15 -27 -62 -27q38 -13 80 -13q79 0 168 51q145 83 145 229q-35 -27 -121 -27q-101 0 -141 98
q-11 27 -11 58q0 23 5 48q28 139 224 160q9 1 15 1h13q94 0 228 -51z" />
    <glyph glyph-name="afii10047" unicode="&#x42d;" horiz-adv-x="1234" 
d="M773 572q-43 -99 -134 -122q-24 -6 -46 -6q-59 0 -114 43q-59 45 -59 103q0 14 3 27q32 143 208 143q72 0 130 -99q-14 52 -41 88q-62 82 -193 129l-154 55q-122 44 -175 77q-85 53 -128 139q-24 47 -24 93q0 56 35 114q29 48 62 48q5 0 73 -27q13 -5 50 -20
q85 -36 142 -48l143 -30q165 -35 274 -88q342 -167 342 -574q0 -328 -216 -505q-169 -138 -401 -138q-255 0 -408 114q-90 67 -90 134q0 15 6 33q15 45 61 45q33 0 126 -42q124 -56 133 -59q415 0 396 354z" />
    <glyph glyph-name="afii10048" unicode="&#x42e;" horiz-adv-x="1895" 
d="M785 384q-57 -112 -171 -112t-170 112l-13 -99q-22 -169 -66 -258q-26 -53 -67 -53q-60 0 -86 93q-18 64 -63 451l-45 387q-7 60 -7 113q0 151 51 271q43 102 166 102q125 0 161 -103q41 -117 41 -264q0 -66 -8 -131l-49 -396q57 81 147 81q87 0 155 -70q-8 56 -8 136
q0 193 72 377q97 248 362 350q44 17 103 17q60 0 142 -19q122 -28 122 -122q0 -25 -9 -55q-20 -66 -71 -66q-15 0 -31 5q-74 23 -136 34q-6 1 -20 1q-46 0 -91 -27q-87 -52 -127 -163q-30 -84 -30 -173v-23q0 -8 2 -26q13 -121 74 -196q69 -86 185 -86q201 0 231 179
q13 78 13 155q0 87 -20 166q-9 36 -9 63q0 69 55 100q23 13 48 13q53 0 102 -68q78 -108 104 -255q15 -85 15 -171q0 -72 -8 -128q-49 -345 -269 -478q-130 -79 -264 -79q-104 0 -206 48q-234 110 -307 367z" />
    <glyph glyph-name="afii10049" unicode="&#x42f;" horiz-adv-x="1250" 
d="M429 552q-200 57 -297 214q-48 78 -48 171q0 91 49 199q80 177 259 198q85 10 174 10q79 0 169 -11q50 73 130 84q7 1 17 1q68 0 125 -69q45 14 92 45q15 10 28 10q33 0 54 -60q16 -46 16 -88q0 -103 -76 -179q-35 -35 -86 -56l-27 -363q-1 -44 -10 -172q-6 -49 -21 -190
l-16 -180q-13 -142 -86 -142q-72 0 -89 171l-43 435q-13 -49 -57 -114q-74 -109 -128 -237q-61 -145 -101 -187q-64 -68 -195 -68q-90 0 -164 29q-98 38 -98 114q0 45 65 80q92 49 103 60q25 25 118 161q69 101 143 134zM711 990q-125 0 -171 -13q-94 -27 -94 -119
q0 -63 35 -95q26 -24 96 -41q11 -3 97 -29q49 -15 63 -62z" />
    <glyph glyph-name="afii10065" unicode="&#x430;" horiz-adv-x="1000" 
d="M671 169q-127 -195 -290 -195q-147 0 -225 120q-87 134 -87 274q0 404 217 517q64 33 125 33q27 0 58 -7q92 -21 167 -89q51 96 133 96q164 0 164 -343q0 -118 -26 -266q-22 -127 -39 -184q-10 -33 -56 -117q-23 -42 -45 -42q-41 0 -96 203zM613 625q-69 75 -124 75
q-17 0 -34 -8q-65 -31 -89 -110q-12 -39 -12 -77q0 -39 14 -83q26 -81 117 -81q127 0 127 104v93q0 45 1 87z" />
    <glyph glyph-name="afii10066" unicode="&#x431;" horiz-adv-x="944" 
d="M726 112q-108 -138 -297 -138q-181 0 -280 120q-108 131 -108 269q0 395 307 470q45 11 87 11q73 0 132 -29q74 -36 74 -101q0 -40 -38 -40q-19 0 -47 11q-52 20 -98 20q-38 0 -70 -15q-70 -33 -70 -147q0 -71 43 -118t113 -47t114 45t43 115l-1 86q-1 52 52 52
q82 0 106 -125q20 -104 20 -227q0 -107 -82 -212zM459 1036q-77 0 -113 -37l-45 -71q-29 -36 -70 -36q-67 0 -67 80q0 160 139 289q115 106 241 106q32 0 62 -6q100 -20 152 -20q21 0 55 13.5t46 13.5q79 0 79 -84v-23q-2 -7 -4 -17q-28 -174 -184 -262q-34 -19 -72 -19
q-39 0 -90 26l-61 31q-31 16 -68 16z" />
    <glyph glyph-name="afii10067" unicode="&#x432;" horiz-adv-x="944" 
d="M466 1165q-109 -30 -152 -238q-20 -97 -20 -194q0 -98 24 -190q42 -161 128 -161q19 0 38 7q78 29 78 97q0 34 -16 73q-68 167 -124 167q-33 0 -33 29q0 81 85 81q45 0 115 -20q157 -45 220 -265q16 -56 16 -130q0 -189 -102 -313q-109 -134 -294 -134q-239 0 -318 175
q-64 142 -64 302q0 13 1.5 36t1.5 33q2 72 22 170q12 60 54 221q63 245 177 350q140 129 296 129q147 0 206 -86q50 -72 50 -152v-15q-1 -7 -1 -10q-10 -90 -82 -145q-35 -27 -176 -60q-51 -12 -89 -12q-23 0 -53 9q-38 12 -38 31q0 16 75 38q82 24 82 81q0 45 -19 83
q-10 20 -41 20q-21 0 -47 -7z" />
    <glyph glyph-name="afii10068" unicode="&#x433;" horiz-adv-x="716" 
d="M613 184q71 0 71 -45q0 -11 -5 -26q-23 -70 -74 -98q-86 -47 -178 -47q-25 0 -58 5q-266 40 -317 273q-5 23 -5 46q0 89 70 188q24 34 108 121q51 53 51 92q0 56 -62 56q-21 0 -49 -12q-14 -6 -26 -6q-35 0 -35 59q0 77 86 108q53 19 114 19q32 0 75 -7q117 -19 192 -88
q84 -76 84 -189q0 -85 -67 -179q-101 -143 -109 -159q-15 -32 -15 -50q0 -31 32 -42q54 -19 117 -19z" />
    <glyph glyph-name="afii10069" unicode="&#x434;" horiz-adv-x="1067" 
d="M668 757q40 161 160 161q170 0 168 -295q0 -33 -2.5 -103t-2.5 -106q0 -121 -23 -339q-48 -455 -145 -455q-75 0 -115 239q-7 37 -19 122q-1 16 -4 61l-8 104q-80 -172 -271 -172q-173 0 -266 160q-76 131 -76 318q0 182 81 318q96 161 266 161q157 0 257 -174zM654 452
q-73 84 -143 84q-154 0 -174 -155q-1 -8 -1 -21q0 -59 47 -114q40 -46 84 -46q38 0 84 12l73 19q30 8 48 -29z" />
    <glyph glyph-name="afii10070" unicode="&#x435;" horiz-adv-x="875" 
d="M451 -26q-190 0 -305 158q-93 127 -93 299q0 221 151 370q59 58 150.5 95.5t174.5 37.5q104 0 184 -61q87 -67 87 -168q0 -91 -55.5 -167.5t-142.5 -111.5q-37 -15 -69 -15q-43 0 -84 28q-28 19 -28 42q0 19 26 58q14 20 53 77q29 45 29 76q0 28 -21.5 55.5t-48.5 27.5
q-10 0 -22 -4q-38 -13 -61 -43q-62 -81 -62 -201t82 -188q62 -51 157 -51q77 0 162 48q55 31 83 31q30 0 30 -36q0 -6 -2 -18q-13 -93 -56 -161q-112 -178 -319 -178z" />
    <glyph glyph-name="afii10072" unicode="&#x436;" horiz-adv-x="1645" 
d="M1035 499l-33 -196l-26 -136l-27 -116q-18 -77 -74 -77q-60 0 -77 113l-10 66l-12 91l-35 256q-43 -83 -89 -187q-86 -195 -121 -238q-81 -101 -235 -101q-51 0 -151 40q-52 21 -52 46q0 26 51 58q88 55 172 221q81 160 183 215q-43 60 -128 86q-175 55 -175 159
q0 53 34.5 88t87.5 35q23 0 40 -5q138 -41 279 -196q61 -67 92 -108q-12 38 -12 81q0 53 20 121q34 115 156 115q115 0 143 -111q11 -43 11 -207q93 129 224 228q74 56 147 77q21 6 41 6q52 0 86.5 -36t34.5 -88q0 -79 -97 -131q-34 -18 -75 -26q-79 -15 -131 -88
q102 -55 181 -215q83 -164 174 -221q50 -31 50 -58q0 -25 -51 -45q-104 -41 -151 -41q-155 0 -235 100q-33 41 -121 239q-36 82 -89 186z" />
    <glyph glyph-name="afii10073" unicode="&#x437;" horiz-adv-x="875" 
d="M450 332q-17 20 -17 35q0 35 102 35q33 0 54 -9q146 -62 146 -249v-30q0 -4 -4 -31q-30 -208 -184 -345q-92 -82 -269 -119q-38 -8 -77 -8q-118 0 -190 91q-46 58 -46 193q0 97 77 97q-15 0 84 -17q18 -3 34 -3q94 0 206 81q154 111 154 186q0 82 -45 84q-21 1 -25 9z
M287 643q-29 0 -36 53q-2 15 -2 25q0 84 73 139q93 70 223 70q117 0 186 -58q72 -62 72 -178q0 -102 -76 -169.5t-179 -67.5q-64 0 -127 54q-21 18 -21 33q0 32 87 32q57 0 57 61v7q0 31 -16 48q-38 39 -77 39q-45 0 -91 -44t-73 -44z" />
    <glyph glyph-name="afii10074" unicode="&#x438;" horiz-adv-x="978" 
d="M609 322q-80 -144 -141 -226q-90 -122 -174 -122q-113 0 -178 234q-50 180 -50 412q0 324 210 324q56 0 75 -43q13 -29 29 -159q35 -283 106 -283q49 0 96 89q8 15 8 39q0 27 -14 83t-14 85q0 44 15 98q9 33 63 57q45 20 86 20q148 0 171 -108q9 -42 9 -185
q0 -124 -18 -284q-42 -372 -145 -392q-5 -1 -12 -1q-67 0 -90 126q-17 92 -22 127q-10 65 -10 109z" />
    <glyph glyph-name="afii10075" unicode="&#x439;" horiz-adv-x="978" 
d="M564 1390q83 0 102 -61q8 -26 8 -55q0 -37 -15 -81q-24 -71 -71 -127q-58 -69 -121 -69q-77 0 -77 125q0 110 69 207q43 61 105 61zM609 322q-80 -144 -141 -226q-90 -122 -174 -122q-113 0 -178 234q-50 180 -50 412q0 324 210 324q56 0 75 -43q13 -29 29 -159
q35 -283 106 -283q49 0 96 89q8 15 8 39q0 27 -14 83t-14 85q0 44 15 98q9 33 63 57q45 20 86 20q148 0 171 -108q9 -42 9 -185q0 -124 -18 -284q-42 -372 -145 -392q-5 -1 -12 -1q-67 0 -90 126q-17 92 -22 127q-10 65 -10 109z" />
    <glyph glyph-name="afii10076" unicode="&#x43a;" horiz-adv-x="978" 
d="M601 554q115 -62 181 -212q69 -157 174 -224q51 -33 51 -58q0 -26 -51 -46q-103 -40 -152 -40q-152 0 -234 101q-38 47 -122 238q-40 91 -89 187l-56 -412q-15 -114 -78 -114q-51 0 -66 78q-2 8 -21 119q-21 60 -51 200q-34 158 -34 272q0 287 177 287q120 0 144 -115
q11 -52 11 -102q0 -56 -14 -100q177 248 371 304q21 6 41 6q52 0 86.5 -36t34.5 -88q0 -101 -172 -157q-87 -28 -131 -88z" />
    <glyph glyph-name="afii10077" unicode="&#x43b;" horiz-adv-x="863" 
d="M649 -24q-56 0 -86 52q-3 4 -40 101l-28 74q-30 78 -47 117q-69 154 -109 154q-37 0 -59 -59q-26 -69 -35 -131l-22 -145q-11 -75 -24 -98q-24 -45 -62 -45q-13 0 -27 5q-57 20 -57 90q0 184 117 498q133 357 266 357q129 0 267 -302q123 -269 123 -422q0 -90 -43 -162
q-50 -84 -134 -84z" />
    <glyph glyph-name="afii10078" unicode="&#x43c;" horiz-adv-x="1248" 
d="M628 695q95 249 205 249q138 0 270 -300q116 -264 116 -421q0 -91 -40 -162q-49 -87 -131 -87q-57 0 -111 111q-13 27 -61 162q-33 93 -70 160q-20 36 -46 36q-20 0 -44 -21l14 -115q3 -25 3 -55q0 -278 -135 -278q-87 0 -164 237q-40 123 -46 137q-41 98 -86 98
q-40 0 -48 -70l-17 -153q-11 -102 -26 -153q-20 -70 -76 -70q-85 0 -85 120q0 210 117 525q64 173 114 234q59 72 114 72q46 0 90 -51q95 -112 143 -205z" />
    <glyph glyph-name="afii10079" unicode="&#x43d;" horiz-adv-x="978" 
d="M604 455q-38 -55 -117 -55q-88 0 -130 51q-11 -125 -50 -343q-20 -108 -93 -108q-55 0 -84 136q-64 301 -64 571q0 237 161 237q75 0 117 -62q36 -53 36 -132q0 -49 -19 -167q58 56 143 56q64 0 105 -56q-19 127 -19 167q0 78 37 132q42 62 116 62q162 0 162 -237
q0 -256 -65 -571q-28 -136 -84 -136q-57 0 -91 105q-16 48 -27 183q-10 124 -34 167z" />
    <glyph glyph-name="afii10080" unicode="&#x43e;" horiz-adv-x="944" 
d="M798 126q-116 -152 -323 -152q-198 0 -305 132q-118 146 -118 297q0 432 335 518q47 12 93 12q82 0 158 -40q67 -35 67 -104q0 -44 -39 -44q-18 0 -53 13q-56 21 -104 21q-43 0 -79 -17q-76 -36 -76 -161q0 -77 46 -128q48 -54 124 -54q78 0 125 49t46 127l-1 95
q-1 57 56 57q88 0 115 -137q22 -112 22 -251q0 -116 -89 -233z" />
    <glyph glyph-name="afii10081" unicode="&#x43f;" horiz-adv-x="978" 
d="M361 583q193 345 319 345q29 0 58 -15q66 -34 117 -216q17 -60 37 -192q11 -72 11 -244q0 -106 -53 -210q-46 -90 -155 -90q-55 0 -75 43q-13 28 -26 118q-5 36 -19 128q-32 196 -91 196q-46 0 -87 -89q-42 -136 -94 -265q-37 -92 -89 -92q-81 0 -123 323q-9 68 -16 149
q-1 16 -4 90l-5 145q-8 237 161 237q145 0 145 -136q0 -154 -11 -225z" />
    <glyph glyph-name="afii10082" unicode="&#x440;" horiz-adv-x="1052" 
d="M398 757q100 174 256 174q168 0 264 -162q80 -135 80 -317q0 -187 -75 -318q-92 -160 -265 -160q-187 0 -270 172l-9 -107q-1 -20 -6 -77q0 -4 -16 -101q-39 -241 -116 -241q-74 0 -101 173l-39 252q-35 226 -35 378q0 207 15 293q35 202 155 202q124 0 162 -161z
M411 452l-17 -250q12 30 37 30q4 0 8 -1l72 -18q52 -13 84 -13q44 0 84 46q46 53 46 114q0 176 -172 176q-69 0 -142 -84z" />
    <glyph glyph-name="afii10083" unicode="&#x441;" horiz-adv-x="887" 
d="M562 853q52 67 111 67q7 -1 11 -1q99 -9 144 -113q13 -30 13 -65q0 -68 -49 -125q-51 -60 -118 -60q-47 0 -92 45q-58 59 -58 129q0 41 22 90q-79 -87 -142 -223q-21 -45 -21 -88q0 -82 80 -153q62 -55 132 -55q15 0 22 1q81 11 160 52q27 14 46 14q42 0 42 -72
q0 -140 -133 -235q-121 -87 -267 -87q-186 0 -297 117t-111 304q0 89 30 182q47 145 163 240q58 47 182 90q35 12 71 12h12q8 -2 12 -2q36 -5 36 -49q0 -10 -1 -15z" />
    <glyph glyph-name="afii10084" unicode="&#x442;" horiz-adv-x="1389" 
d="M360 600q68 163 99 213q80 131 169 131q133 0 208 -326q44 140 81 205q69 121 162 121q90 0 154 -154q79 -190 79 -338q0 -235 -31 -337q-47 -154 -176 -154q-52 0 -73 46q-12 26 -21 92l-12 87q-19 141 -59 217q-21 41 -54 41q-13 0 -28 -6v-63q0 -133 -12 -235
q-21 -179 -191 -179q-82 0 -95 53q-16 66 -16 117q0 22 -5 60l-15 114q-19 141 -60 141q-45 0 -96 -154l-63 -191q-34 -102 -79 -102q-5 0 -13 2q-59 14 -80 120l-38 190q-32 160 -32 276q0 152 20 224q37 133 148 133q142 0 142 -128v-31q0 -122 -13 -185z" />
    <glyph glyph-name="afii10085" unicode="&#x443;" horiz-adv-x="911" 
d="M234 -393q-133 0 -202 120q-37 65 -37 130q0 53 24 104q18 38 43 38q3 0 88 -36q90 -38 95 -40q9 -2 17 -2q41 0 88 44l20 23q6 7 11 16q1 2 4 7q-154 185 -252 444q-55 146 -55 261q0 129 86 194q50 38 90 38q33 0 59 -27q56 -58 96 -159l77 -195q38 -95 93 -95
q48 0 71 95q2 8 20 135q15 104 28 142q30 87 94 87q74 0 74 -116q0 -119 -30 -260q-53 -250 -130 -445q-198 -503 -472 -503z" />
    <glyph glyph-name="afii10086" unicode="&#x444;" horiz-adv-x="1589" 
d="M992 452l-17 -250q12 30 37 30q4 0 8 -1l72 -18q52 -13 84 -13q44 0 84 46q46 53 46 114q0 12 -1 20q-20 156 -172 156q-69 0 -141 -84zM666 154q-95 -180 -255 -180q-166 0 -262 159q-82 135 -82 313q0 184 70 312q87 160 256 160q140 0 220 -125q0 19 -17 153
q-7 55 -7 151v50q0 86 46 170q40 73 137 73q107 0 170 -94q55 -81 55 -194q0 -21 -1 -48.5t-5 -100.5l-15 -205q98 183 258 183q168 0 264 -162q81 -136 81 -317q0 -189 -75 -319q-92 -159 -266 -159q-186 0 -269 172l-9 -107q-1 -20 -6 -77q-3 -19 -16 -101
q-39 -241 -116 -241q-52 0 -77 64q-10 25 -24 109l-24 142zM651 468l-18 135l-16 133q-6 -43 -38 -43q-12 0 -27 6q-53 22 -89 22q-135 0 -135 -184q0 -73 44 -126q46 -57 118 -57q87 0 161 114z" />
    <glyph glyph-name="afii10087" unicode="&#x445;" horiz-adv-x="982" 
d="M685 473q64 -136 82 -163q35 -54 126 -130q86 -72 86 -89q0 -26 -34 -52q-86 -65 -176 -65q-154 0 -248 99q-69 73 -133 241q-16 -35 -56 -157q-31 -97 -47 -125q-39 -71 -100 -71q-57 0 -90 47q-29 41 -29 101q0 192 228 407q-72 166 -179 252q-54 43 -54 77q0 25 29 43
q70 43 146 43q219 0 357 -272q37 56 59 105l49 112q30 68 103 68q40 0 70 -33q39 -44 39 -94q0 -64 -60 -143q-105 -138 -168 -201z" />
    <glyph glyph-name="afii10088" unicode="&#x446;" horiz-adv-x="1056" 
d="M776 -22q-22 -18 -45 -18q-67 0 -90 126q-17 92 -22 127q-10 65 -10 109q-82 -145 -141 -226q-89 -122 -174 -122q-113 0 -178 234q-50 180 -50 412q0 324 210 324q65 0 90 -81q7 -22 21 -136q17 -134 38 -190q30 -78 61 -78q24 0 56 34q48 50 48 94q0 27 -14 83t-14 85
q0 44 15 98q9 33 63 57q45 20 86 20q148 0 171 -108q6 -28 6 -116l-1 -168q0 -188 -52 -386q61 0 119 -70q85 -103 85 -207q0 -27 -7 -52q-17 -62 -100 -62q-68 0 -118 78q-38 59 -53 139z" />
    <glyph glyph-name="afii10089" unicode="&#x447;" horiz-adv-x="978" 
d="M579 588q-94 -164 -199 -257q-28 -25 -62 -25q-86 0 -202 177q-48 73 -48 191q0 108 49 183q56 87 159 87q57 0 75 -43q3 -8 10 -45l14 -79q15 -85 58 -85q15 0 34 10q76 39 106 151q21 76 162 76t162 -107q9 -46 9 -186q0 -124 -18 -285q-42 -377 -145 -390
q-79 -10 -125 259q-19 113 -27 212z" />
    <glyph glyph-name="afii10090" unicode="&#x448;" horiz-adv-x="1500" 
d="M610 322q-143 -250 -244 -320q-38 -26 -77 -26q-30 0 -58 15q-64 34 -115 217q-20 72 -38 191q-12 80 -12 214v30q0 107 53 211q46 90 157 90q56 0 75 -43q8 -17 21 -116q33 -247 98 -319q9 -10 21 -10q31 0 69 74q33 64 33 123q0 47 19 136q33 155 183 155q62 0 86 -71
q6 -16 22 -123q19 -125 31 -167q26 -90 65 -122q11 -7 18 -7q35 0 84 94q8 15 8 39q0 28 -13.5 82.5t-13.5 82.5q0 46 15 101q21 77 160 77q137 0 160 -108q8 -38 8 -185q0 -316 -69 -549q-34 -116 -93 -127q-5 -1 -13 -1q-67 0 -90 126q-31 169 -31 236q-99 -172 -129 -213
q-99 -135 -186 -135q-143 0 -204 348z" />
    <glyph glyph-name="afii10091" unicode="&#x449;" horiz-adv-x="1577" 
d="M1297 -22q-27 -18 -47 -18q-67 0 -90 126q-31 169 -31 236q-99 -172 -129 -213q-99 -135 -186 -135q-143 0 -204 348q-143 -250 -244 -320q-38 -26 -77 -26q-30 0 -58 15q-64 34 -115 217q-20 72 -38 191q-12 80 -12 214v30q0 107 53 211q46 90 157 90q56 0 75 -43
q8 -17 21 -116q33 -247 98 -319q9 -10 21 -10q31 0 69 74q33 64 33 123q0 47 19 136q33 155 183 155q62 0 86 -71q6 -16 22 -123q19 -125 31 -167q26 -90 65 -122q11 -7 18 -7q35 0 84 94q8 15 8 39q0 28 -13.5 83t-13.5 83q0 45 15 100q21 76 160 76q137 0 160 -107
q6 -28 6 -115l-1 -168q0 -189 -51 -385q60 0 119 -71q86 -103 86 -211q0 -23 -7 -49q-17 -62 -100 -62q-68 0 -118 77q-39 60 -54 140z" />
    <glyph glyph-name="afii10092" unicode="&#x44a;" horiz-adv-x="1129" 
d="M425 75q-36 -75 -79 -75q-66 0 -107 221q-17 94 -26 199l-8 99q-2 39 -3 79q-8 38 -54 41q-64 4 -69 8q-21 19 -21 51q0 46 52 121q87 125 249 125q122 0 137 -108q9 -65 9 -120v-30q0 -10 -5 -54l-8 -71l-7 -69q53 85 224 85q145 0 239 -74q104 -80 104 -221
q0 -136 -109 -219q-99 -76 -239 -76q-150 0 -279 88zM463 328q32 -18 116 -37q13 -3 28 -3q55 0 55 64q0 66 -75 73q-86 9 -103 45q0 -60 -21 -142z" />
    <glyph glyph-name="afii10093" unicode="&#x44b;" horiz-adv-x="1331" 
d="M293 75q-35 -75 -79 -75q-81 0 -123 323q-9 68 -16 149q-1 16 -4 90l-5 145q-8 237 161 237q124 0 138 -109q8 -62 8 -118q0 -41 -5 -85l-8 -71l-7 -69q53 85 225 85q145 0 239 -73q103 -81 103 -222q0 -138 -108 -220q-98 -75 -240 -75q-150 0 -279 88zM331 328
q32 -18 116 -37q13 -3 28 -3q55 0 55 64q0 66 -75 73q-86 9 -103 45q0 -60 -21 -142zM984 311q0 61 -20 181.5t-20 181.5q0 270 156 270q161 0 161 -237q0 -24 -2.5 -72.5t-2.5 -72.5q0 -73 -21 -239q-41 -323 -122 -323q-73 0 -100 130q-29 139 -29 181z" />
    <glyph glyph-name="afii10094" unicode="&#x44c;" horiz-adv-x="992" 
d="M293 75q-35 -75 -79 -75q-81 0 -123 323q-9 68 -16 149q-1 16 -4 90l-5 145q-8 237 161 237q124 0 138 -109q8 -62 8 -118q0 -41 -5 -85l-8 -71l-7 -69q53 85 225 85q145 0 239 -73q103 -81 103 -222q0 -138 -108 -220q-98 -75 -240 -75q-150 0 -279 88zM331 328
q32 -18 116 -37q13 -3 28 -3q55 0 55 64q0 66 -75 73q-86 9 -103 45q0 -60 -21 -142z" />
    <glyph glyph-name="afii10095" unicode="&#x44d;" horiz-adv-x="944" 
d="M358 -3q-127 36 -231 157q-75 87 -75 184q0 39 12 80q17 59 49 59q22 0 52 -28q65 -61 139 -94q34 -15 71 -15q108 0 171 83q-69 -23 -114 -23q-44 0 -71 20q-47 34 -47 78q0 5 2 17q9 53 81 83q22 9 49 9q60 0 146 -45q0 109 -74 270q2 -9 2 -17v-16q0 -109 -115 -145
q-45 -14 -77 -14q-68 0 -99 58q-23 43 -23 80q0 27 11 49q50 102 177 102h13q10 -2 14 -2q61 -7 90 -59q9 56 51 51q77 -9 184 -114q45 -44 55 -59q93 -138 93 -313q0 -76 -20 -143q-53 -176 -205 -261q-90 -50 -189 -50q-59 0 -122 18z" />
    <glyph glyph-name="afii10096" unicode="&#x44e;" horiz-adv-x="1331" 
d="M490 401q-92 0 -133 50l-10 -111q0 -42 -22 -151q-38 -189 -111 -189q-81 0 -123 323q-9 68 -16 149q-1 16 -4 90l-5 145q-8 237 161 237q144 0 144 -137q0 -160 -10 -224q47 45 78 45q29 0 79 -6q57 171 220 267q83 49 170 49q84 0 169 -45q67 -35 67 -104
q0 -44 -38 -44q-18 0 -53 13q-56 21 -105 21q-43 0 -79 -17q-75 -35 -75 -161q0 -77 47 -129.5t123 -52.5q78 0 124.5 49t45.5 127l-1 95q-1 57 57 57q141 0 141 -333q0 -190 -112 -313q-116 -127 -305 -127q-186 0 -299 124q-125 137 -125 303z" />
    <glyph glyph-name="afii10097" unicode="&#x44f;" horiz-adv-x="1000" 
d="M446 569q0 -67 74 -74q87 -8 103 -44v20q0 15 -3.5 44t-3.5 44v17q0 25 4 41q-36 20 -104 24q-70 4 -70 -72zM403 934q138 0 260 -73q59 74 130 81q160 0 160 -232q0 -75 -18 -194l-22 -145q0 -69 -38 -219q-45 -178 -108 -178q-41 0 -66 84l-32 108q-76 -132 -219 -183
q-51 -18 -99 -18q-110 0 -176 72q-63 69 -63 181q0 81 52 81q31 0 74 -29q91 -61 177 -61q36 0 71 11q116 36 136 209q-52 -85 -224 -85q-143 0 -238 74q-105 81 -105 220q0 140 107 222q97 74 241 74z" />
    <glyph glyph-name="afii10071" unicode="&#x451;" horiz-adv-x="875" 
d="M454 774q-66 0 -106 -90q-33 -74 -33 -149q0 -177 132 -227q50 -19 105 -19q79 0 163 47q55 31 83 31q30 0 30 -36q0 -6 -2 -18q-28 -199 -188 -293q-78 -46 -175 -46q-200 0 -317 158q-92 125 -92 254q0 321 213 468q112 77 251 77q125 0 200 -64q78 -68 78 -192
q0 -110 -82.5 -182.5t-194.5 -72.5q-95 0 -95 61q0 13 42 90q61 112 61 147q0 56 -73 56zM298 1324q59 0 93 -51q30 -44 30 -106q0 -64 -30 -107q-34 -50 -95 -50q-59 0 -94 50q-31 44 -31 106q0 64 31 108q35 50 96 50zM649 1324q58 0 93 -51q31 -45 31 -106
q0 -157 -123 -157q-59 0 -95 50q-32 44 -32 106q0 65 30 108q34 50 96 50z" />
    <glyph glyph-name="afii10100" unicode="&#x453;" horiz-adv-x="716" 
d="M613 184q71 0 71 -45q0 -11 -5 -26q-23 -70 -74 -98q-83 -46 -180 -46h-23q-10 2 -15 2q-243 26 -322 227q-17 43 -17 89q0 56 27 118q-31 22 -31 57q0 31 29 75q42 64 152 64q48 62 48 97q0 51 -59 51q-21 0 -49 -12q-14 -6 -26 -6q-35 0 -35 59q0 77 86 108
q53 19 114 19q32 0 75 -7q117 -19 192 -88q84 -76 84 -189q0 -33 -11 -71q7 1 19 1q36 0 41 -26q2 -10 2 -17q0 -67 -84 -127q-34 -24 -70 -24q-11 0 -25 3q-63 -91 -63 -127q0 -31 32 -42q54 -19 117 -19z" />
    <glyph glyph-name="afii10101" unicode="&#x454;" horiz-adv-x="944" 
d="M181 94q-102 92 -122 221q-3 19 -3 41q0 104 88 191q39 39 106 39q39 0 86 -13q64 -18 116 -18q138 0 138 86q0 26 -14 58l-58 133q2 -9 2 -17v-16q0 -108 -115 -144q-42 -13 -78 -13q-69 0 -98 56q-24 46 -24 82q0 25 12 48q52 98 171 98q89 0 123 -58q9 56 51 51
q76 -9 184 -114q44 -43 55 -59q92 -137 92 -306q0 -37 -6 -85q-28 -222 -218 -326q-91 -50 -191 -50q-57 0 -120 18q-102 29 -177 97zM261 434q27 -123 106 -123q29 0 63 16q131 61 151 177q-95 -88 -179 -95q-12 -1 -18 -1h-15q-65 0 -108 26z" />
    <glyph glyph-name="afii10103" unicode="&#x456;" horiz-adv-x="476" 
d="M241 1377q83 0 132 -58q47 -54 47 -139t-47 -139q-50 -58 -133 -58q-86 0 -137.5 54.5t-51.5 141.5q0 85 52.5 141.5t137.5 56.5zM249 918q104 0 136 -111q23 -80 23 -254q0 -107 -34 -277q-26 -131 -39 -180q-29 -112 -84 -119t-93 104q-18 52 -48 191q-36 166 -36 280
q0 157 21 230q39 136 154 136z" />
    <glyph glyph-name="afii10104" unicode="&#x457;" horiz-adv-x="476" 
d="M241 1377q83 0 132 -58q47 -54 47 -139t-47 -139q-50 -58 -133 -58q-86 0 -137.5 54.5t-51.5 141.5q0 85 52.5 141.5t137.5 56.5zM249 918q104 0 136 -111q23 -80 23 -254q0 -107 -34 -277q-26 -131 -39 -180q-29 -112 -84 -119t-93 104q-18 52 -48 191q-36 166 -36 280
q0 157 21 230q39 136 154 136z" />
    <glyph glyph-name="afii10107" unicode="&#x45a;" horiz-adv-x="1048" 
d="M761 0q-61 0 -96 105q-16 48 -27 183q-10 122 -34 167q-38 -55 -117 -55q-88 0 -130 51l-17 -144q-8 -70 -35 -202q-21 -105 -91 -105q-55 0 -84 136q-64 301 -64 571q0 237 161 237q75 0 117 -62q36 -53 36 -132q0 -49 -19 -167q58 56 143 56q64 0 105 -56
q-19 127 -19 167q0 79 36 132q42 62 117 62q162 0 162 -237q0 -253 -62 -552q61 0 119 -71q47 -57 70 -127q15 -45 15 -82q0 -27 -7 -52q-17 -62 -100 -62q-66 0 -120 89q-42 69 -59 150z" />
    <glyph glyph-name="afii10108" unicode="&#x45b;" horiz-adv-x="1008" 
d="M324 451q57 132 97 207q143 270 285 270q82 0 155 -177q82 -198 82 -459q0 -331 -204 -331q-53 0 -74 36q-13 21 -22 85l-12 81q-13 85 -23 128q-41 168 -98 168q-51 0 -99 -93q-17 -32 -56 -137q-45 -121 -51 -133q-45 -96 -85 -96q-48 0 -58 67q-108 700 -108 1065
q0 258 188 258q178 0 178 -245q0 -118 -14 -198l-27 -154q-32 -184 -54 -342z" />
    <glyph glyph-name="afii10109" unicode="&#x45c;" horiz-adv-x="1113" 
d="M835 -23l-31 -3q-152 0 -234 101q-38 47 -122 238q-36 81 -89 187l-56 -412q-15 -114 -78 -114q-51 0 -66 78q-2 8 -21 119q-21 60 -51 200q-34 158 -34 272q0 287 177 287q120 0 144 -115q11 -52 11 -102q0 -56 -14 -100q177 248 371 304q21 6 41 6q52 0 86.5 -36
t34.5 -88q0 -101 -172 -157q-87 -28 -131 -88q106 -58 167 -186q73 -154 141 -215q60 0 119 -70q86 -102 86 -211q0 -23 -7 -49q-17 -62 -101 -62q-67 0 -117 77q-39 60 -54 139z" />
    <glyph glyph-name="glyph103" unicode="&#x492;" horiz-adv-x="1034" 
d="M440 96q-35 -122 -111 -122q-99 0 -122 218q-47 447 -47 749q-97 45 -135 175q-16 55 -16 103q0 67 31 119q23 39 52 39q9 -2 50 -14q24 -7 45 -12q56 108 136 108q14 0 29 -3q101 -21 150 -129h72q77 0 120 6q79 11 188 47q30 10 54 10q54 0 83 -49q43 -72 43 -152
q0 -198 -189 -263q-108 -37 -359 -37l-11 -227q57 99 130 99q6 1 13 1h10q67 0 118 -40t66 -105q3 -13 3 -26q0 -58 -60 -104q-56 -44 -115 -44q-21 0 -45 6q-88 22 -127 111q0 -269 -56 -464z" />
    <glyph glyph-name="glyph102" unicode="&#x493;" horiz-adv-x="716" 
d="M613 184q71 0 71 -45q0 -11 -5 -26q-23 -70 -74 -98q-83 -46 -180 -46h-23q-10 2 -15 2q-243 26 -322 227q-17 43 -17 89q0 56 27 118q-31 22 -31 57q0 31 29 75q42 64 152 64q48 62 48 97q0 51 -59 51q-21 0 -49 -12q-14 -6 -26 -6q-35 0 -35 59q0 77 86 108
q53 19 114 19q32 0 75 -7q117 -19 192 -88q84 -76 84 -189q0 -33 -11 -71q7 1 19 1q36 0 41 -26q2 -10 2 -17q0 -67 -84 -127q-34 -24 -70 -24q-11 0 -25 3q-63 -91 -63 -127q0 -31 32 -42q54 -19 117 -19z" />
    <glyph glyph-name="glyph105" unicode="&#x49a;" horiz-adv-x="1532" 
d="M1115 -9q-49 -17 -84 -17q-161 0 -261 122q-56 69 -141 267l-145 340q-54 -481 -93 -624q-21 -77 -82 -102q-15 -6 -25 -6q-42 0 -66 74q-30 93 -70 477q-43 414 -43 574q0 120 44 197q55 97 166 97q171 0 195 -240q4 -40 4 -98v-13q0 -38 -5 -88l-16 -161q47 63 131 186
q32 46 94 169q57 111 98 163q55 69 130 69q69 0 112 -44.5t43 -113.5q0 -144 -126 -275q-76 -79 -249 -191q81 -34 144 -118q41 -54 95 -162q60 -119 91 -165q58 -87 133 -127q26 -14 38 -27q91 0 194 -74q92 -66 92 -175q0 -75 -54 -127.5t-130 -52.5q-92 0 -151 91
q-46 70 -63 175z" />
    <glyph glyph-name="glyph104" unicode="&#x49b;" horiz-adv-x="1113" 
d="M835 -23l-31 -3q-152 0 -234 101q-38 47 -122 238q-36 81 -89 187l-56 -412q-15 -114 -78 -114q-51 0 -66 78q-2 8 -21 119q-21 60 -51 200q-34 158 -34 272q0 287 177 287q120 0 144 -115q11 -52 11 -102q0 -56 -14 -100q177 248 371 304q21 6 41 6q52 0 86.5 -36
t34.5 -88q0 -101 -172 -157q-87 -28 -131 -88q106 -58 167 -186q73 -154 141 -215q60 0 119 -70q86 -102 86 -211q0 -23 -7 -49q-17 -62 -101 -62q-67 0 -117 77q-39 60 -54 139z" />
    <glyph glyph-name="glyph107" unicode="&#x4a2;" horiz-adv-x="1371" 
d="M942 -22l-23 -4q-84 0 -121 256q-6 41 -6 66l-8 91q-57 -114 -170 -114q-114 0 -170 111l-12 -89q-5 -36 -23 -138q-38 -183 -111 -183q-61 0 -86 93q-18 67 -63 451q-44 376 -44 571q0 301 208 301q198 0 198 -303q0 -177 -52 -590q58 81 153 81q87 0 158 -79
q-49 406 -49 602q0 289 208 289q198 0 198 -304q0 -223 -27 -440q-33 -267 -64 -433l-5 -27l-4 -33q115 0 207 -65q103 -73 103 -183q0 -74 -54.5 -127t-129.5 -53q-171 0 -211 253z" />
    <glyph glyph-name="glyph106" unicode="&#x4a3;" horiz-adv-x="1048" 
d="M761 0q-61 0 -96 105q-16 48 -27 183q-10 122 -34 167q-38 -55 -117 -55q-88 0 -130 51l-17 -144q-8 -70 -35 -202q-21 -105 -91 -105q-55 0 -84 136q-64 301 -64 571q0 237 161 237q75 0 117 -62q36 -53 36 -132q0 -49 -19 -167q58 56 143 56q64 0 105 -56
q-19 127 -19 167q0 79 36 132q42 62 117 62q162 0 162 -237q0 -253 -62 -552q61 0 119 -71q47 -57 70 -127q15 -45 15 -82q0 -27 -7 -52q-17 -62 -100 -62q-66 0 -120 89q-42 69 -59 150z" />
    <glyph glyph-name="glyph113" unicode="&#x4ae;" horiz-adv-x="1050" 
d="M654 291q33 6 69 6q56 0 130 -17q113 -26 113 -146q0 -110 -141 -158q-97 -33 -238 -33q-54 0 -102 5q-105 11 -154 37q-81 43 -81 111q0 31 15 65q49 110 101 183q-343 392 -343 735q0 200 126 265q48 25 90 25q64 0 93 -71q3 -8 50 -133q7 -18 26 -70q4 -12 17 -45
l17 -41q66 -159 141 -196q8 -4 16 -4q50 0 100 202q25 103 41 147q73 205 172 205q68 0 104 -65q29 -53 29 -127q0 -197 -134 -462q-80 -157 -257 -418z" />
    <glyph glyph-name="glyph112" unicode="&#x4af;" horiz-adv-x="911" 
d="M276 168q-126 208 -173 374q-24 85 -24 208q0 68 54.5 133.5t121.5 65.5q33 0 58 -27q56 -62 94 -159l76 -196q37 -95 96 -95q50 0 72 94q2 10 18 135q13 103 27 143q30 86 96 86q71 0 71 -91v-23q0 -113 -12 -183q-19 -110 -50 -221l-38 -135q-18 -63 -92 -232
q-45 -102 -45 -165q0 -36 14 -59q64 -104 64 -156q0 -59 -126 -59q-162 0 -209 84q-23 41 -23 86q0 30 22.5 86.5t22.5 86.5q0 35 -19 64q-27 41 -96 155z" />
    <glyph glyph-name="glyph111" unicode="&#x4b0;" horiz-adv-x="1050" 
d="M827 160q0 -152 -198 -184q-43 -7 -83 -7q-38 0 -80 6q-153 22 -199 109q-5 10 -18 68q-10 46 -21 44q-20 -4 -32 -4q-53 0 -100 99q-39 83 -39 128q0 49 86 64q29 5 56 5q6 0 6 8t-6 23l-20 51q-77 198 -113 256q-40 66 -40 280q0 200 127 264q52 26 90 26q63 0 92 -72
q49 -123 76 -203q37 -110 99 -206q35 -54 77 -76q10 -4 16 -4q48 0 99 200q26 104 41 146q72 209 173 209q67 0 103 -66q30 -54 30 -127q0 -147 -95 -303q-80 -132 -135 -326l-11 -39q-3 -11 -3 -16q0 -7 6 -9q73 -8 98 -34q16 -17 51 -101q12 -29 12 -58q0 -83 -122 -83
q-23 0 -23 -68z" />
    <glyph glyph-name="glyph110" unicode="&#x4b1;" horiz-adv-x="911" 
d="M578 -394q-162 0 -209 83q-22 39 -22 86q0 44 23 93q13 28 19 61q-87 -39 -137 -39q-111 0 -111 90q0 33 20 75q48 101 115 113q-123 198 -173 374q-24 84 -24 208q0 68 54.5 133.5t121.5 65.5q33 0 58 -27q56 -61 94 -159l76 -196q37 -95 96 -95q50 0 72 94q2 10 18 135
q13 103 27 143q30 86 96 86q71 0 71 -91v-23q0 -113 -12 -183q-19 -110 -50 -221l-38 -135q60 18 92 18q41 0 41 -29q0 -46 -55 -163q-27 -58 -80 -73l-107 -31q-18 -56 -24 -104q-2 -16 -2 -26q0 -29 12 -48q39 -62 61 -138q3 -10 3 -18q0 -59 -126 -59z" />
    <glyph glyph-name="glyph115" unicode="&#x4ba;" horiz-adv-x="1234" 
d="M448 447q14 36 36 83l14 30q13 27 37 78q138 289 284 289q79 0 152 -176q81 -196 81 -459q0 -331 -203 -331q-53 0 -74 36q-13 21 -22 85l-12 81q-13 85 -23 128q-41 168 -98 168q-60 0 -130 -155q-12 -26 -38 -88l-59 -139q-44 -103 -90 -103q-28 0 -58.5 32t-35.5 61
q-25 145 -73 531q-35 281 -35 534q0 105 54 177q60 81 161 81q199 0 199 -339q0 -83 -17 -196q-6 -37 -22 -145q-1 -10 -10 -92z" />
    <glyph glyph-name="glyph114" unicode="&#x4bb;" horiz-adv-x="1008" 
d="M324 451q57 132 97 207q143 270 285 270q82 0 155 -177q82 -198 82 -459q0 -331 -204 -331q-53 0 -74 36q-13 21 -22 85l-12 81q-13 85 -23 128q-41 168 -98 168q-51 0 -99 -93q-17 -32 -56 -137q-45 -121 -51 -133q-45 -96 -85 -96q-48 0 -58 67q-108 700 -108 1065
q0 258 188 258q178 0 178 -245q0 -118 -14 -198l-27 -154q-32 -184 -54 -342z" />
    <glyph glyph-name="glyph101" unicode="&#x4d8;" horiz-adv-x="1210" 
d="M422 560q30 -88 184 -88q116 0 185 86q61 75 74 196q-112 -112 -206 -130q-52 -10 -103 -10q-29 0 -50 3l-85 12q-12 2 -12 -16q0 -15 13 -53zM460 912q42 -5 152 -37q75 -22 162 -22h35q25 3 37 4q-50 96 -171 131q-43 10 -153 38q-97 25 -124 75q-75 137 -75 220
q0 23 7 43q20 57 75 57q15 0 55 -11q78 -21 279 -76q161 -45 241 -143q174 -214 174 -551q0 -383 -229 -559q-139 -107 -313 -107q-286 0 -432 241q-114 188 -114 423q0 237 133 262q85 16 175 16q51 0 86 -4z" />
    <glyph glyph-name="glyph100" unicode="&#x4d9;" horiz-adv-x="944" 
d="M181 94q-102 92 -122 221q-3 19 -3 41q0 104 88 191q39 39 106 39q39 0 86 -13q64 -18 116 -18q138 0 138 86q0 26 -14 58l-58 133q2 -9 2 -17v-16q0 -108 -115 -144q-42 -13 -78 -13q-69 0 -98 56q-24 46 -24 82q0 25 12 48q52 98 171 98q89 0 123 -58q9 56 51 51
q76 -9 184 -114q44 -43 55 -59q92 -137 92 -306q0 -37 -6 -85q-28 -222 -218 -326q-91 -50 -191 -50q-57 0 -120 18q-102 29 -177 97zM261 434q27 -123 106 -123q29 0 63 16q131 61 151 177q-95 -88 -179 -95q-12 -1 -18 -1h-15q-65 0 -108 26z" />
    <glyph glyph-name="glyph109" unicode="&#x4e8;" horiz-adv-x="1210" 
d="M862 746q-86 -106 -254 -106q-169 0 -253 114q12 -121 73 -196q69 -86 185 -86q112 0 182 82q67 79 67 192zM856 868q-2 26 -15 83q-12 54 -12 83q0 23 5 49q11 58 87 58q116 0 183 -203q50 -152 50 -300q0 -235 -115 -423q-147 -241 -431 -241q-175 0 -314 107
q-228 176 -228 559q0 334 174 551q92 115 259 180q67 26 128 26q93 0 176 -58q62 -43 62 -105q0 -19 -7 -42q-20 -64 -76 -64q-22 0 -49 9q-57 19 -113 28q-6 1 -21 1q-43 0 -90 -27q-127 -74 -153 -282q94 85 245 85q149 0 255 -74z" />
    <glyph glyph-name="glyph108" unicode="&#x4e9;" horiz-adv-x="944" 
d="M693 651q0 96 57 96q78 0 116 -133q26 -91 26 -200q0 -165 -94 -288q-116 -152 -323 -152q-166 0 -279 103q-143 131 -143 359q0 216 116 354q81 96 218 131q47 12 93 12q70 0 140 -31q86 -38 86 -100q0 -8 -1 -13q-8 -42 -45 -42q-19 0 -47 11q-57 22 -109 22
q-28 0 -55 -8q-71 -21 -89 -113q55 48 167 48q91 0 166 -56zM354 601q0 -78 46.5 -130t123.5 -52q78 0 124.5 49t46.5 127q-95 -69 -176 -69q-94 0 -165 75z" />
    <glyph glyph-name="endash" unicode="&#x2013;" horiz-adv-x="978" 
d="M702 354h-399q-108 0 -157 18q-80 29 -80 118q0 139 244 139h385q210 0 210 -140q0 -135 -203 -135z" />
    <glyph glyph-name="emdash" unicode="&#x2014;" horiz-adv-x="1250" 
d="M1043 354h-810q-106 0 -155 19q-78 30 -78 117q0 139 240 139h796q209 0 209 -140q0 -135 -202 -135z" />
    <glyph glyph-name="underscoredbl" unicode="&#x2017;" horiz-adv-x="2064" 
d="M255 132l816 1189q47 69 96 69q23 0 44 -14q38 -25 38 -62q0 -32 -28 -73l-830 -1205q-44 -64 -89 -64q-24 0 -46 16q-34 24 -34 61q0 35 33 83zM298 1390q42 0 106 -38q35 -21 35 -48q0 -20 -18 -40.5t-38 -20.5q-12 0 -24 8q-31 21 -63 21q-62 0 -98 -71
q-29 -57 -29 -126q0 -197 128 -197q126 0 126 116v59q0 17 1 55q0 14 -2 41t-2 40q-1 7 -1 11q0 59 48 59q54 0 86 -101q22 -70 22 -154q0 -31 -3 -67q-11 -133 -73 -219q-73 -102 -198 -102q-143 0 -217 127q-60 103 -60 258q0 143 65 255q78 134 209 134zM1150 760
q-133 0 -210 -136q-65 -114 -65 -258q0 -154 61 -261q75 -131 217 -131q140 0 215 131q60 105 60 257q0 88 -25 165q-33 102 -94 102q-51 0 -51 -56q0 -8 2 -17q15 -69 15 -199q0 -121 -126 -121q-128 0 -128 203q0 69 29 129q36 75 98 75q30 0 63 -21q12 -8 24 -8
q18 0 37 21t19 39q0 26 -36 48q-61 38 -105 38zM1753 760q42 0 105 -38q35 -21 35 -47q0 -19 -18 -40t-37 -21q-12 0 -24 8q-31 21 -63 21q-62 0 -98 -75q-29 -60 -29 -129q0 -203 129 -203q125 0 125 121v61q0 10 1 58q0 14 -2 41t-2 40q-1 7 -1 12q0 60 47 60
q56 0 87 -102q23 -75 23 -162q0 -154 -60 -260q-73 -131 -216 -131t-217 131q-60 106 -60 261q0 144 65 258q77 136 210 136z" />
    <glyph glyph-name="quoteleft" unicode="&#x2018;" horiz-adv-x="581" 
d="M349 1150q112 -17 112 -123q0 -19 -4 -42q-26 -146 -166 -146t-161 108q-6 31 -6 68q0 77 30 157q44 117 126 194q45 42 84 42q30 0 58 -24.5t28 -54.5q0 -29 -34 -62q-61 -58 -67 -117z" />
    <glyph glyph-name="quoteright" unicode="&#x2019;" horiz-adv-x="581" 
d="M227 1089q-109 15 -109 136q0 18 2 30q11 64 57 106t110 42q126 0 156 -108q11 -39 11 -83q0 -140 -93 -271q-72 -102 -158 -102q-27 0 -51 22.5t-24 49.5q0 25 32 63l50 59q17 30 17 56z" />
    <glyph glyph-name="quotesinglbase" unicode="&#x201a;" horiz-adv-x="577" 
d="M118 110q0 18 2 30q11 66 56 107.5t111 41.5q126 0 156 -108q11 -39 11 -83q0 -141 -93 -271q-73 -102 -158 -102q-28 0 -51.5 22.5t-23.5 50.5q0 26 32 64l50 59q17 30 17 56q-109 12 -109 133z" />
    <glyph glyph-name="quotedblleft" unicode="&#x201c;" horiz-adv-x="1024" 
d="M349 1150q112 -17 112 -123q0 -19 -4 -42q-26 -146 -166 -146t-161 108q-6 31 -6 68q0 77 30 157q44 117 126 194q45 42 84 42q30 0 58 -24.5t28 -54.5q0 -29 -34 -62q-61 -58 -67 -117zM793 1150q113 -17 113 -123q0 -18 -4 -42q-24 -146 -166 -146q-151 0 -165 132
q-2 19 -2 46q0 76 28 153q43 117 122 194q44 43 83 43q28 0 54 -24.5t26 -52.5q0 -26 -29 -64q-40 -52 -44 -60q-16 -30 -16 -56z" />
    <glyph glyph-name="quotedblright" unicode="&#x201d;" horiz-adv-x="1024" 
d="M227 1089q-109 15 -109 136q0 18 2 30q11 64 57 106t110 42q126 0 156 -108q11 -39 11 -83q0 -140 -93 -271q-72 -102 -158 -102q-27 0 -51 22.5t-24 49.5q0 25 32 63l50 59q17 30 17 56zM670 1089q-107 15 -107 137q0 18 2 29q28 148 167 148q126 0 156 -108
q11 -39 11 -83q0 -139 -93 -271q-72 -102 -157 -102q-28 0 -52 22.5t-24 50.5q0 25 32 62q45 52 49 59q16 27 16 56z" />
    <glyph glyph-name="quotedblbase" unicode="&#x201e;" horiz-adv-x="1024" 
d="M118 110q0 18 2 30q11 66 56 107.5t111 41.5q126 0 156 -108q11 -39 11 -83q0 -141 -93 -271q-73 -102 -158 -102q-28 0 -51.5 22.5t-23.5 50.5q0 26 32 64l50 59q17 30 17 56q-109 12 -109 133zM563 111q0 18 2 30q11 64 57 106t110 42q118 0 150 -89q18 -50 18 -104
q0 -42 -11 -89q-23 -98 -82 -180q-73 -102 -158 -102q-28 0 -52 22.5t-24 50.5q0 31 32 63q65 65 65 116q-107 13 -107 134z" />
    <glyph glyph-name="dagger" unicode="&#x2020;" horiz-adv-x="1153" 
d="M569 1403q163 0 163 -249q0 -82 -40 -158q-48 -91 -122 -91q-68 0 -111 77q-50 90 -50 171q0 250 160 250zM579 669q141 0 178 -118q25 -79 25 -180q0 -38 -5 -90q-14 -144 -58 -298l-57 -199q-41 -143 -89 -135q-51 9 -90 140l-60 204q-36 123 -52 295q0 184 28 265
q40 116 180 116zM285 970q90 0 169 -40q97 -49 97 -130q0 -71 -76 -116q-88 -52 -167 -52q-242 0 -242 167q0 87 69 132q59 39 150 39zM877 970q86 0 144 -41q66 -46 66 -129t-71 -130q-61 -41 -149 -41q-89 0 -168 41q-96 50 -96 129q0 76 103 128q86 43 171 43z" />
    <glyph glyph-name="daggerdbl" unicode="&#x2021;" horiz-adv-x="1050" 
d="M654 291q33 6 69 6q56 0 130 -17q113 -26 113 -146q0 -110 -141 -158q-97 -33 -238 -33q-54 0 -102 5q-105 11 -154 37q-81 43 -81 111q0 31 15 65q49 110 101 183q-343 392 -343 735q0 200 126 265q48 25 90 25q64 0 93 -71q3 -8 50 -133q7 -18 26 -70q4 -12 17 -45
l17 -41q66 -159 141 -196q8 -4 16 -4q50 0 100 202q25 103 41 147q73 205 172 205q68 0 104 -65q29 -53 29 -127q0 -197 -134 -462q-80 -157 -257 -418z" />
    <glyph glyph-name="bullet" unicode="&#x2022;" horiz-adv-x="1371" 
d="M692 970q123 0 198.5 -79.5t75.5 -202.5q0 -125 -77 -203t-201 -78q-125 0 -201.5 78t-76.5 203q0 127 77.5 204.5t204.5 77.5z" />
    <glyph glyph-name="ellipsis" unicode="&#x2026;" horiz-adv-x="1774" 
d="M298 354q84 0 134 -53t50 -137t-51.5 -137t-134.5 -53t-136 53.5t-53 136.5q0 84 53.5 137t137.5 53zM888 354q84 0 134 -53t50 -137q0 -83 -52 -136.5t-135 -53.5q-84 0 -136 53t-52 137q0 85 53 137.5t138 52.5zM1478 354q84 0 134 -53t50 -137q0 -83 -52 -136.5
t-135 -53.5q-84 0 -136 53t-52 137q0 85 53 137.5t138 52.5z" />
    <glyph glyph-name="perthousand" unicode="&#x2030;" horiz-adv-x="911" 
d="M276 168q-126 208 -173 374q-24 85 -24 208q0 68 54.5 133.5t121.5 65.5q33 0 58 -27q56 -62 94 -159l76 -196q37 -95 96 -95q50 0 72 94q2 10 18 135q13 103 27 143q30 86 96 86q71 0 71 -91v-23q0 -113 -12 -183q-19 -110 -50 -221l-38 -135q-18 -63 -92 -232
q-45 -102 -45 -165q0 -36 14 -59q64 -104 64 -156q0 -59 -126 -59q-162 0 -209 84q-23 41 -23 86q0 30 22.5 86.5t22.5 86.5q0 35 -19 64q-27 41 -96 155z" />
    <glyph glyph-name="guilsinglleft" unicode="&#x2039;" horiz-adv-x="484" 
d="M351 826q46 0 71 -42q11 -19 11 -39q0 -23 -15 -44q-91 -129 -132 -158q-10 -7 -10 -21q0 -45 99 -160q38 -44 54 -96q4 -13 4 -26q0 -41 -37 -75t-79 -34q-19 0 -38 8q-118 49 -194 220q-32 72 -32 111q0 84 107 218q111 138 191 138z" />
    <glyph glyph-name="guilsinglright" unicode="&#x203a;" horiz-adv-x="488" 
d="M176 826q76 0 169 -134q88 -126 88 -206q0 -73 -88 -190q-82 -108 -154 -149q-27 -15 -50 -15q-29 0 -51 22q-31 30 -31 61q0 41 55 86q96 78 96 144q0 34 -44 86q-19 22 -67 79q-33 40 -47 88q-2 7 -2 18q0 43 41.5 76.5t84.5 33.5z" />
    <glyph glyph-name="afii61352" unicode="&#x2116;" horiz-adv-x="1935" 
d="M851 624q29 297 126 316q5 1 12 1q31 0 57 -30t29 -62q7 -75 7 -166q0 -82 -8 -160l-30 -291q-25 -244 -182 -244q-112 0 -177 123q-54 103 -99 210l-33 79q-61 147 -116 234q-30 48 -52 48q-49 0 -49 -79q0 -7 12 -121q26 -248 26 -311v-86q0 -111 -110 -111
q-114 0 -141 244q-10 92 -8 193l3 141q-1 96 0 287q4 228 44 368q53 183 166 183q324 0 523 -766zM1246 1132q-78 0 -115 -38l-42 -69q-23 -38 -68 -38q-69 0 -69 81q0 167 133 292t302 125q254 0 254 -255q0 -88 -82 -152q-42 -33 -84 -33q-37 0 -73 28q-75 59 -156 59z
M1247 171l432 -2q36 0 65.5 -24.5t29.5 -59.5q0 -33 -27.5 -58.5t-60.5 -25.5l-439 -1q-33 0 -63 27.5t-30 60.5t29.5 58t63.5 25zM1489 930q43 0 106 -30q35 -17 35 -37q0 -17 -19 -33.5t-36 -16.5q-12 0 -25 7q-39 22 -75 22q-25 0 -45 -13q-57 -37 -57 -104q0 -38 24 -75
q32 -49 112 -49q91 0 108 35q12 25 12 54v11q-2 8 -2 12l-13 77q-6 36 43 36q55 0 87 -80q20 -50 20 -117q0 -73 -27 -157q-51 -159 -245 -159q-132 0 -207 90q-71 84 -71 218q0 125 74 214q78 95 201 95z" />
    <glyph glyph-name="trademark" unicode="&#x2122;" horiz-adv-x="1495" 
d="M326 1091q115 -15 107 -140l-6 -90q-1 -22 -8 -86q-14 -104 -44 -182q-21 -55 -55 -55q-49 0 -85 185q-17 86 -20 144l-5 88q-5 92 75 130q-38 -5 -68 -5q-71 0 -136 22q-94 32 -94 177q0 99 64 99q12 0 27 -4q90 -24 159 -24q90 0 185 24q13 3 25 4l16 1q67 4 126 -65
q39 -46 53 -155q2 -16 2 -23q0 -61 -55 -61q-18 0 -37 5q-73 19 -142 19q-39 0 -84 -8zM1049 1149q67 225 163 225q30 0 59 -23q107 -86 159 -330q10 -47 17 -126q4 -45 4 -83q0 -33 -4 -75q-19 -199 -141 -199q-74 0 -74 125q0 78 -13 179q-18 141 -49 141q-20 0 -33 -47
l-28 -104q-40 -150 -92 -150q-47 0 -89 150l-29 104q-13 47 -38 47q-43 0 -45 -156l-3 -203q-1 -71 -59 -86q-12 -3 -22 -3q-63 0 -86 133q-8 46 -8 99q0 74 15 155q26 140 70 263q72 199 150 199q28 0 54 -27q84 -86 122 -208z" />
    <glyph glyph-name="glyph99" horiz-adv-x="2048" 
 />
    <glyph glyph-name="glyph100" horiz-adv-x="2048" 
 />
    <glyph glyph-name="glyph101" horiz-adv-x="2048" 
 />
    <glyph glyph-name="glyph102" horiz-adv-x="2048" 
 />
    <glyph glyph-name="glyph103" horiz-adv-x="2048" 
 />
    <glyph glyph-name="glyph368" horiz-adv-x="512" 
 />
    <glyph glyph-name="glyph369" horiz-adv-x="512" 
 />
    <glyph glyph-name="c291" 
 />
    <glyph glyph-name="c304" 
 />
    <glyph glyph-name="c305" 
 />
    <glyph glyph-name="NULL" horiz-adv-x="0" 
 />
  </font>
</defs>
</svg>
